{"glyphs":{"0":{"ha":768,"x_min":41,"x_max":732,"o":"m 614 479 q 519 818 614 674 q 260 1011 425 962 q 184 848 212 939 q 157 671 157 761 q 252 360 157 490 q 507 161 345 229 q 614 479 614 294 m 732 619 q 707 433 732 524 q 635 261 681 342 q 526 111 591 181 q 387 -5 459 40 q 134 216 226 69 q 41 555 41 361 q 136 901 41 741 q 387 1180 233 1063 q 640 962 549 1107 q 732 619 732 817 z "},"1":{"ha":452,"x_min":-16,"x_max":431,"o":"m 406 206 l 431 174 l 243 -5 l 65 138 l 119 206 l 119 846 q 118 907 119 892 q 112 949 117 930 q 94 984 106 968 q 57 1022 77 1004 l 8 979 l -16 1011 l 155 1180 q 219 1128 193 1154 q 256 1072 241 1103 q 273 1000 269 1041 q 277 902 277 960 l 277 283 q 288 198 277 233 q 334 143 298 162 l 406 206 z "},"2":{"ha":776,"x_min":56,"x_max":739,"o":"m 739 170 l 605 -5 q 549 21 572 12 q 481 47 526 30 q 351 66 417 66 q 75 -5 209 66 l 56 8 q 108 149 70 75 q 203 294 144 222 l 433 564 q 545 871 545 719 q 476 1057 545 977 l 187 788 l 81 907 l 373 1180 l 714 939 l 715 864 q 656 636 718 730 q 505 467 591 539 q 320 319 415 389 q 161 161 224 249 q 236 193 206 181 q 303 216 265 205 q 371 229 332 223 q 448 233 404 233 q 589 216 514 233 q 739 170 665 199 z "},"3":{"ha":728,"x_min":11,"x_max":693,"o":"m 693 353 q 593 143 693 208 q 298 5 507 86 l 11 281 l 125 406 l 436 114 q 493 189 477 135 q 509 302 509 243 q 493 427 509 368 q 446 530 477 487 q 370 597 416 573 q 265 619 326 620 l 184 615 l 184 673 q 401 760 329 689 q 471 997 471 831 q 444 1072 471 1053 q 371 1053 414 1088 l 323 1009 l 173 880 l 79 997 l 306 1191 l 652 1013 l 654 989 q 603 778 661 865 q 446 648 543 688 q 622 545 550 621 q 693 353 693 470 z "},"4":{"ha":751,"x_min":14,"x_max":715,"o":"m 47 543 l 387 543 l 387 873 q 381 959 387 930 q 346 1011 376 989 l 47 543 m 688 543 l 715 387 l 541 387 l 541 205 l 578 179 q 610 170 591 170 q 637 181 621 170 l 667 205 l 688 174 l 503 5 l 333 136 l 387 219 l 387 387 l 45 387 l 14 555 l 420 1191 q 485 1155 463 1174 q 521 1105 508 1135 q 536 1038 532 1079 q 541 944 541 999 l 541 543 l 688 543 z "},"5":{"ha":725,"x_min":37,"x_max":691,"o":"m 691 467 q 667 304 691 375 q 598 179 643 234 q 486 83 551 123 q 329 5 416 41 l 37 199 l 145 341 l 470 128 q 559 341 559 208 q 490 549 559 464 q 305 675 421 633 l 98 517 l 199 1168 l 640 1168 l 580 993 l 209 993 l 150 608 l 451 837 q 553 766 510 804 q 627 682 596 727 q 675 587 659 635 q 691 467 691 537 z "},"6":{"ha":751,"x_min":41,"x_max":715,"o":"m 591 374 q 528 536 591 461 q 382 648 467 609 l 193 515 q 227 396 199 457 q 296 291 254 338 q 392 208 338 242 q 507 154 446 173 q 567 254 542 194 q 591 374 591 315 m 715 492 q 688 342 712 406 q 621 222 662 277 q 517 115 576 165 q 380 5 462 68 q 134 195 227 64 q 41 511 41 327 q 144 880 41 713 q 419 1191 247 1044 l 676 1029 l 567 882 l 305 1044 q 187 561 187 823 l 517 788 q 659 669 603 744 q 715 492 715 594 z "},"7":{"ha":714,"x_min":3,"x_max":680,"o":"m 141 1168 l 680 1168 l 677 1118 q 411 644 502 909 q 319 92 319 379 l 108 5 q 141 273 109 144 q 229 523 172 401 q 363 760 285 643 q 534 997 441 878 l 313 997 q 215 993 256 997 q 143 974 176 989 q 90 930 113 959 q 43 850 65 899 l 3 850 l 141 1168 z "},"8":{"ha":719,"x_min":27,"x_max":685,"o":"m 612 350 q 577 461 612 425 q 487 515 541 498 q 360 537 431 532 q 217 553 289 542 q 159 483 182 517 q 138 403 138 450 q 159 313 138 353 q 225 246 181 271 q 417 195 313 195 q 553 232 494 195 q 612 350 612 269 m 533 875 q 517 939 533 913 q 475 979 501 964 q 417 1001 448 994 q 352 1009 385 1008 l 225 1017 l 192 1017 q 163 955 176 991 q 149 888 149 920 q 178 802 149 836 q 267 759 208 766 l 452 735 q 512 800 492 768 q 533 875 533 833 m 685 456 q 606 222 685 319 q 382 7 534 130 l 352 5 q 234 20 292 1 q 130 75 176 39 q 56 165 84 111 q 27 279 27 218 q 68 435 27 366 q 173 566 109 503 q 79 637 115 587 q 43 757 43 686 q 106 962 43 861 q 279 1190 167 1060 l 341 1193 q 451 1181 395 1194 q 549 1137 507 1166 q 618 1064 592 1107 q 646 964 646 1021 q 610 839 646 895 q 506 722 574 783 q 633 622 581 694 q 685 456 685 547 z "},"9":{"ha":718,"x_min":18,"x_max":684,"o":"m 345 551 l 529 681 q 491 800 518 745 q 420 904 462 857 q 326 984 377 951 q 216 1031 275 1015 q 142 840 142 950 q 200 671 142 748 q 345 551 256 595 m 684 670 q 589 305 684 472 q 334 5 491 138 l 64 168 l 172 321 l 427 163 q 473 256 448 199 q 511 360 494 304 q 534 467 525 410 q 540 568 541 521 l 537 631 l 212 403 q 70 534 119 456 q 18 724 18 613 q 106 979 18 873 q 347 1191 194 1084 q 596 987 509 1114 q 684 670 684 861 z "}," ":{"ha":543,"x_min":0,"x_max":0,"o":""},"A":{"ha":1219,"x_min":-34,"x_max":1161,"o":"m 591 332 l 612 307 l 368 -1 q 245 99 299 82 q 120 111 191 117 q 33 27 47 104 q 60 -96 19 -49 q 155 -143 90 -131 q 295 -155 220 -155 q 410 -149 353 -155 q 511 -111 468 -142 q 555 -41 541 -88 q 566 54 570 5 l 583 54 q 510 -179 600 -73 q 303 -278 421 -285 q 141 -230 222 -273 q 23 -106 60 -187 q 25 167 -34 19 q 193 351 85 315 q 267 368 232 363 l 494 1098 l 487 1123 q 419 1230 473 1179 q 300 1276 365 1280 q 238 1261 260 1274 q 197 1231 215 1249 q 154 1146 161 1196 q 175 1063 146 1097 q 230 1024 197 1034 q 300 1015 263 1015 q 377 1034 340 1015 q 424 1108 413 1053 q 430 1114 425 1115 q 436 1107 436 1114 q 420 1024 436 1057 q 401 987 405 991 q 277 928 351 928 q 186 958 228 928 q 127 1044 144 987 q 143 1198 106 1112 q 284 1318 180 1284 q 384 1337 319 1329 q 521 1333 448 1346 q 663 1275 593 1320 q 777 1134 732 1230 q 804 1215 786 1178 q 831 1278 822 1251 q 838 1278 833 1282 q 842 1268 843 1273 q 807 1146 821 1207 q 814 1009 793 1084 l 985 351 q 989 316 989 335 q 997 280 989 297 q 1040 234 1010 248 q 1082 232 1071 221 l 1143 292 l 1161 278 q 1044 140 1096 216 q 928 2 993 64 q 918 1 923 1 q 909 0 913 0 l 737 138 l 654 463 l 334 463 l 304 369 q 409 336 359 366 q 535 256 460 307 l 591 332 m 604 665 l 510 1033 l 396 665 l 604 665 z "},"B":{"ha":1097,"x_min":-3,"x_max":1045,"o":"m 533 0 q 344 121 444 83 q 152 153 244 159 q 43 45 56 146 q 83 -102 31 -55 q 215 -156 124 -137 q 408 -176 306 -174 q 554 -169 484 -178 q 680 -133 625 -161 q 761 -55 728 -108 q 798 68 794 -1 l 813 61 q 728 -183 834 -66 q 413 -302 622 -300 q 203 -257 288 -303 q 70 -131 118 -211 q 20 71 16 -39 q 83 277 23 180 q 227 415 137 362 l 227 638 l 96 644 q 33 604 52 645 q 9 501 15 563 l -3 502 l -3 673 q 22 774 -3 707 q 159 842 48 842 l 227 842 l 227 1046 q 79 1039 167 1041 q 60 1049 59 1038 q 75 1063 60 1061 q 455 1099 250 1077 q 847 1329 661 1122 q 869 1325 848 1329 q 979 1215 935 1286 q 1035 1063 1023 1144 q 1028 921 1045 991 q 962 804 1012 850 q 847 751 926 769 q 707 726 768 732 q 706 720 703 726 q 712 714 709 714 q 808 713 746 711 q 921 700 869 715 q 1016 568 1018 669 l 1008 163 q 884 167 947 169 q 756 140 822 165 q 650 85 705 121 q 533 0 596 50 m 187 363 q 229 379 209 372 q 409 393 314 406 q 583 333 503 380 l 583 711 l 493 709 l 493 458 q 359 441 418 461 q 255 404 300 420 q 187 363 220 391 m 493 732 q 583 738 543 734 l 583 1103 l 585 1105 q 493 1084 532 1092 l 493 732 m 618 1114 l 618 741 q 620 741 618 741 q 775 819 736 753 q 806 951 813 885 q 752 1078 800 1017 q 633 1119 705 1140 q 626 1116 629 1118 q 618 1114 622 1115 m 618 709 l 618 309 q 724 182 688 256 l 730 189 q 731 383 730 283 q 733 576 732 483 q 712 652 733 605 q 618 709 691 700 z "},"C":{"ha":1243,"x_min":12,"x_max":1184,"o":"m 871 998 l 871 56 q 1048 208 969 92 q 1139 448 1126 323 q 1152 457 1139 454 q 1165 454 1165 460 q 1066 174 1153 296 q 844 0 979 51 q 506 -17 685 -61 q 208 144 327 26 q 66 355 120 229 q 12 642 12 481 q 94 981 12 821 q 310 1236 176 1142 q 415 1290 359 1271 q 528 1322 471 1310 q 537 1316 538 1324 q 532 1307 536 1308 q 460 1273 504 1300 q 398 1208 417 1246 q 360 1099 374 1161 q 338 966 346 1037 l 949 1331 q 960 1331 952 1327 q 970 1321 968 1335 q 999 1209 978 1248 q 1046 1157 1021 1170 q 1124 1167 1087 1135 q 1152 1248 1160 1200 l 1184 1254 q 1128 1074 1175 1131 q 1028 999 1082 1017 q 928 987 975 981 q 871 998 881 994 m 836 50 l 836 1010 q 774 1082 793 1035 q 749 1155 755 1129 l 733 1146 l 730 317 l 398 203 q 441 145 414 178 q 520 83 469 112 q 675 30 585 47 q 836 50 765 13 m 335 928 q 329 781 329 857 q 330 635 328 706 q 336 451 332 595 q 386 235 340 307 l 441 254 l 441 986 l 335 928 z "},"D":{"ha":1098,"x_min":-1,"x_max":1046,"o":"m 553 -8 q 373 107 464 75 q 189 132 282 138 q 69 40 94 125 q 98 -92 45 -45 q 229 -146 138 -127 q 422 -167 319 -165 q 564 -159 510 -168 q 666 -121 617 -151 q 749 -47 709 -95 q 781 93 790 1 l 804 90 q 701 -165 825 -37 q 424 -287 576 -293 q 217 -248 319 -281 q 68 -134 116 -215 q 19 61 14 -43 q 93 240 24 164 l 91 247 q 152 318 121 293 q 229 372 182 344 l 229 536 l 98 542 q 40 523 64 543 q 11 441 17 503 l -1 442 l -1 594 q 25 684 -1 629 q 161 740 50 740 l 229 740 l 229 888 l 104 859 l 100 888 q 324 946 212 910 q 547 1027 437 983 q 506 1023 526 1025 q 465 1019 486 1021 q 264 1001 361 1008 q 127 1012 166 994 q 57 1075 91 1028 q 20 1187 22 1122 q 20 1250 20 1220 q 30 1320 20 1280 q 40 1327 30 1330 q 50 1318 50 1324 q 51 1301 51 1310 q 60 1288 50 1292 q 155 1281 86 1276 q 274 1289 223 1286 q 376 1294 288 1289 q 567 1305 464 1299 q 759 1314 669 1310 q 864 1314 848 1317 q 918 1296 882 1310 q 981 1258 953 1282 q 1038 1147 1033 1213 l 1046 253 q 754 178 866 253 q 553 -8 642 104 m 172 302 q 237 330 205 320 q 574 317 399 379 l 574 1008 l 496 972 l 496 415 q 361 398 420 418 q 257 361 302 378 q 172 302 215 346 m 627 1034 l 608 1025 l 608 302 q 753 224 680 273 l 767 235 l 770 928 q 769 1003 770 960 q 709 1040 768 1046 q 627 1034 682 1037 z "},"E":{"ha":1276,"x_min":22,"x_max":1215,"o":"m 881 1011 l 881 696 q 953 818 907 782 q 1046 852 998 853 q 1154 803 1105 850 q 1213 690 1202 757 q 1206 675 1215 676 q 1086 600 1118 662 q 1048 512 1053 538 q 1034 504 1046 505 q 1021 509 1021 502 q 965 657 1009 616 q 881 633 920 698 l 881 68 q 1058 220 979 105 q 1149 460 1137 336 q 1162 470 1149 467 q 1175 467 1175 473 q 1076 186 1163 309 q 854 12 989 64 q 516 -5 695 -48 q 218 157 337 39 q 76 368 130 242 q 22 655 22 493 q 104 994 22 833 q 320 1249 186 1155 q 425 1303 369 1284 q 539 1335 481 1322 q 548 1329 549 1337 q 543 1320 547 1320 q 471 1285 514 1312 q 408 1220 427 1259 q 370 1112 385 1174 q 349 979 356 1050 l 960 1344 q 970 1344 963 1340 q 980 1334 978 1348 q 1009 1222 988 1261 q 1056 1170 1031 1183 q 1134 1180 1097 1147 q 1162 1261 1171 1213 l 1194 1267 q 1139 1087 1185 1143 q 1039 1012 1093 1030 q 938 1000 985 994 q 881 1011 891 1006 m 846 62 l 846 1023 q 785 1095 804 1048 q 760 1168 766 1142 l 743 1159 l 741 330 l 408 216 q 452 158 425 191 q 530 96 479 125 q 685 43 595 60 q 846 62 775 26 m 345 941 q 339 794 339 869 q 340 648 338 719 q 346 464 342 608 q 396 248 351 319 l 452 267 l 452 1000 l 345 941 z "},"F":{"ha":1019,"x_min":-12,"x_max":971,"o":"m 741 1342 q 759 1343 752 1352 q 835 1217 784 1250 q 913 1192 886 1184 q 954 1299 946 1200 q 962 1302 954 1304 q 971 1293 971 1301 q 879 1057 959 1110 q 715 1021 798 1003 l 715 827 l 912 827 l 876 644 l 715 644 l 715 247 q 656 59 715 125 q 528 -6 597 -6 q 419 12 477 -6 q 312 54 360 30 q 230 103 279 71 q 127 134 180 136 q 72 107 96 133 q 45 51 48 81 q 82 -91 35 -45 q 199 -152 130 -136 q 339 -165 269 -168 q 446 -162 410 -163 q 562 -154 513 -161 q 655 -118 610 -146 q 711 -39 690 -94 q 728 66 732 17 l 748 62 q 688 -168 766 -59 q 566 -268 639 -235 q 414 -301 494 -300 q 215 -257 312 -303 q 61 -129 118 -212 q 4 15 20 -68 q 15 182 -12 99 q 146 368 62 320 q 277 412 231 416 l 277 644 l 58 644 l 94 827 l 277 827 l 277 1058 q 182 1048 212 1049 q 117 1046 152 1047 q 100 1058 109 1046 q 116 1071 92 1070 q 233 1080 161 1072 q 406 1125 304 1087 q 606 1236 514 1165 q 741 1342 699 1308 m 544 1155 q 544 786 544 1015 q 544 417 544 557 q 409 418 469 420 q 305 399 350 416 q 398 339 340 387 q 477 277 456 292 q 611 245 543 232 q 680 333 680 258 l 680 1034 q 544 1155 600 1070 z "},"G":{"ha":1358,"x_min":6,"x_max":1294,"o":"m 865 1013 l 865 785 q 998 806 909 785 q 1144 918 1086 827 q 1190 1200 1200 1008 q 1113 1074 1164 1116 q 1011 1018 1063 1033 q 917 1006 959 1003 q 865 1013 874 1009 m 865 763 l 865 72 q 966 217 958 132 q 973 395 973 302 q 975 570 973 456 q 939 740 976 683 q 865 763 920 768 m 202 159 q 60 370 115 245 q 6 658 6 496 q 88 997 6 836 q 304 1252 170 1158 q 410 1305 353 1286 q 523 1337 466 1325 q 532 1331 533 1339 q 527 1322 531 1323 q 455 1288 498 1315 q 392 1223 411 1261 q 354 1115 368 1177 q 333 981 340 1053 l 943 1347 q 955 1347 947 1343 q 964 1337 962 1351 q 994 1224 972 1263 q 1040 1173 1015 1185 q 1131 1192 1082 1150 q 1181 1293 1180 1233 q 1194 1300 1181 1301 q 1206 1295 1206 1300 q 1208 1258 1206 1274 q 1211 1224 1210 1242 q 1202 1002 1215 1104 q 1057 796 1188 900 q 1230 693 1166 793 q 1275 435 1294 592 q 1220 283 1265 354 q 1116 157 1176 213 q 659 -17 930 -12 q 202 159 387 -22 m 831 65 l 831 1025 q 769 1097 788 1050 q 743 1171 749 1144 l 728 1162 l 725 332 l 393 218 q 436 160 409 193 q 514 99 463 127 q 670 45 580 62 q 831 65 760 28 m 330 943 q 323 797 323 872 q 325 650 323 721 q 330 466 326 610 q 380 250 335 322 l 436 270 l 436 1002 l 330 943 z "},"H":{"ha":1111,"x_min":-9,"x_max":1058,"o":"m 686 331 l 709 306 q 415 3 553 167 q 301 86 378 44 q 153 134 224 128 q 58 113 98 139 q 16 12 18 87 q 45 -66 14 -33 q 121 -118 77 -100 q 239 -145 177 -141 q 341 -149 302 -149 q 454 -150 404 -151 q 549 -122 503 -150 q 643 65 639 -66 l 662 61 q 564 -181 663 -81 q 337 -275 466 -281 q 41 -122 130 -263 q 0 65 -9 -41 q 83 275 9 171 q 149 340 110 312 q 228 393 188 369 l 228 616 l 88 621 q 7 509 20 623 l -4 509 l -4 661 q 23 758 -4 696 q 160 819 50 819 l 228 819 l 228 1039 q 163 1033 191 1035 q 98 1034 134 1030 q 94 1042 93 1033 q 100 1053 96 1052 q 430 1121 290 1062 q 671 1329 570 1180 q 689 1329 684 1343 q 786 1203 723 1237 q 890 1195 849 1169 q 926 1291 921 1213 q 933 1293 926 1295 q 941 1288 941 1292 q 884 1108 941 1173 q 757 1025 827 1043 q 616 1049 682 1006 l 616 810 l 920 1029 l 942 1025 l 1050 861 l 1050 283 q 945 -87 1058 50 q 583 -298 834 -220 l 587 -281 q 725 -169 681 -243 q 770 -12 770 -95 l 770 777 l 707 838 l 616 776 l 616 261 q 620 258 618 260 q 624 256 622 257 l 686 331 m 494 1128 l 494 724 l 581 785 l 581 1076 q 531 1146 551 1105 q 512 1137 523 1141 q 494 1128 502 1132 m 170 322 q 206 338 186 331 q 385 344 310 376 q 581 235 460 311 l 581 752 l 494 692 l 494 435 q 360 418 419 438 q 256 382 301 398 q 170 322 215 367 z "},"I":{"ha":1004,"x_min":-31,"x_max":957,"o":"m 464 857 l 498 863 l 498 244 q 570 181 534 218 l 570 823 q 863 952 715 857 l 863 236 q 957 237 902 237 l 950 217 q 415 -17 609 205 q 284 77 326 58 q 150 90 243 95 q 42 -7 54 83 q 82 -140 29 -98 q 213 -189 122 -172 q 407 -208 304 -205 q 553 -201 481 -209 q 678 -169 624 -193 q 747 -80 726 -146 q 774 54 769 -14 l 797 47 q 766 -101 793 -35 q 674 -224 739 -167 q 408 -316 557 -322 q 206 -282 303 -312 q 61 -178 109 -252 q 30 110 -31 -37 q 227 298 92 256 q 464 267 345 334 l 464 491 l 338 496 q 260 384 272 498 l 248 385 l 248 536 q 263 632 248 570 q 389 694 278 694 l 464 694 l 464 857 m 871 1169 l 888 1165 q 761 942 874 992 q 567 906 648 892 q 488 939 526 913 q 413 997 449 964 q 322 1082 366 1039 q 234 1146 277 1126 q 141 1153 182 1171 q 81 1105 100 1135 q 57 1028 63 1076 q 66 938 50 980 q 197 803 101 845 q 389 888 293 762 l 402 878 q 270 786 333 798 q 155 800 207 774 q 35 941 61 847 q 39 1107 10 1021 q 125 1246 68 1193 q 249 1316 175 1291 q 430 1316 323 1341 q 564 1251 515 1295 q 645 1162 612 1206 q 710 1084 679 1118 q 795 1051 742 1050 q 871 1169 865 1052 z "},"J":{"ha":935,"x_min":-44,"x_max":891,"o":"m 467 857 l 501 863 l 501 244 l 338 26 q 263 75 303 56 q 153 90 222 94 q 45 -7 58 83 q 85 -140 32 -98 q 241 -208 168 -205 q 406 -169 315 -211 q 476 -80 451 -148 l 502 -84 q 474 -165 488 -123 q 425 -241 461 -208 q 214 -324 322 -328 q 41 -212 106 -320 q 25 95 -44 -66 q 230 298 95 256 q 467 267 348 334 l 467 491 l 340 496 q 263 384 274 498 l 250 385 l 250 536 q 266 632 250 570 q 392 694 281 694 l 467 694 l 467 857 m 873 1169 l 891 1165 q 764 942 877 992 q 570 906 650 892 q 491 939 529 913 q 416 997 452 964 q 325 1082 369 1039 q 237 1146 280 1126 q 144 1153 184 1171 q 85 1105 104 1135 q 60 1028 66 1076 q 70 938 54 980 q 200 803 104 845 q 392 888 296 762 l 406 878 q 273 786 336 798 q 158 800 210 774 q 37 941 65 846 q 42 1107 14 1021 q 128 1246 71 1193 q 252 1316 178 1291 q 433 1316 326 1341 q 567 1251 519 1295 q 649 1162 615 1206 q 714 1084 682 1118 q 798 1051 745 1050 q 873 1169 867 1052 m 861 945 l 861 325 q 856 182 861 270 q 808 1 850 94 q 672 -178 766 -93 q 400 -313 578 -264 q 401 -307 395 -313 q 402 -301 407 -300 q 512 -219 475 -275 q 566 -100 550 -163 q 584 22 583 -37 q 586 111 586 80 l 586 839 q 861 945 712 854 z "},"K":{"ha":1198,"x_min":-10,"x_max":1141,"o":"m 652 311 l 675 286 l 422 3 q 280 111 347 87 q 134 130 212 136 q 52 87 84 125 q 18 5 20 48 q 51 -79 15 -47 q 138 -129 87 -111 q 244 -153 189 -146 q 333 -160 298 -159 q 456 -153 396 -161 q 562 -117 516 -144 q 640 65 635 -71 l 659 61 q 570 -176 677 -66 q 334 -279 463 -286 q 41 -135 125 -268 q -10 59 -10 -54 q 65 275 -9 171 q 131 340 92 312 q 210 393 170 369 l 210 616 l 90 621 q 12 509 24 623 l 0 509 l 0 661 q 16 758 0 696 q 141 819 31 819 l 210 819 l 210 1026 q 136 1011 173 1018 q 62 999 100 1005 q 60 1007 58 998 q 66 1017 61 1016 q 384 1121 236 1049 q 645 1329 532 1194 q 663 1329 658 1344 q 801 1191 712 1195 q 897 1296 890 1187 q 905 1298 897 1300 q 912 1293 912 1297 q 860 1107 912 1179 q 739 1018 808 1036 q 597 1041 664 999 l 597 810 l 866 1003 l 888 1000 q 987 903 958 959 q 1021 790 1017 846 q 964 630 1025 702 q 788 548 904 559 q 787 542 784 547 q 794 536 790 536 q 897 514 862 530 q 950 484 932 498 q 981 434 972 464 q 993 332 990 405 l 996 243 q 1024 208 996 223 q 1065 208 1052 193 l 1116 267 l 1141 258 l 904 -18 l 871 -20 l 722 120 l 722 332 q 718 452 722 395 q 619 515 713 509 l 597 516 l 597 261 q 601 258 600 260 q 605 256 603 257 l 652 311 m 476 1128 l 476 724 l 563 785 l 563 1069 q 507 1146 530 1100 q 476 1128 496 1140 m 151 322 q 188 338 168 331 q 367 369 292 376 q 563 284 441 361 l 563 752 l 476 692 l 476 435 q 342 418 401 438 q 237 382 283 398 q 151 322 195 366 m 597 776 l 597 538 l 654 545 q 755 601 733 554 q 768 699 777 648 q 720 795 758 758 q 631 799 681 833 l 597 776 z "},"L":{"ha":899,"x_min":-3,"x_max":857,"o":"m 828 366 l 854 342 l 590 1 q 413 116 503 88 q 232 138 322 144 q 117 47 140 130 q 145 -85 94 -37 q 272 -141 184 -122 q 460 -163 361 -161 q 602 -155 533 -163 q 724 -118 671 -146 q 814 71 809 -71 l 836 66 q 733 -179 857 -65 q 463 -287 610 -294 q 266 -242 360 -281 q 124 -119 171 -202 q 85 141 56 2 q 205 378 113 281 l 205 635 l 86 640 q 9 528 20 642 l -3 529 l -3 680 q 12 777 -3 715 q 138 838 28 838 l 205 838 l 205 1049 q 132 1032 169 1039 q 58 1019 96 1025 q 56 1026 54 1017 q 61 1036 57 1035 q 359 1135 216 1068 q 606 1338 503 1202 q 622 1338 616 1353 q 738 1205 667 1204 q 815 1316 809 1206 q 822 1318 815 1319 q 829 1312 829 1316 q 782 1126 829 1198 q 671 1037 735 1055 q 614 1033 644 1028 l 614 349 q 764 271 687 318 l 828 366 m 473 1160 l 473 455 q 295 412 359 450 q 192 317 231 373 q 278 361 229 344 q 421 390 350 387 q 579 362 492 393 l 579 1041 q 522 1086 549 1053 q 473 1160 494 1119 z "},"M":{"ha":1744,"x_min":-13,"x_max":1662,"o":"m 540 1225 l 540 1036 q 718 1189 629 1113 q 893 1346 808 1265 q 911 1348 903 1356 l 1019 1236 q 1040 1206 1039 1215 q 1041 1183 1041 1198 l 1041 1023 q 1226 1182 1134 1102 q 1409 1346 1319 1261 q 1426 1348 1417 1355 q 1492 1247 1451 1330 q 1619 1128 1533 1165 q 1622 1112 1638 1121 q 1561 1072 1582 1091 q 1539 1013 1539 1052 l 1539 375 q 1539 329 1539 359 q 1547 282 1539 299 q 1583 245 1560 250 q 1616 252 1605 240 l 1644 282 l 1662 268 q 1540 139 1596 205 q 1419 11 1483 73 q 1409 9 1414 10 q 1400 9 1404 9 q 1310 89 1356 45 q 1264 162 1264 134 l 1264 1078 l 1216 1127 l 1166 1084 l 1166 243 l 1223 300 l 1240 286 q 1096 143 1175 223 q 952 1 1017 64 q 934 0 940 0 q 784 168 873 96 q 742 205 764 184 q 692 236 720 226 q 695 255 673 243 q 734 268 702 258 q 766 342 766 279 l 766 621 l 663 621 l 663 262 q 604 74 663 140 q 475 8 545 7 q 374 32 425 8 q 275 80 322 56 q 202 113 237 99 q 139 125 168 127 q 45 38 55 117 q 82 -88 35 -41 q 207 -137 119 -125 q 394 -147 294 -149 q 525 -139 461 -146 q 633 -103 589 -132 q 690 -24 669 -79 q 707 81 711 32 l 727 77 q 721 -47 736 18 q 661 -163 706 -112 q 527 -251 608 -220 q 375 -277 446 -281 q 193 -236 275 -272 q 60 -125 111 -199 q 3 20 19 -64 q 14 186 -13 104 q 82 295 35 247 q 183 366 130 342 q 223 395 201 382 q 273 425 244 409 l 273 663 l 130 668 q 72 649 95 669 q 43 568 49 629 l 30 568 l 30 720 q 62 810 30 754 q 205 866 94 866 l 273 866 l 273 1058 q 194 1054 229 1054 q 135 1065 159 1054 q 76 1110 98 1082 q 52 1204 54 1138 q 54 1276 52 1237 q 58 1358 56 1314 q 67 1364 58 1367 q 78 1356 77 1362 q 78 1338 79 1348 q 88 1325 78 1329 q 182 1318 114 1313 q 302 1326 250 1323 q 370 1328 330 1327 q 443 1323 410 1329 q 505 1297 483 1316 q 540 1225 540 1267 m 540 991 l 540 432 q 405 433 465 435 q 301 415 346 431 q 240 381 272 404 q 324 366 283 385 q 414 315 365 347 q 553 271 479 269 q 628 348 628 273 l 628 1067 l 540 991 m 663 1097 l 663 839 l 766 839 l 766 1078 q 730 1155 766 1137 l 663 1097 m 1041 839 l 1132 839 l 1132 1054 l 1041 977 l 1041 839 m 1132 621 l 1041 621 l 1041 334 q 1057 303 1041 318 q 1090 273 1072 289 q 1132 240 1120 248 l 1132 621 z "},"N":{"ha":1279,"x_min":-16,"x_max":1219,"o":"m 625 1059 l 625 230 l 708 309 l 732 283 l 445 2 q 286 112 366 85 q 124 132 205 138 q 27 45 40 124 q 61 -81 14 -35 q 160 -134 92 -113 q 307 -161 228 -155 q 466 -155 387 -168 q 602 -107 546 -143 q 651 -33 637 -84 q 661 68 665 19 l 681 64 q 597 -179 699 -63 q 360 -288 494 -294 q 174 -241 267 -283 q 39 -119 81 -200 q 11 123 -16 -13 q 125 329 38 260 q 176 375 149 357 q 241 415 202 393 l 241 652 l 98 658 q 40 639 63 659 q 11 557 17 619 l -1 558 l -1 709 q 31 800 -1 744 q 173 856 62 856 l 241 856 l 241 1048 q 161 1044 197 1044 q 103 1055 126 1044 q 44 1100 66 1072 q 20 1194 22 1128 q 22 1265 19 1227 q 25 1348 24 1304 q 35 1354 25 1357 q 46 1345 45 1352 q 56 1315 47 1318 q 150 1308 82 1303 q 270 1316 218 1313 q 338 1318 298 1317 q 411 1313 378 1318 q 472 1287 450 1305 q 507 1215 507 1258 l 507 1004 q 700 1167 603 1086 q 889 1336 798 1249 q 907 1337 900 1345 q 993 1226 928 1312 q 1149 1118 1057 1141 q 1156 1109 1155 1117 q 1152 1101 1158 1101 q 1074 1079 1104 1098 q 1043 1002 1043 1059 l 1043 365 q 1055 294 1043 323 q 1098 248 1067 261 q 1140 245 1129 235 l 1202 306 l 1219 292 q 1081 146 1154 229 q 945 1 1009 63 q 935 0 940 0 q 926 -1 930 0 l 768 152 l 768 1067 l 708 1129 q 707 1129 707 1129 q 625 1059 707 1130 m 507 958 l 507 433 q 269 404 361 438 q 203 368 237 393 q 398 356 311 396 q 590 248 486 316 l 590 1029 l 507 958 z "},"O":{"ha":1326,"x_min":0,"x_max":1263,"o":"m 859 1017 l 859 151 q 924 317 897 214 q 959 690 975 509 q 859 1017 942 870 m 823 104 l 823 1072 q 736 1173 786 1125 l 721 1165 l 718 335 l 351 210 q 390 134 366 163 q 499 46 433 78 q 637 18 564 14 q 823 104 753 25 m 957 1331 q 1176 1020 1109 1170 q 1252 740 1242 870 q 1207 439 1263 571 q 1086 227 1150 307 q 969 119 1047 178 q 810 26 891 60 q 575 -10 698 -18 q 373 40 472 -3 q 195 162 275 83 q 54 373 108 248 q 0 661 0 499 q 81 1000 0 840 q 297 1255 163 1161 q 402 1309 346 1289 q 516 1341 458 1328 q 525 1334 526 1343 q 519 1325 524 1326 q 448 1291 491 1318 q 385 1226 404 1264 q 347 1117 361 1179 q 326 985 333 1055 l 957 1331 m 323 947 q 316 800 317 875 q 318 653 315 724 q 325 406 322 505 q 342 242 328 308 l 429 273 l 429 1005 l 323 947 z "},"P":{"ha":1219,"x_min":-28,"x_max":1162,"o":"m 632 309 q 767 178 705 253 l 772 186 l 772 1042 l 712 1103 q 715 1121 707 1107 l 632 1049 l 632 309 m 870 1288 q 881 1299 876 1293 q 893 1310 887 1304 q 911 1312 904 1320 q 997 1201 932 1286 q 1154 1093 1061 1115 q 1160 1083 1159 1090 q 1156 1076 1162 1076 q 1078 1053 1108 1072 q 1048 977 1048 1034 l 1048 207 q 797 170 896 211 q 601 -11 675 119 q 544 20 572 3 q 488 56 516 37 l 488 -64 q 599 -54 545 -62 q 697 -24 652 -45 q 782 106 777 14 l 806 102 q 713 -83 811 7 q 488 -203 616 -174 l 488 -252 l 221 -295 l 221 -187 q 52 -64 111 -149 q 20 214 -28 52 q 221 410 69 376 l 221 617 l 121 617 q 60 591 86 617 q 36 503 34 564 l 24 504 l 24 696 q 68 785 24 759 q 153 812 113 812 l 221 812 l 221 1035 q 142 1030 177 1031 q 83 1042 107 1030 q 35 1076 47 1059 q 22 1160 23 1094 q 21 1232 21 1193 q 22 1314 20 1270 q 32 1320 22 1323 q 42 1312 41 1318 q 58 1281 45 1286 q 141 1277 83 1269 q 250 1287 199 1284 q 319 1289 279 1289 q 391 1284 359 1289 q 453 1259 431 1277 q 488 1186 488 1227 l 488 972 l 858 1291 l 870 1288 m 488 926 l 488 389 q 597 333 542 368 l 597 1019 l 488 926 m 221 193 q 170 197 195 198 q 43 117 66 191 q 77 0 20 43 q 221 -48 117 -29 l 221 193 z "},"Q":{"ha":1365,"x_min":-2,"x_max":1301,"o":"m 856 1004 l 856 139 q 922 305 895 202 q 956 677 972 497 q 856 1004 939 858 m 899 62 q 1206 -54 1110 93 l 1282 31 l 1301 13 l 1048 -277 q 1031 -281 1042 -283 q 1019 -271 1021 -279 q 716 -13 972 -54 q 573 -22 644 -27 q 193 150 353 -8 q 52 361 105 235 q -2 648 -2 487 q 79 988 -2 827 q 295 1243 161 1149 q 400 1296 344 1277 q 514 1329 456 1316 q 523 1322 524 1331 q 517 1313 522 1314 q 446 1279 489 1306 q 383 1214 402 1252 q 345 1105 359 1167 q 323 972 331 1043 l 955 1319 q 1174 1008 1107 1158 q 1250 728 1240 858 q 1205 427 1261 559 q 1084 215 1148 295 q 899 62 1021 134 m 821 92 l 821 1059 q 734 1161 783 1113 l 719 1153 l 715 323 l 349 197 q 387 121 361 154 q 496 34 431 66 q 634 6 562 1 q 821 92 749 12 m 320 935 q 314 787 314 863 q 315 641 313 712 q 323 394 320 493 q 340 230 326 296 l 427 260 l 427 993 l 320 935 z "},"R":{"ha":1277,"x_min":-52,"x_max":1217,"o":"m 634 1058 l 635 1058 l 635 639 q 760 695 719 642 q 795 804 791 735 q 798 922 798 873 q 788 1019 798 973 q 747 1085 777 1065 q 710 1099 732 1095 q 664 1082 689 1103 l 634 1058 m 635 616 l 635 255 l 701 319 l 725 294 l 436 2 q 286 96 346 62 q 144 123 226 129 q 35 36 60 116 q 56 -91 9 -44 q 159 -142 87 -122 q 314 -164 231 -161 q 479 -150 397 -166 q 613 -93 561 -134 q 654 -33 642 -70 q 672 53 666 5 l 692 50 q 590 -177 696 -69 q 361 -285 484 -284 q 172 -250 269 -285 q 33 -134 76 -215 q 33 180 -52 28 q 253 410 117 331 l 253 618 l 96 618 q 38 591 62 618 q 17 503 15 564 l 4 504 l 4 697 q 39 793 4 760 q 113 827 73 827 l 253 827 l 253 1043 q 159 1039 209 1039 q 86 1050 110 1039 q 38 1092 50 1067 q 24 1184 26 1118 q 23 1255 24 1217 q 24 1337 23 1294 q 34 1344 24 1347 q 45 1336 44 1342 q 60 1305 47 1310 q 158 1301 86 1293 q 281 1312 230 1308 q 350 1308 310 1313 q 422 1298 390 1303 q 484 1273 463 1291 q 519 1200 519 1242 l 519 1010 l 918 1333 q 1046 1198 998 1284 q 1087 880 1135 1040 q 984 727 1060 791 q 779 639 907 664 l 777 626 q 965 592 889 633 q 1041 477 1041 551 l 1041 313 q 1053 242 1041 270 q 1096 196 1065 209 q 1138 193 1126 182 l 1199 254 l 1217 240 q 1087 115 1152 177 q 958 -9 1022 52 q 948 -10 953 -9 q 939 -12 943 -11 l 766 152 l 766 526 q 635 616 766 612 m 519 965 l 519 417 q 358 416 416 421 q 224 349 300 412 q 425 343 337 378 q 600 232 513 309 l 600 1030 l 519 965 z "},"S":{"ha":1128,"x_min":2,"x_max":1074,"o":"m 1051 256 l 1053 241 q 740 175 878 243 q 509 -13 602 106 q 440 42 475 15 q 365 90 404 69 q 264 123 318 113 q 147 120 210 134 q 40 26 58 100 q 40 -58 30 -15 q 79 -123 50 -101 q 207 -174 119 -155 q 397 -195 294 -193 q 545 -180 472 -196 q 673 -138 618 -163 q 740 -67 721 -116 q 776 55 759 -18 l 787 52 q 758 -77 785 -7 q 678 -201 732 -146 q 404 -306 569 -312 q 9 14 27 -290 q 99 248 2 149 q 334 357 196 347 q 524 317 429 366 l 524 684 q 440 662 473 679 q 286 488 351 615 q 268 486 279 473 q 234 530 256 499 q 182 596 212 562 q 127 637 151 628 q 30 609 89 651 q 19 611 25 605 q 23 624 13 617 q 120 701 85 663 q 155 814 155 739 l 155 1059 q 48 1052 104 1052 q 44 1059 43 1052 q 52 1067 46 1066 q 197 1092 129 1078 q 326 1129 264 1105 q 462 1203 397 1156 q 595 1330 528 1251 q 614 1330 608 1345 q 706 1203 646 1240 q 816 1180 765 1166 q 895 1296 890 1201 q 903 1298 895 1300 q 911 1293 911 1297 q 840 1084 912 1168 q 692 982 768 1001 q 558 989 624 964 l 558 708 q 593 715 577 711 q 700 772 646 729 q 801 910 753 816 q 819 911 808 924 q 852 856 830 898 q 905 780 874 814 q 927 754 918 766 q 953 737 937 741 q 1057 767 996 724 q 1068 764 1061 770 q 1064 752 1074 758 q 966 672 1001 719 q 932 550 932 625 l 932 258 q 1051 256 982 260 m 524 705 l 524 1006 q 431 1109 465 1041 l 431 760 q 460 713 431 724 q 524 705 489 703 m 558 684 l 558 296 q 656 210 612 261 l 656 604 q 627 663 656 645 q 558 684 597 681 z "},"T":{"ha":1175,"x_min":4,"x_max":1119,"o":"m 865 928 l 865 98 q 936 152 904 120 q 1029 283 989 205 q 1084 462 1069 360 q 1098 471 1086 474 q 1109 460 1109 469 q 944 118 1090 248 q 766 21 869 52 q 555 -10 663 -10 q 165 140 326 -10 q 4 508 4 291 q 131 843 4 695 q 472 1027 258 991 q 481 1022 482 1029 q 475 1015 479 1016 q 389 955 420 1005 q 343 829 357 904 l 777 938 q 648 987 714 954 q 513 1052 583 1019 q 211 1141 348 1127 q 33 968 74 1154 l 14 967 q 157 1256 48 1145 q 415 1352 266 1367 q 739 1245 572 1335 q 1004 1152 905 1154 q 1070 1183 1046 1149 q 1097 1270 1094 1217 l 1119 1265 q 1029 1007 1101 1083 q 865 928 957 930 m 831 79 l 831 916 l 738 892 l 738 328 l 747 298 l 401 211 q 458 134 424 167 q 636 49 534 60 q 831 79 739 38 m 386 243 l 446 258 l 446 819 l 337 792 q 330 547 323 687 q 386 243 338 353 z "},"U":{"ha":1262,"x_min":-18,"x_max":1202,"o":"m 600 1351 l 635 1351 l 635 273 l 751 394 l 751 1043 q 773 1208 751 1134 q 905 1316 795 1283 q 1018 1336 951 1330 q 1175 1335 1084 1341 q 1182 1326 1181 1335 q 1178 1318 1183 1318 q 1043 1224 1059 1326 q 1027 1043 1027 1121 l 1027 328 q 1038 257 1027 287 q 1082 211 1051 224 q 1124 209 1112 197 l 1185 269 l 1202 255 q 1073 130 1137 192 q 943 5 1008 67 q 925 3 931 3 l 751 167 l 751 344 l 436 17 q 286 118 346 77 q 144 152 226 158 q 41 66 60 145 q 68 -58 21 -12 q 164 -114 99 -90 q 306 -147 230 -138 q 457 -144 382 -156 q 585 -92 532 -133 q 621 -32 614 -69 q 634 54 628 6 l 654 50 q 571 -169 659 -68 q 362 -270 484 -269 q 178 -225 269 -270 q 45 -99 88 -180 q 7 145 -18 23 q 115 354 33 267 q 165 395 139 380 q 224 430 191 411 l 224 661 l 139 661 q 81 635 104 661 q 60 547 58 608 l 47 547 l 47 741 q 81 837 47 803 q 156 871 116 871 l 224 871 l 224 1063 q 145 1059 180 1059 q 86 1070 110 1059 q 38 1112 50 1086 q 24 1204 26 1137 q 23 1275 24 1236 q 24 1358 23 1314 q 34 1364 24 1367 q 45 1356 44 1362 q 60 1325 47 1330 q 144 1320 86 1313 q 253 1331 202 1328 q 321 1333 281 1333 q 394 1328 361 1333 q 456 1303 433 1321 q 491 1230 491 1272 l 491 437 q 356 438 416 439 q 252 420 297 436 q 187 382 218 407 q 394 367 302 413 q 600 245 486 321 l 600 1351 z "},"V":{"ha":1172,"x_min":0,"x_max":1116,"o":"m 613 1088 l 613 317 q 724 227 679 279 q 726 229 726 228 l 726 1080 l 670 1138 l 613 1088 m 578 334 l 578 1059 l 488 981 l 488 416 q 354 408 413 418 q 250 380 294 397 q 168 300 208 366 q 220 336 191 323 q 281 359 248 349 q 416 373 334 375 q 578 334 497 371 m 222 394 l 222 646 l 112 637 q 55 615 78 633 q 25 536 31 597 l 13 537 l 13 688 q 28 786 13 723 q 153 850 43 850 l 222 850 l 222 1042 q 142 1038 178 1038 q 83 1048 107 1038 q 25 1094 47 1065 q 1 1187 3 1122 q 2 1259 0 1220 q 6 1341 5 1298 q 16 1348 6 1350 q 26 1339 26 1345 q 27 1322 27 1331 q 37 1309 26 1313 q 131 1302 62 1297 q 250 1310 199 1307 q 319 1311 279 1311 q 391 1307 359 1312 q 453 1281 431 1299 q 488 1208 488 1250 l 488 1027 l 744 1247 q 848 1348 789 1293 q 865 1350 858 1358 q 951 1239 887 1325 q 1108 1131 1016 1154 q 1115 1122 1114 1129 q 1111 1114 1116 1114 q 1032 1091 1063 1110 q 1002 1015 1002 1072 l 1002 264 q 754 184 831 218 q 558 11 678 149 q 387 123 469 87 q 212 154 304 159 q 104 57 117 148 q 144 -76 91 -34 q 263 -120 184 -108 q 446 -134 342 -132 q 591 -128 520 -136 q 717 -96 662 -120 q 787 -22 764 -73 q 816 98 810 30 l 838 92 q 807 -50 835 20 q 725 -172 779 -119 q 608 -245 677 -218 q 447 -269 538 -273 q 256 -225 342 -264 q 123 -114 171 -186 q 86 158 58 -16 q 222 394 114 331 z "},"W":{"ha":1674,"x_min":2,"x_max":1595,"o":"m 600 1067 l 600 310 q 700 227 656 276 q 725 244 709 233 l 725 1046 l 651 1109 l 600 1067 m 1107 1060 l 1107 298 l 1223 208 l 1223 1036 q 1205 1084 1223 1060 q 1173 1120 1187 1108 l 1107 1060 m 1072 324 l 1072 1030 l 1000 961 l 1000 379 l 1072 324 m 1000 1007 q 1174 1175 1088 1082 q 1345 1348 1260 1268 q 1362 1350 1356 1358 q 1444 1243 1387 1330 q 1587 1123 1501 1156 q 1594 1114 1592 1122 q 1590 1106 1595 1106 q 1520 1087 1541 1102 q 1499 1015 1499 1072 l 1499 241 q 1238 175 1355 235 q 1019 -9 1116 112 l 742 208 q 607 114 667 170 q 488 -7 546 58 q 340 114 399 68 q 188 154 280 159 q 79 47 92 148 q 119 -95 66 -53 q 239 -139 160 -127 q 421 -153 318 -151 q 571 -147 496 -155 q 701 -115 646 -140 q 763 -39 748 -92 q 784 82 779 15 l 806 76 q 714 -199 804 -113 q 422 -288 612 -296 q 232 -244 317 -283 q 98 -133 146 -205 q 63 149 21 -15 q 224 382 104 313 l 224 646 l 115 637 q 57 615 80 633 q 28 536 34 597 l 15 537 l 15 688 q 30 786 15 723 q 156 850 45 850 l 224 850 l 224 1042 q 145 1038 180 1038 q 86 1048 110 1038 q 27 1094 50 1065 q 3 1187 5 1122 q 5 1259 2 1220 q 8 1341 7 1298 q 18 1348 8 1350 q 29 1339 28 1345 q 30 1322 30 1331 q 39 1309 29 1313 q 133 1302 65 1297 q 253 1310 201 1307 q 321 1311 281 1311 q 394 1307 361 1312 q 455 1281 433 1299 q 490 1208 490 1251 l 490 1019 q 671 1182 578 1094 q 846 1348 765 1271 q 864 1350 857 1358 q 911 1286 878 1333 q 992 1196 944 1239 l 1000 1160 l 1000 1007 m 566 329 l 566 1037 l 490 972 l 490 416 q 356 408 416 418 q 252 380 297 397 q 238 368 231 373 q 256 368 244 363 q 397 376 312 384 q 566 329 482 369 z "},"X":{"ha":1248,"x_min":-41,"x_max":1189,"o":"m 909 1318 l 922 1312 l 924 1318 q 930 1322 924 1322 q 938 1318 936 1322 q 996 1227 962 1251 q 1061 1196 1029 1202 q 1119 1200 1094 1189 q 1149 1265 1145 1211 q 1156 1268 1149 1270 q 1164 1263 1164 1266 q 1124 1071 1164 1148 q 1015 977 1085 994 q 846 1029 925 954 l 772 809 l 1010 809 l 1036 876 l 1055 871 l 969 631 l 770 631 q 809 427 777 528 q 927 278 841 325 q 1067 260 1027 222 q 1167 367 1108 297 l 1189 366 l 924 30 l 898 -6 q 714 82 785 30 q 603 203 644 135 q 548 334 566 262 q 522 488 530 406 q 416 236 473 355 q 289 14 358 117 q 160 104 222 94 q 61 86 99 115 q 17 4 23 57 q 55 -96 11 -48 q 155 -144 87 -132 q 300 -156 222 -156 q 426 -150 359 -155 q 538 -113 493 -144 q 595 45 604 -63 l 613 47 q 530 -183 629 -81 q 308 -279 430 -286 q 140 -231 224 -274 q 18 -107 56 -188 q 15 169 -41 18 q 184 355 71 319 q 310 360 249 376 q 422 312 372 345 l 515 572 q 514 601 515 586 q 513 631 513 615 l 295 631 l 256 516 l 239 526 l 307 810 l 507 809 l 500 989 q 482 1017 491 1010 q 447 1024 473 1024 q 315 1020 388 1022 q 224 1027 241 1019 q 162 1067 187 1044 q 131 1159 137 1090 q 120 1237 127 1192 q 114 1326 113 1283 q 124 1333 114 1336 q 135 1324 134 1331 q 145 1293 135 1316 q 177 1269 155 1270 q 346 1276 259 1265 q 518 1292 433 1288 q 669 1285 607 1295 q 731 1259 709 1278 q 766 1187 766 1228 l 766 899 l 909 1318 z "},"Y":{"ha":1207,"x_min":-31,"x_max":1150,"o":"m 918 1316 q 937 1317 927 1323 q 1001 1217 960 1299 q 1130 1098 1042 1135 q 1133 1081 1150 1090 q 1070 1041 1092 1061 q 1049 982 1049 1021 l 1049 345 q 1044 202 1049 290 q 996 21 1038 114 q 860 -158 954 -73 q 588 -293 766 -243 q 589 -287 583 -293 q 591 -281 595 -281 q 701 -198 663 -254 q 755 -79 739 -142 q 772 42 771 -16 q 774 132 774 100 l 774 1047 l 717 1105 l 656 1057 l 656 255 l 685 298 l 709 273 l 425 -16 q 340 72 391 21 q 164 128 289 122 q 56 70 90 132 q 42 -28 31 28 q 82 -113 52 -84 q 197 -165 127 -158 q 331 -175 268 -172 q 535 -142 448 -181 q 637 31 621 -102 l 657 27 q 564 -192 662 -92 q 344 -293 466 -292 q 164 -232 251 -293 q 35 -69 77 -171 q 41 220 -31 89 q 245 400 113 352 l 245 631 l 107 631 q 46 605 73 631 q 21 516 19 578 l 8 517 l 8 711 q 46 807 8 773 q 124 841 84 841 l 245 841 l 245 1033 q 166 1029 201 1029 q 107 1040 131 1029 q 59 1082 71 1057 q 45 1174 47 1107 q 44 1245 45 1206 q 45 1327 44 1284 q 55 1334 45 1337 q 66 1325 65 1331 q 81 1295 68 1300 q 165 1290 107 1282 q 274 1301 222 1298 q 342 1303 302 1302 q 415 1298 382 1303 q 477 1273 455 1291 q 512 1200 512 1242 l 512 988 q 719 1147 614 1067 q 918 1316 825 1227 m 512 944 l 512 420 q 261 389 362 426 q 256 384 249 385 q 268 382 264 382 q 461 353 368 393 q 621 234 554 313 l 621 1029 l 512 944 z "},"Z":{"ha":956,"x_min":-5,"x_max":910,"o":"m 604 673 q 603 667 600 673 q 610 661 606 661 q 684 664 644 659 q 775 654 724 670 q 871 522 873 624 l 854 157 q 611 138 703 170 q 503 81 554 118 q 394 -14 451 43 q 138 124 298 137 q 36 36 54 117 q 65 -93 18 -46 q 163 -149 97 -124 q 307 -182 229 -174 q 460 -179 384 -191 q 589 -127 537 -168 q 642 -45 618 -104 q 671 62 665 14 l 690 58 q 588 -173 695 -60 q 359 -287 481 -286 q 106 -192 200 -287 q 2 21 12 -97 q 42 193 -5 111 q 195 327 89 276 q 374 349 281 368 l 374 657 q 305 652 339 655 q 244 649 271 649 q 229 666 228 649 q 243 682 229 683 q 307 679 273 680 q 374 678 340 677 l 374 1036 q 242 1029 307 1025 q 134 1102 178 1033 q 94 1193 113 1137 q 74 1331 76 1249 q 83 1349 73 1350 q 94 1333 93 1347 q 133 1274 99 1278 q 212 1274 167 1270 q 382 1295 293 1281 q 573 1318 471 1310 q 743 1282 659 1325 q 864 1173 827 1239 q 903 994 910 1090 q 804 768 894 861 q 604 673 723 685 m 585 199 q 586 367 585 282 q 588 531 587 451 q 582 597 588 572 q 552 637 576 623 q 488 655 526 651 q 410 659 450 659 l 410 338 q 585 199 515 302 m 410 679 q 478 688 456 683 q 607 755 555 703 q 647 920 659 807 q 588 1018 640 985 q 456 1046 536 1051 q 410 1041 441 1045 l 410 679 z "},"a":{"ha":888,"x_min":58,"x_max":846,"o":"m 307 279 l 386 214 l 450 279 l 446 642 l 307 780 l 307 279 m 451 243 l 221 -1 l 64 147 l 58 828 q 281 870 191 834 q 475 987 385 911 l 669 810 q 721 801 700 782 q 779 843 743 821 q 786 840 782 845 q 787 833 789 835 q 726 765 758 806 q 694 656 694 724 l 694 247 l 774 176 l 830 225 l 846 208 l 609 -1 l 452 147 l 451 243 z "},"b":{"ha":852,"x_min":-24,"x_max":812,"o":"m 720 153 q 595 145 651 149 q 492 122 539 142 q 388 73 441 100 q 292 3 334 47 l 159 131 q 67 182 100 180 q -14 153 33 182 q -20 156 -16 151 q -22 163 -24 161 q 32 204 6 190 q 58 286 58 218 l 58 1228 l 294 1336 l 294 733 l 549 989 l 634 892 q 682 850 659 869 q 723 835 705 831 q 764 852 747 840 q 802 878 781 865 q 808 874 804 879 q 810 867 812 869 q 750 801 781 840 q 720 695 720 762 l 720 153 m 477 154 l 477 707 l 392 783 l 300 694 l 300 331 l 477 154 z "},"c":{"ha":630,"x_min":-16,"x_max":600,"o":"m 60 806 q 275 853 185 810 q 452 962 365 897 q 502 862 467 901 q 562 849 538 824 q 581 922 573 861 q 589 927 581 926 q 598 924 597 928 q 527 713 600 764 q 412 696 478 679 q 303 804 346 713 l 309 295 l 465 173 l 583 291 l 600 274 l 321 -5 l 138 114 q 78 116 117 127 q -6 51 40 104 q -12 53 -8 48 q -14 61 -16 58 q 33 119 6 94 q 60 208 60 144 l 60 806 z "},"d":{"ha":862,"x_min":-20,"x_max":821,"o":"m 724 147 q 600 140 656 143 q 497 117 544 137 q 393 68 446 94 q 297 -1 339 42 l 163 125 q 115 173 136 149 q 72 198 94 197 q -9 169 38 199 q -16 172 -12 167 q -18 180 -20 177 q 37 220 11 206 q 62 302 62 235 l 62 780 l 304 780 l 304 326 l 482 149 l 482 665 l 29 1015 l 17 1331 l 634 861 q 722 802 703 808 q 811 838 742 796 q 818 835 814 840 q 819 828 821 830 q 757 779 790 801 q 724 690 724 757 l 724 147 z "},"e":{"ha":719,"x_min":-12,"x_max":685,"o":"m 312 463 l 314 330 l 492 208 l 610 357 l 627 339 l 372 -2 l 172 130 q 98 160 151 143 q -2 125 45 178 q -8 127 -4 122 q -10 135 -12 132 q 38 193 11 168 q 65 281 65 218 l 65 871 q 296 892 189 876 q 490 974 403 909 l 685 665 l 312 463 m 458 572 l 307 843 l 312 496 l 458 572 z "},"f":{"ha":739,"x_min":34,"x_max":704,"o":"m 168 1187 q 296 1196 241 1190 q 396 1219 351 1202 q 489 1267 447 1237 q 578 1333 532 1298 q 632 1235 590 1257 q 685 1303 673 1213 q 693 1309 685 1308 q 701 1305 701 1310 q 627 1105 704 1161 q 517 1090 580 1073 q 411 1199 454 1107 l 412 930 l 552 930 l 552 795 l 413 795 l 417 69 l 231 14 l 191 -277 l 168 -271 l 168 795 l 34 795 l 34 930 l 168 930 l 168 1187 z "},"g":{"ha":855,"x_min":-35,"x_max":814,"o":"m 305 271 l 362 224 l 450 304 l 445 665 l 305 795 l 305 271 m 275 -282 q 243 -280 264 -298 q 201 -237 235 -273 q 117 -178 168 -200 q 48 -160 81 -161 q 5 -159 16 -158 l -18 -182 l -35 -172 l 177 44 l 62 131 l 56 812 q 280 852 189 818 q 394 906 334 872 q 498 976 454 941 l 653 842 q 713 837 684 815 q 779 880 742 859 q 785 877 781 882 q 787 871 789 873 q 726 806 758 845 q 694 705 694 768 l 694 323 q 707 244 694 272 q 738 198 720 216 q 783 154 760 174 q 808 90 805 134 q 788 -24 814 7 q 756 -55 781 -32 q 684 -99 732 -79 q 601 -123 645 -115 q 513 -143 557 -132 q 361 -205 425 -165 q 275 -282 316 -233 m 126 -41 q 236 -28 176 -22 q 346 -68 301 -34 q 425 -144 390 -102 q 555 -93 524 -123 q 583 -33 587 -63 q 555 21 579 -3 q 515 54 530 45 q 471 101 491 68 q 451 181 451 135 l 450 271 l 126 -41 l 126 -41 z "},"h":{"ha":859,"x_min":-24,"x_max":818,"o":"m 57 1277 l 300 1354 l 300 732 l 570 988 l 708 855 q 808 882 741 819 q 814 878 810 883 q 816 871 818 873 q 750 811 787 844 q 713 711 713 779 l 724 316 q 704 74 728 180 q 614 -111 680 -32 q 287 -283 504 -240 l 292 -266 q 352 -248 326 -257 q 399 -220 378 -238 q 470 -44 468 -154 q 473 166 473 66 l 473 738 l 404 798 l 300 699 l 300 294 q 329 244 300 265 q 393 214 359 224 q 395 207 395 213 q 393 201 395 201 q 282 135 315 165 q 193 -5 250 105 q 182 -5 186 -16 q 88 130 122 100 q -22 201 54 160 q -24 206 -24 201 q -22 211 -24 210 q 32 239 7 215 q 57 292 57 264 l 57 1277 z "},"i":{"ha":491,"x_min":-56,"x_max":468,"o":"m 317 268 l 397 197 l 452 246 l 468 229 l 231 19 l 75 169 l 68 714 l 9 766 l -39 720 l -56 737 l 172 974 l 310 821 q 350 810 327 802 q 410 840 374 817 q 416 836 412 841 q 418 829 420 831 q 353 773 389 802 q 317 677 317 745 l 317 268 m 9 1167 q 172 1329 120 1216 q 189 1329 181 1351 q 351 1167 220 1235 q 351 1149 366 1158 q 189 987 225 1067 q 172 987 181 971 q 9 1149 102 1093 q 9 1167 -8 1159 z "},"j":{"ha":453,"x_min":-38,"x_max":432,"o":"m 329 -229 l 86 -297 l 86 734 l 24 794 l -22 755 l -38 772 l 184 984 l 321 831 q 422 850 347 804 q 428 846 424 851 q 430 839 432 841 q 365 783 401 812 q 329 688 329 755 l 329 -229 m 62 1185 q 206 1329 161 1230 q 222 1329 215 1348 q 366 1185 250 1246 q 366 1169 378 1178 q 222 1025 255 1097 q 206 1025 215 1012 q 62 1169 145 1119 q 62 1185 47 1179 z "},"k":{"ha":910,"x_min":-33,"x_max":867,"o":"m 58 1296 l 301 1354 l 301 749 l 572 1005 l 709 852 q 810 871 734 825 q 816 867 812 872 q 818 860 820 862 q 753 804 789 833 q 717 709 717 776 q 721 629 717 673 q 662 550 724 585 q 583 528 636 535 q 468 509 530 521 q 460 505 461 507 q 466 502 458 502 q 686 463 646 496 q 724 366 727 428 q 726 265 720 304 l 796 195 l 852 244 l 867 227 l 631 17 l 474 166 l 474 378 q 449 456 474 424 q 389 488 424 488 l 301 488 l 301 274 q 331 225 301 245 q 395 195 360 204 q 395 181 412 188 q 284 125 317 146 q 195 -5 251 105 q 183 -5 190 -16 q 89 121 123 100 q -20 181 55 141 q -20 191 -33 189 q 33 220 8 195 q 58 273 58 244 l 58 1296 m 301 716 l 301 509 l 383 511 q 448 552 422 511 q 474 642 474 593 l 474 755 l 406 815 l 301 716 z "},"l":{"ha":463,"x_min":-52,"x_max":441,"o":"m 59 1263 l 302 1316 l 302 237 l 351 182 l 425 271 l 441 253 l 203 -13 l 41 116 q 7 125 20 132 q -42 96 -5 118 q -48 99 -44 94 q -50 106 -52 104 q 19 174 -21 133 q 59 283 59 215 l 59 1263 z "},"m":{"ha":1349,"x_min":-50,"x_max":1285,"o":"m 77 722 l 16 783 l -33 741 l -50 758 l 170 977 l 319 828 l 319 735 l 562 977 l 728 828 l 728 721 l 983 975 l 1137 823 q 1177 821 1154 804 q 1236 860 1200 838 q 1243 856 1239 861 q 1244 849 1246 851 q 1179 784 1215 822 q 1143 679 1143 746 l 1143 256 l 1211 199 l 1270 254 l 1285 236 l 1058 20 l 901 170 l 901 725 l 833 785 l 728 686 l 728 278 q 812 192 728 199 q 814 186 814 192 q 812 178 814 180 q 706 126 734 143 q 622 -1 678 109 q 610 -1 616 -12 q 524 124 551 104 q 422 184 498 144 q 422 195 406 193 q 468 223 450 199 q 486 276 486 248 l 486 716 l 405 787 l 319 701 l 319 265 q 389 198 319 218 q 389 184 406 195 q 291 132 311 149 q 214 5 270 115 q 202 5 206 -7 q 108 127 142 111 q -1 184 74 144 q -1 195 -18 193 q 52 223 27 199 q 77 276 77 248 l 77 722 z "},"n":{"ha":953,"x_min":-43,"x_max":908,"o":"m 98 729 l 18 800 l -26 754 l -43 771 l 176 990 l 341 841 l 341 732 l 612 989 l 750 836 q 850 854 774 808 q 856 851 852 856 q 858 844 860 846 q 793 788 829 817 q 757 692 757 760 l 757 261 l 836 191 l 892 239 l 908 222 l 671 12 l 514 162 l 514 739 l 446 799 l 341 700 l 341 291 q 371 242 341 262 q 435 212 400 221 q 437 204 437 210 q 435 198 437 199 q 324 142 357 163 q 235 12 291 121 q 223 12 229 1 q 130 138 164 117 q 19 198 96 158 q 19 208 6 205 q 73 237 48 212 q 98 290 98 261 l 98 729 z "},"o":{"ha":859,"x_min":-22,"x_max":819,"o":"m 715 178 q 488 131 583 170 q 308 1 394 90 l 161 128 q 113 167 135 150 q 73 180 91 184 q 28 161 48 174 q -12 136 8 149 q -18 139 -14 134 q -20 147 -22 144 q 34 195 8 174 q 59 283 59 216 l 59 800 q 286 848 181 802 q 466 977 393 894 l 608 844 q 666 806 633 821 q 718 795 700 791 q 765 818 742 800 q 808 847 787 835 q 814 844 810 849 q 817 837 819 839 q 751 766 787 810 q 715 656 715 723 l 715 178 m 473 165 l 473 649 l 302 812 l 302 328 l 473 165 z "},"p":{"ha":926,"x_min":-11,"x_max":882,"o":"m 131 719 l 51 789 l 5 745 l -11 761 l 208 980 l 374 831 l 374 722 l 645 979 l 772 854 q 811 855 788 835 q 871 897 835 875 q 878 893 874 899 q 880 886 882 888 q 820 833 850 860 q 789 739 789 806 l 789 233 q 593 165 694 231 q 505 89 545 133 q 446 -7 466 45 q 374 56 408 28 l 374 -215 l 131 -302 l 131 205 q 37 203 68 224 q 9 135 16 189 q 0 130 7 129 q -7 136 -7 130 q 30 283 -5 238 q 131 343 65 329 l 131 719 m 547 210 l 547 728 l 479 789 l 374 690 l 374 328 q 420 307 397 318 q 482 263 451 291 q 547 210 513 236 z "},"q":{"ha":835,"x_min":62,"x_max":795,"o":"m 718 -184 l 475 -298 l 475 237 l 218 6 l 62 149 l 62 774 q 288 822 181 776 q 402 892 344 846 q 495 977 460 939 l 612 865 q 648 826 631 847 q 689 800 665 804 q 737 809 710 796 q 785 835 764 823 q 791 832 787 837 q 793 825 795 827 q 741 780 764 798 q 718 696 718 763 l 718 -184 m 475 279 l 475 671 l 304 787 l 304 266 l 387 205 l 475 279 z "},"r":{"ha":747,"x_min":-51,"x_max":711,"o":"m -51 771 l 165 983 l 328 844 l 328 749 l 536 977 q 562 979 557 999 q 573 945 564 968 q 594 900 581 922 q 631 854 610 871 q 674 859 652 837 q 692 932 685 871 q 702 938 693 937 q 710 935 710 939 q 684 791 711 856 q 618 699 656 726 q 492 669 569 665 q 373 764 416 673 l 328 718 l 328 325 l 492 203 l 602 321 l 618 304 l 357 4 l 157 143 q 97 167 136 157 q 12 124 59 177 q 6 127 9 122 q 4 135 2 132 q 52 193 25 168 q 79 281 79 218 l 79 727 l 8 798 l -35 753 l -51 771 z "},"t":{"ha":542,"x_min":1,"x_max":516,"o":"m 134 1234 l 376 1335 l 376 951 l 516 951 l 516 810 l 376 810 l 376 256 l 426 201 l 500 289 l 516 272 l 279 5 l 116 135 q 82 143 96 151 q 33 115 69 136 q 25 118 29 113 q 24 125 22 123 q 93 193 53 151 q 134 301 134 234 l 134 810 l 1 810 l 1 951 l 134 951 l 134 1234 z "},"u":{"ha":945,"x_min":-52,"x_max":900,"o":"m 757 275 l 838 203 l 883 249 l 900 233 l 680 14 l 515 163 l 515 271 l 243 15 l 106 150 q 65 155 88 168 q 6 120 42 142 q 0 123 3 118 q -1 130 -3 127 q 63 180 26 157 q 99 271 99 203 l 99 722 l 33 801 l -36 743 l -52 760 l 184 970 l 342 821 l 342 265 l 410 205 l 515 304 l 515 713 q 491 772 515 741 q 433 813 467 803 q 430 820 430 814 q 433 827 430 825 l 591 1002 q 603 1002 596 1013 l 727 876 q 854 894 765 837 q 857 884 856 892 q 856 876 859 876 q 789 820 823 856 q 757 758 756 783 l 757 275 z "},"v":{"ha":918,"x_min":-35,"x_max":875,"o":"m 771 200 q 529 157 634 195 q 330 9 396 109 q 318 9 323 4 l 178 136 q 105 172 143 168 q 55 160 77 174 q 15 134 34 146 q 9 138 12 132 q 7 147 5 145 q 93 225 67 195 q 119 296 119 256 l 119 728 l 31 791 l -18 746 l -35 763 l 196 997 l 361 848 l 361 709 l 627 1000 l 732 868 q 788 850 749 848 q 865 875 828 852 q 871 871 867 876 q 873 865 875 867 q 807 816 844 838 q 771 728 771 795 l 771 200 m 528 183 l 523 725 l 464 777 l 361 672 l 361 298 l 528 183 z "},"w":{"ha":1361,"x_min":-22,"x_max":1297,"o":"m 121 727 l 41 798 l -5 752 l -22 769 l 198 988 l 363 839 l 363 731 l 618 988 l 783 839 l 783 701 l 1049 991 l 1155 859 q 1210 841 1171 839 q 1286 866 1250 844 q 1293 863 1289 867 q 1295 856 1297 858 q 1230 800 1265 829 q 1194 704 1194 771 l 1194 226 q 932 149 1023 214 q 801 0 842 85 q 789 0 796 -3 l 594 159 q 484 199 541 203 q 479 206 480 199 q 480 214 477 212 q 541 288 541 235 l 541 720 l 453 783 l 363 696 l 363 289 q 393 240 363 260 q 457 209 422 219 q 459 202 459 208 q 457 196 459 197 q 347 140 380 161 q 257 9 313 119 q 245 9 251 0 q 152 136 186 115 q 41 196 117 156 q 41 206 23 203 q 95 235 70 210 q 121 288 121 259 l 121 727 m 783 664 l 783 306 l 950 197 l 945 717 l 886 768 l 783 664 z "},"x":{"ha":891,"x_min":7,"x_max":849,"o":"m 444 650 l 573 968 q 596 978 584 999 q 618 951 602 969 q 654 916 634 932 q 706 886 680 895 q 744 907 732 878 q 735 982 749 920 q 741 990 734 986 q 751 990 749 994 q 777 846 779 917 q 749 737 774 776 q 642 664 715 687 q 496 710 569 641 l 455 614 l 480 536 l 589 536 l 589 440 l 511 440 l 552 314 l 756 205 l 827 323 l 849 306 l 687 6 l 349 187 l 321 274 l 213 11 q 190 0 203 -15 q 168 27 184 9 q 132 62 151 45 q 80 92 106 83 q 42 71 54 100 q 51 -3 36 57 q 44 -11 52 -7 q 36 -11 37 -15 q 9 132 7 61 q 37 241 11 202 q 144 314 71 291 q 290 269 217 338 l 309 311 l 266 440 l 148 440 l 148 536 l 234 536 l 170 729 l 76 800 l 31 730 l 8 749 l 172 985 l 380 846 l 444 650 z "},"y":{"ha":919,"x_min":-24,"x_max":876,"o":"m 530 266 l 251 -1 q 239 -1 245 -14 q 145 133 180 103 q 35 203 111 163 q 35 214 22 211 q 89 242 64 218 q 114 295 114 267 l 114 760 l 38 809 l -7 764 l -24 780 l 195 999 l 359 850 q 359 576 359 715 q 359 296 359 437 l 428 206 l 444 220 l 530 300 l 530 741 l 463 827 l 628 991 l 766 858 q 865 884 798 821 q 872 881 868 886 q 873 874 876 876 q 807 814 844 847 q 770 714 770 781 l 782 319 q 762 77 786 184 q 671 -108 737 -29 q 345 -281 561 -237 l 349 -263 q 456 -216 427 -243 q 528 -41 526 -151 q 530 169 530 68 l 530 266 z "},"z":{"ha":536,"x_min":26,"x_max":511,"o":"m 26 806 l 265 1013 l 400 898 q 500 916 425 870 q 507 912 503 918 q 509 905 511 907 q 448 860 479 878 q 416 774 416 841 q 419 679 416 738 q 374 599 421 620 q 326 586 348 584 q 249 585 303 588 q 238 578 242 583 q 241 574 233 574 q 350 560 325 571 q 401 529 375 549 q 474 395 450 490 q 448 239 497 300 q 387 172 428 214 q 290 95 347 130 q 157 -10 214 48 q 127 -130 100 -68 q 178 -177 141 -164 q 252 -186 216 -191 q 321 -152 290 -180 q 351 -87 353 -123 q 344 -47 349 -70 q 311 -15 339 -24 q 313 -7 308 -13 q 321 -1 318 -1 q 386 -94 370 -34 q 329 -235 410 -185 q 192 -241 266 -274 q 102 -137 118 -208 q 111 8 85 -70 q 157 132 136 86 q 213 317 183 187 q 212 521 243 448 q 94 547 186 580 q 70 539 83 543 q 47 541 56 535 q 37 562 36 547 q 52 577 39 577 l 90 576 q 152 591 129 577 q 176 654 176 606 l 176 775 l 100 842 l 39 791 l 26 806 z "},"@":{"ha":1021,"x_min":42,"x_max":973,"o":"m 489 261 l 564 323 l 564 464 l 441 517 q 416 389 416 454 q 435 323 416 353 q 489 261 452 294 m 452 536 l 564 488 l 564 629 l 366 693 l 452 536 m 973 568 q 943 432 973 496 q 865 317 911 366 q 755 228 817 266 q 633 168 692 188 q 587 218 602 191 q 564 294 572 241 l 408 168 q 344 235 370 196 q 319 316 319 272 q 347 427 319 376 q 429 534 376 477 l 328 715 l 352 713 q 494 764 440 709 l 578 726 q 618 713 597 716 q 653 711 636 711 q 682 717 671 711 l 706 737 l 722 727 q 688 648 696 681 q 680 553 680 616 l 680 353 l 678 321 q 682 285 678 298 q 706 267 685 271 q 781 304 743 270 q 848 383 819 338 q 899 477 878 427 q 918 561 918 524 q 890 705 918 638 q 811 821 862 772 q 689 899 760 871 q 530 926 620 926 q 369 891 445 926 q 233 798 291 856 q 138 664 174 741 q 102 505 102 586 q 134 336 102 418 q 220 193 164 254 q 353 94 273 132 q 524 57 429 57 q 750 115 661 57 q 891 258 838 171 l 954 261 q 895 167 936 213 q 795 83 852 119 q 669 23 739 45 q 519 0 600 0 q 331 41 417 0 q 180 152 243 81 q 79 313 116 221 q 42 503 42 403 q 83 688 42 600 q 193 841 125 775 q 350 943 261 905 q 534 981 440 981 q 844 865 714 981 q 973 568 973 749 z "},".":{"ha":333,"x_min":44,"x_max":317,"o":"m 180 273 l 317 136 l 180 0 l 44 136 l 180 273 z "},",":{"ha":326,"x_min":41,"x_max":311,"o":"m 174 283 l 311 151 q 221 -30 286 49 q 57 -151 155 -111 l 41 -111 q 102 -57 75 -84 q 127 11 127 -29 q 109 73 127 51 q 41 145 92 95 l 174 283 z "},":":{"ha":331,"x_min":43,"x_max":315,"o":"m 179 273 l 315 136 l 179 0 l 43 136 l 179 273 m 179 943 l 315 807 l 179 671 l 43 807 l 179 943 z "},";":{"ha":375,"x_min":78,"x_max":357,"o":"m 210 283 l 347 151 q 258 -30 324 51 q 93 -151 192 -111 l 78 -111 q 138 -57 113 -83 q 163 11 163 -29 q 145 73 163 52 q 78 145 127 95 l 210 283 m 221 943 l 357 807 l 221 671 l 85 807 l 221 943 z "},"?":{"ha":559,"x_min":22,"x_max":533,"o":"m 533 990 q 481 832 533 911 q 388 690 430 753 q 288 526 334 610 q 243 352 243 439 l 205 352 l 203 385 q 217 535 199 454 q 262 687 234 613 q 313 838 291 760 q 328 940 329 891 q 282 1032 328 989 q 200 1075 247 1065 q 110 1060 153 1084 q 43 1008 78 1041 l 22 1025 l 164 1268 q 304 1251 238 1268 q 468 1160 402 1226 q 533 990 533 1094 m 219 279 l 362 136 l 219 -5 l 78 136 l 219 279 z "},"!":{"ha":338,"x_min":39,"x_max":323,"o":"m 203 352 l 165 352 l 39 1173 l 184 1277 l 323 1173 l 203 352 m 180 279 l 323 136 l 180 -5 l 39 136 l 180 279 z "},"(":{"ha":471,"x_min":20,"x_max":449,"o":"m 432 1335 l 449 1313 q 319 1163 370 1232 q 229 1015 263 1089 q 175 856 191 937 q 158 675 158 770 q 182 457 158 565 q 209 363 194 398 q 245 287 225 323 q 326 176 286 216 q 416 92 370 129 l 321 -28 q 193 86 250 20 q 97 232 135 151 q 40 399 59 310 q 20 576 20 488 q 50 789 20 682 q 134 991 79 894 q 264 1176 186 1087 q 432 1335 338 1261 z "},")":{"ha":491,"x_min":41,"x_max":468,"o":"m 468 732 q 357 311 468 509 q 58 -28 245 113 l 41 -8 q 168 137 113 63 q 258 286 220 205 q 312 448 295 366 q 330 631 330 532 q 315 798 330 716 q 277 938 300 875 q 224 1048 253 1001 q 168 1123 195 1096 l 74 1214 l 168 1335 q 391 1074 313 1236 q 448 911 427 997 q 468 732 468 825 z "},"$":{"ha":817,"x_min":-9,"x_max":778,"o":"m 659 277 q 589 408 659 356 q 424 493 519 459 l 424 253 q 627 174 530 229 q 659 277 659 222 m 374 716 l 374 972 q 341 976 358 972 l 304 979 q 213 958 253 984 q 173 888 173 932 q 191 825 173 850 q 236 779 208 798 q 300 745 262 760 q 336 730 318 737 q 374 716 355 722 m 778 365 q 699 170 778 258 q 503 20 618 82 l 424 58 l 431 -64 l 374 -99 l 378 -6 l 374 74 q 243 93 303 93 q 25 20 113 93 l -9 63 q 131 214 45 154 q 318 263 215 270 l 374 260 l 374 509 l 353 517 q 276 552 311 536 q 212 582 241 568 q 121 636 153 610 q 72 699 86 664 q 57 788 57 732 q 86 915 57 857 q 161 1020 115 974 q 262 1099 203 1065 q 374 1142 317 1129 l 374 1270 l 431 1302 l 424 1142 q 551 1106 484 1137 q 685 1038 621 1074 l 595 888 l 505 935 l 424 962 l 424 696 q 681 562 583 635 q 778 365 778 490 z "},"%":{"ha":829,"x_min":28,"x_max":790,"o":"m 711 203 q 537 432 711 372 q 502 302 502 372 q 551 166 502 223 q 675 83 601 108 q 711 203 711 133 m 319 756 q 273 899 319 840 q 145 986 228 958 q 108 858 108 927 q 160 723 108 785 q 282 637 212 660 q 319 756 319 694 m 790 289 q 744 111 790 195 q 613 -15 696 28 q 475 87 528 20 q 422 245 422 155 q 469 404 422 330 q 600 534 517 475 q 736 440 682 508 q 790 289 790 370 m 655 1078 l 707 1050 l 163 -5 l 111 24 l 655 1078 m 397 842 q 351 667 397 748 q 220 541 304 586 q 82 642 135 575 q 28 799 28 709 q 77 958 28 885 q 208 1088 123 1028 q 342 995 286 1062 q 397 842 397 926 z "},"&":{"ha":1141,"x_min":29,"x_max":1086,"o":"m 375 708 l 178 1021 l 656 1323 l 867 997 l 865 996 l 871 987 l 585 808 l 800 476 q 844 686 844 573 l 844 822 l 1067 822 l 1067 590 l 859 590 q 818 448 849 518 l 932 271 q 998 311 957 232 q 1067 434 1040 389 l 1086 422 l 841 -2 q 817 -3 829 -22 l 665 240 q 534 134 606 184 l 532 132 q 428 64 481 97 q 325 -3 376 31 l 29 492 l 375 708 m 648 269 l 389 686 l 242 594 l 518 161 q 648 269 590 212 m 571 831 l 686 902 l 501 1187 l 387 1116 l 571 831 z "},"#":{"ha":892,"x_min":41,"x_max":850,"o":"m 523 465 l 548 642 l 363 642 l 338 465 l 523 465 m 648 726 l 850 726 l 839 642 l 636 642 l 611 465 l 814 465 l 802 380 l 600 380 l 554 66 l 466 66 l 511 380 l 326 380 l 281 66 l 193 66 l 238 380 l 41 380 l 54 465 l 250 465 l 275 642 l 78 642 l 90 726 l 286 726 l 326 1016 l 414 1016 l 374 726 l 559 726 l 600 1016 l 688 1016 l 648 726 z "},"":{"ha":642,"x_min":57,"x_max":612,"o":"m 475 283 l 612 151 q 523 -30 589 51 q 358 -151 457 -111 l 342 -111 q 404 -57 378 -84 q 428 11 428 -29 q 410 73 428 50 q 342 145 392 96 l 475 283 m 190 283 l 326 151 q 237 -30 302 49 q 72 -151 171 -111 l 57 -111 q 117 -57 92 -83 q 142 11 142 -30 q 124 73 142 51 q 57 145 106 95 l 190 283 z "},"":{"ha":642,"x_min":57,"x_max":612,"o":"m 193 760 l 57 893 q 146 1075 79 992 q 311 1196 212 1156 l 326 1156 q 265 1101 293 1131 q 241 1034 241 1075 q 259 970 241 994 q 326 899 275 949 l 193 760 m 479 760 l 342 893 q 432 1075 366 993 q 597 1196 498 1156 l 612 1156 q 551 1101 574 1126 q 526 1034 526 1075 q 545 970 526 994 q 612 899 561 950 l 479 760 z "},"":{"ha":642,"x_min":57,"x_max":612,"o":"m 475 1196 l 612 1063 q 523 882 589 964 q 358 760 456 800 l 342 800 q 404 855 379 829 q 428 924 428 882 q 410 986 428 962 q 342 1058 392 1008 l 475 1196 m 190 1196 l 326 1063 q 237 882 302 961 q 72 760 170 800 l 57 800 q 117 855 94 829 q 142 924 142 881 q 124 986 142 962 q 57 1058 107 1006 l 190 1196 z "},"":{"ha":336,"x_min":52,"x_max":320,"o":"m 188 760 l 52 893 q 140 1075 73 992 q 305 1196 207 1156 l 320 1156 q 260 1101 283 1126 q 235 1034 235 1075 q 253 970 235 994 q 320 899 269 950 l 188 760 z "},"":{"ha":336,"x_min":52,"x_max":320,"o":"m 184 1196 l 320 1063 q 231 882 298 964 q 66 760 164 800 l 52 800 q 112 855 88 829 q 137 924 137 882 q 119 986 137 962 q 52 1058 102 1006 l 184 1196 z "},"<":{"ha":684,"x_min":62,"x_max":651,"o":"m 627 783 l 643 724 l 251 424 l 651 120 l 520 42 l 62 382 l 627 783 z "},">":{"ha":684,"x_min":62,"x_max":651,"o":"m 86 42 l 70 100 l 462 401 l 62 705 l 193 783 l 651 443 l 86 42 z "},"=":{"ha":866,"x_min":64,"x_max":825,"o":"m 825 465 l 825 380 l 64 380 l 64 465 l 825 465 m 64 642 l 64 726 l 825 726 l 825 642 l 64 642 z "},"":{"ha":866,"x_min":64,"x_max":825,"o":"m 64 509 l 64 595 l 825 595 l 825 509 l 64 509 z "},"_":{"ha":1023,"x_min":3,"x_max":975,"o":"m 975 3 l 975 -81 l 3 -81 l 3 3 l 975 3 z "},"":{"ha":1093,"x_min":69,"x_max":1041,"o":"m 1040 597 l 1041 512 l 69 512 l 69 597 l 1040 597 z "},"+":{"ha":866,"x_min":64,"x_max":825,"o":"m 64 509 l 64 595 l 403 595 l 403 932 l 488 932 l 488 595 l 825 595 l 825 509 l 488 509 l 488 172 l 403 172 l 403 509 l 64 509 z "},"/":{"ha":819,"x_min":98,"x_max":781,"o":"m 704 1310 l 781 1274 l 175 -41 l 98 -5 l 704 1310 z "},"\\":{"ha":819,"x_min":98,"x_max":781,"o":"m 175 1310 l 781 -5 l 704 -41 l 98 1274 l 175 1310 z "},"|":{"ha":171,"x_min":78,"x_max":163,"o":"m 78 1326 l 163 1326 l 163 -24 l 78 -24 l 78 1326 z "},"[":{"ha":238,"x_min":56,"x_max":227,"o":"m 227 1331 l 227 1303 l 141 1270 l 141 6 l 227 40 l 227 13 l 56 -54 l 56 1263 l 227 1331 z "},"]":{"ha":238,"x_min":56,"x_max":227,"o":"m 56 -54 l 56 -26 l 142 7 l 142 1270 l 56 1236 l 56 1263 l 227 1331 l 227 13 l 56 -54 z "},"":{"ha":772,"x_min":33,"x_max":736,"o":"m 680 764 l 736 730 l 484 526 l 728 298 l 615 222 l 340 480 l 680 764 m 374 764 l 429 730 l 178 526 l 421 298 l 308 222 l 33 480 l 374 764 z "},"":{"ha":772,"x_min":33,"x_max":736,"o":"m 88 222 l 33 256 l 284 460 l 41 688 l 154 764 l 429 506 l 88 222 m 395 222 l 340 256 l 591 460 l 348 688 l 460 764 l 736 506 l 395 222 z "},"":{"ha":479,"x_min":60,"x_max":456,"o":"m 401 764 l 456 730 l 205 526 l 448 298 l 336 222 l 60 480 l 401 764 z "},"":{"ha":479,"x_min":60,"x_max":456,"o":"m 116 222 l 60 256 l 312 460 l 68 688 l 181 764 l 456 506 l 116 222 z "},"*":{"ha":503,"x_min":75,"x_max":479,"o":"m 419 1137 l 479 1095 l 449 1025 l 380 1031 l 345 1029 q 318 1025 323 1029 q 319 1012 312 1020 q 340 992 327 1002 q 353 981 346 986 q 367 969 360 975 l 414 930 l 391 863 l 318 869 q 314 893 316 880 q 309 920 311 905 q 277 998 304 947 q 250 937 262 970 l 231 869 l 161 863 l 138 935 q 245 1025 198 968 q 213 1031 222 1029 q 171 1032 205 1032 q 147 1031 154 1032 q 130 1029 137 1031 l 102 1025 l 75 1090 l 130 1137 l 194 1092 q 219 1078 207 1082 q 259 1065 235 1072 q 218 1198 250 1136 l 277 1242 l 334 1198 q 324 1176 330 1192 q 312 1141 318 1160 q 302 1101 305 1119 q 298 1062 298 1079 q 355 1087 329 1070 q 419 1137 386 1106 z "},"-":{"ha":614,"x_min":78,"x_max":585,"o":"m 79 509 l 78 595 l 585 595 l 585 509 l 79 509 z "},"{":{"ha":481,"x_min":0,"x_max":459,"o":"m 459 1296 q 359 1219 405 1270 q 315 1102 315 1168 q 320 1016 315 1046 q 323 930 325 987 q 289 792 319 851 q 206 673 259 734 q 94 572 163 625 q 208 557 165 573 q 271 517 240 544 q 313 447 302 490 q 323 290 324 394 q 319 127 323 186 q 315 74 317 101 q 317 24 313 47 q 345 -32 328 -26 q 382 -24 362 -38 q 421 10 401 -11 q 459 35 441 31 l 449 -20 q 362 -88 419 -58 q 254 -90 305 -118 q 172 43 174 -47 q 173 205 170 96 q 172 367 176 315 q 116 498 166 454 q 0 508 79 529 l 0 566 q 70 609 49 591 q 128 682 100 635 q 165 770 155 729 q 174 883 180 837 q 172 997 168 928 q 248 1192 174 1093 q 449 1343 303 1265 l 459 1296 z "},"}":{"ha":556,"x_min":71,"x_max":530,"o":"m 71 -56 q 170 22 125 -28 q 215 138 215 72 q 210 223 215 194 q 207 311 204 253 q 240 447 210 389 q 323 567 270 506 q 435 668 367 616 q 322 683 363 667 q 257 723 288 695 q 217 793 227 751 q 206 949 205 845 q 211 1113 207 1054 q 215 1165 213 1139 q 212 1216 216 1192 q 184 1273 201 1267 q 147 1264 167 1278 q 107 1230 127 1251 q 71 1205 87 1208 l 81 1261 q 166 1329 110 1299 q 276 1331 223 1358 q 358 1197 354 1287 q 357 1034 360 1144 q 357 873 353 924 q 413 742 363 785 q 530 732 449 711 l 530 674 q 459 631 479 648 q 401 558 429 604 q 364 471 373 511 q 354 357 349 403 q 358 243 360 311 q 281 49 354 145 q 81 -102 223 -26 l 71 -56 z "},"~":{"ha":1137,"x_min":19,"x_max":1083,"o":"m 839 966 q 665 995 741 973 q 500 1043 589 1016 q 209 1098 341 1090 q 38 991 77 1107 l 19 990 q 157 1170 52 1101 q 406 1229 262 1238 q 717 1163 557 1219 q 972 1105 877 1107 q 1062 1179 1055 1103 l 1083 1176 q 997 1015 1066 1062 q 839 966 927 968 z "},"s":{"ha":824,"x_min":-30,"x_max":785,"o":"m 699 187 q 577 170 633 177 q 469 144 520 163 q 384 98 425 128 q 304 16 342 68 q 296 13 303 14 q 289 14 289 12 q 183 131 236 108 q 74 132 131 153 l 20 71 l 5 84 l 199 305 l 147 358 q 70 414 96 405 q -20 385 43 423 q -26 388 -22 383 q -28 395 -30 393 q 28 459 1 422 q 56 563 56 496 l 56 797 q 178 814 121 806 q 286 840 235 821 q 463 987 382 875 q 479 988 473 997 q 595 886 525 905 q 718 897 651 869 l 748 932 l 763 918 l 557 683 l 617 628 q 690 565 667 581 q 775 587 712 549 q 782 584 778 589 q 783 577 785 579 q 726 519 754 550 q 699 421 699 488 q 699 328 699 350 q 699 187 699 306 m 456 444 l 397 501 l 190 264 q 286 288 238 290 q 456 166 387 285 q 456 271 456 237 q 456 328 456 305 q 456 373 456 350 q 456 444 456 395 m 359 488 l 606 770 q 501 738 549 736 q 407 754 453 740 q 299 818 361 769 l 299 540 l 359 488 z "},"`":{"ha":330,"x_min":45,"x_max":314,"o":"m 182 1196 l 285 1092 q 272 931 270 1000 q 314 800 273 863 l 299 760 l 45 1063 l 182 1196 z "},"":{"ha":444,"x_min":55,"x_max":423,"o":"m 423 936 q 376 760 423 841 q 245 633 330 680 q 108 735 162 668 q 55 892 55 802 q 103 1051 55 981 q 234 1181 149 1121 q 368 1088 313 1155 q 423 936 423 1019 m 345 850 q 300 992 345 932 q 172 1079 253 1053 q 134 951 134 1020 q 186 816 134 878 q 308 730 239 753 q 345 850 345 786 z "},"":{"ha":870,"x_min":60,"x_max":829,"o":"m 68 637 l 68 722 l 406 722 l 406 924 l 491 924 l 491 722 l 829 722 l 829 637 l 491 637 l 491 442 l 406 442 l 406 637 l 68 637 m 60 290 l 60 374 l 821 374 l 821 290 l 60 290 z "},"":{"ha":1064,"x_min":28,"x_max":1014,"o":"m 517 970 q 867 824 721 970 q 1014 479 1014 680 q 869 134 1014 277 q 521 -9 724 -9 q 174 134 318 -9 q 28 479 28 278 q 173 824 28 680 q 517 970 317 970 m 520 40 q 831 170 702 40 q 960 479 960 298 q 830 789 960 658 q 520 919 702 919 q 210 788 341 919 q 79 479 79 658 q 210 170 79 298 q 520 40 340 40 m 719 349 q 642 271 719 338 q 542 179 567 207 q 474 87 524 159 l 456 105 l 488 153 l 473 161 q 303 414 303 233 q 480 757 303 588 q 519 800 490 767 q 597 888 548 832 l 606 882 l 553 800 q 639 753 593 753 q 692 772 665 753 q 704 764 703 772 q 652 703 704 755 q 568 651 601 651 q 465 710 534 651 q 404 467 404 655 q 458 323 404 378 q 583 269 513 269 q 710 359 606 269 q 719 349 725 359 z "},"":{"ha":1082,"x_min":36,"x_max":1031,"o":"m 530 970 q 882 823 735 970 q 1031 475 1031 677 q 885 126 1031 271 q 533 -17 739 -17 q 184 127 329 -17 q 37 475 36 271 q 182 823 37 677 q 530 970 328 970 m 533 32 q 846 163 717 32 q 977 475 977 292 q 846 787 977 655 q 533 918 715 918 q 220 786 351 918 q 88 475 88 654 q 219 163 88 292 q 533 32 351 32 m 863 277 q 762 172 841 220 q 654 70 681 122 l 640 82 q 697 151 640 97 l 690 161 q 626 281 651 190 q 589 387 600 368 q 560 402 576 402 q 431 334 535 402 l 434 316 q 469 256 434 280 q 504 221 504 232 l 498 215 q 383 110 443 184 l 360 97 q 380 140 380 128 q 351 180 380 155 q 311 205 323 205 q 279 215 275 205 l 291 222 q 339 305 339 243 l 339 670 q 316 705 339 687 q 284 724 292 724 q 239 702 275 724 l 233 718 q 411 874 351 812 q 425 862 429 874 q 380 802 425 854 q 412 765 380 789 q 486 729 445 741 q 432 682 432 706 l 435 625 q 544 731 473 670 q 669 861 612 790 q 682 850 684 861 q 631 780 631 800 q 679 737 631 760 q 757 652 757 702 q 630 470 757 562 q 710 332 696 442 q 744 250 718 277 q 781 220 770 220 q 859 290 802 220 l 865 285 l 863 277 m 435 353 q 608 491 565 445 q 653 583 653 538 q 643 629 653 616 q 605 661 632 644 q 555 707 577 677 q 432 590 461 627 l 435 353 z "},"^":{"ha":661,"x_min":60,"x_max":629,"o":"m 323 1251 l 629 1133 l 513 1051 l 244 1149 l 100 1051 l 60 1066 l 323 1251 z "},"":{"ha":1252,"x_min":38,"x_max":1193,"o":"m 720 203 q 546 432 720 372 q 511 302 511 370 q 561 166 511 224 q 685 83 610 108 q 720 203 720 133 m 328 756 q 283 899 328 840 q 155 986 237 958 q 117 858 117 927 q 170 723 117 785 q 291 637 222 660 q 328 756 328 693 m 800 289 q 753 111 800 195 q 623 -15 707 28 q 485 87 537 20 q 431 245 431 153 q 479 404 431 332 q 609 534 526 475 q 745 440 691 508 q 800 289 800 370 m 665 1078 l 717 1050 l 173 -5 l 121 24 l 665 1078 m 406 842 q 359 667 406 747 q 229 541 314 587 q 91 642 145 575 q 38 799 38 709 q 86 958 38 885 q 217 1088 132 1028 q 351 995 296 1062 q 406 842 406 926 m 1193 293 q 1146 117 1193 199 q 1015 -9 1099 35 q 878 93 930 26 q 825 249 825 159 q 873 409 825 337 q 1004 538 922 481 q 1138 445 1084 512 q 1193 293 1193 378 m 1115 207 q 1069 349 1115 290 q 941 437 1023 409 q 904 308 904 378 q 956 173 904 235 q 1078 87 1008 110 q 1115 207 1115 144 z "},"'":{"ha":343,"x_min":58,"x_max":327,"o":"m 191 1196 l 327 1063 l 73 760 l 58 800 q 100 931 98 863 q 87 1092 102 1000 l 191 1196 z "},"":{"ha":663,"x_min":73,"x_max":631,"o":"m 80 575 q 331 826 254 652 q 345 833 334 833 q 358 826 355 833 q 609 575 406 682 q 609 548 631 564 q 358 297 415 422 q 331 297 346 273 q 80 548 224 462 q 73 562 73 552 q 80 575 73 572 z "},"":{"ha":1225,"x_min":-28,"x_max":1166,"o":"m 596 327 l 617 302 l 373 -5 q 251 95 304 78 q 125 106 197 113 q 38 23 52 100 q 65 -100 24 -53 q 160 -147 96 -135 q 300 -159 225 -159 q 416 -153 358 -159 q 516 -115 473 -146 q 561 -46 547 -92 q 572 49 575 1 l 589 50 q 516 -183 605 -77 q 309 -283 427 -289 q 146 -234 228 -277 q 28 -111 65 -191 q 31 163 -28 15 q 199 347 90 311 q 273 364 237 359 l 499 1094 l 492 1119 q 424 1225 478 1175 q 306 1272 370 1276 q 243 1257 266 1270 q 202 1227 220 1245 q 159 1142 167 1192 q 180 1058 152 1093 q 236 1020 203 1029 q 305 1010 269 1010 q 382 1029 346 1010 q 429 1104 418 1048 q 436 1110 430 1111 q 441 1103 441 1109 q 426 1020 441 1053 q 406 983 410 987 q 282 924 356 924 q 191 953 233 924 q 132 1040 149 983 q 148 1194 111 1108 q 290 1314 185 1280 q 389 1333 325 1324 q 526 1329 454 1342 q 668 1271 599 1316 q 783 1130 738 1226 q 809 1211 791 1174 q 837 1273 827 1247 q 843 1274 838 1278 q 847 1263 848 1269 q 813 1142 827 1203 q 819 1005 799 1080 l 991 347 q 995 312 995 331 q 1002 276 995 293 q 1046 230 1015 243 q 1088 228 1076 216 l 1149 288 l 1166 274 q 1050 136 1101 211 q 933 -1 998 60 q 924 -2 928 -1 q 915 -3 919 -3 l 743 134 l 660 459 l 339 459 l 310 365 q 415 332 364 361 q 541 252 465 302 l 596 327 m 609 661 l 515 1029 l 401 661 l 609 661 z "},"":{"ha":1136,"x_min":5,"x_max":1082,"o":"m 522 -5 q 333 117 433 79 q 140 149 233 155 q 40 39 45 141 q 87 -109 35 -62 q 211 -161 128 -144 q 397 -180 294 -178 q 543 -173 472 -182 q 669 -137 614 -165 q 749 -59 716 -113 q 786 64 783 -5 l 802 57 q 717 -187 823 -70 q 402 -307 611 -304 q 59 -135 161 -308 q 8 66 5 -43 q 72 273 12 176 q 215 411 126 359 l 215 829 q 456 1011 393 886 q 448 1015 453 1013 q 198 1072 294 1090 q 64 868 102 1053 l 46 867 q 97 1149 62 1034 q 356 1294 132 1265 q 634 1258 502 1312 q 857 1194 767 1204 q 929 1204 868 1192 q 993 1269 989 1216 l 1036 1274 q 913 1022 1000 1118 q 770 926 825 926 q 606 951 694 926 l 606 675 q 609 675 608 675 q 673 675 646 675 q 721 675 701 675 q 996 529 924 675 q 1082 219 1068 384 q 916 193 1021 224 q 745 136 810 161 q 639 81 693 117 q 522 -5 585 45 m 482 999 l 482 675 q 529 675 507 677 q 572 675 551 673 l 572 963 q 482 999 522 980 m 176 358 q 218 375 194 368 q 572 340 383 425 l 572 648 l 482 648 l 482 454 q 348 437 407 457 q 243 400 288 416 q 176 358 209 387 m 606 648 l 606 323 q 666 292 650 303 q 772 217 682 280 q 762 330 768 260 q 740 468 756 399 q 693 588 724 536 q 606 648 662 640 z "},"":{"ha":1103,"x_min":2,"x_max":1051,"o":"m 539 -5 q 350 117 450 79 q 157 149 250 155 q 62 38 62 141 q 114 -113 61 -66 q 233 -163 155 -147 q 414 -180 311 -178 q 561 -173 490 -182 q 686 -137 631 -165 q 767 -59 734 -113 q 804 64 800 -5 l 819 57 q 734 -187 840 -70 q 419 -307 628 -304 q 76 -135 179 -308 q 25 66 22 -43 q 90 273 29 176 q 233 411 144 359 l 233 634 l 102 640 q 39 599 58 640 q 15 497 21 558 l 2 498 l 2 669 q 28 770 2 703 q 165 838 54 838 l 233 838 l 233 1042 q 85 1035 151 1036 q 66 1045 65 1034 q 81 1058 66 1057 q 461 1095 256 1072 q 853 1324 667 1117 q 875 1321 854 1325 q 985 1211 941 1282 q 1041 1059 1029 1140 q 1035 917 1051 987 q 968 800 1018 846 q 853 747 932 765 q 713 722 774 728 q 712 716 709 722 q 718 710 715 710 q 814 709 752 707 q 927 695 876 711 q 1022 564 1024 664 l 1014 159 q 890 163 953 165 q 762 136 828 161 q 656 81 711 117 q 539 -5 602 45 m 193 358 q 235 375 213 368 q 414 388 319 401 q 589 328 509 375 l 589 707 l 499 705 l 499 454 q 365 437 424 457 q 261 400 306 416 q 193 358 227 388 m 499 728 q 589 734 549 730 l 589 1099 l 591 1101 q 499 1080 556 1091 l 499 728 m 624 1110 l 624 736 q 626 737 625 736 q 781 815 742 749 q 812 947 819 881 q 759 1074 806 1013 q 640 1115 711 1136 q 624 1110 633 1112 m 624 705 l 624 305 q 730 178 694 252 l 736 184 q 737 379 736 279 q 739 572 738 479 q 718 648 739 601 q 624 705 697 696 z "},"":{"ha":1199,"x_min":-40,"x_max":1142,"o":"m 1118 1299 l 1140 1297 q 1076 1029 1142 1164 q 853 899 1010 894 l 853 246 q 948 248 903 248 l 941 228 q 619 155 759 222 q 406 -6 497 98 q 275 87 317 69 q 141 100 234 106 q 33 3 45 94 q 73 -130 20 -87 q 204 -179 113 -162 q 398 -197 295 -195 q 544 -191 473 -198 q 669 -158 614 -183 q 739 -69 717 -136 q 766 64 760 -3 l 788 58 q 757 -90 784 -24 q 665 -213 730 -156 q 399 -306 549 -311 q 197 -271 294 -301 q 52 -168 100 -241 q 21 120 -40 -26 q 218 309 83 267 q 454 277 336 344 l 454 593 l 329 598 q 251 486 263 601 l 238 487 l 238 638 q 254 734 238 673 q 380 796 269 796 l 454 796 l 454 1019 q 266 1037 350 1055 q 135 873 182 1019 l 116 869 q 193 1166 105 1053 q 431 1282 281 1280 q 714 1230 589 1284 q 937 1184 838 1176 q 1049 1216 978 1187 q 1118 1299 1120 1246 m 776 909 q 630 950 701 923 q 490 1006 560 977 l 490 254 q 562 191 527 227 l 562 786 q 668 834 614 798 q 776 909 722 869 z "},"":{"ha":1108,"x_min":9,"x_max":1056,"o":"m 563 2 q 383 117 474 85 q 200 143 292 149 q 80 51 104 136 q 108 -81 55 -35 q 239 -135 149 -117 q 433 -156 330 -154 q 574 -149 520 -157 q 677 -111 627 -140 q 760 -36 720 -84 q 792 104 801 12 l 814 100 q 711 -154 836 -26 q 435 -276 587 -282 q 228 -237 330 -271 q 79 -123 126 -204 q 29 72 24 -32 q 103 251 35 175 l 102 258 q 162 329 132 304 q 239 382 193 355 l 239 547 l 109 553 q 51 533 74 553 q 22 452 28 513 l 9 453 l 9 604 q 35 695 9 639 q 172 751 61 751 l 239 751 l 239 899 l 114 869 l 111 899 q 335 957 222 921 q 557 1038 448 994 q 516 1034 537 1036 q 475 1030 496 1032 q 275 1012 372 1019 q 138 1023 177 1004 q 67 1086 102 1039 q 31 1198 33 1133 q 30 1261 30 1231 q 40 1331 30 1291 q 50 1338 40 1341 q 61 1329 60 1335 q 61 1312 62 1321 q 71 1299 61 1303 q 165 1292 97 1286 q 285 1300 233 1297 q 387 1305 299 1300 q 577 1316 475 1310 q 769 1324 680 1321 q 874 1325 858 1328 q 928 1307 892 1321 q 991 1269 963 1293 q 1048 1158 1043 1224 l 1056 264 q 764 189 876 264 q 563 2 652 114 m 182 313 q 248 340 214 331 q 584 328 410 390 l 584 1019 l 506 983 l 506 426 q 372 409 431 429 q 268 372 313 389 q 182 313 226 357 m 637 1044 l 619 1036 l 619 313 q 764 235 689 283 l 777 245 l 781 939 q 780 1014 781 970 q 720 1051 779 1057 q 637 1044 692 1048 z "},"":{"ha":1255,"x_min":3,"x_max":1195,"o":"m 862 1006 l 862 691 q 933 812 888 777 q 1027 846 979 848 q 1135 798 1086 844 q 1194 684 1183 751 q 1186 669 1195 670 q 1066 595 1099 657 q 1028 507 1034 532 q 1014 498 1026 500 q 1002 503 1002 496 q 945 651 989 610 q 862 627 901 692 l 862 63 q 1039 215 960 100 q 1131 456 1118 330 q 1143 465 1131 462 q 1156 461 1156 467 q 1057 181 1144 304 q 835 7 969 58 q 497 -10 675 -54 q 199 151 318 34 q 57 362 111 237 q 3 650 3 488 q 85 989 3 828 q 301 1244 167 1149 q 406 1298 350 1278 q 519 1330 463 1317 q 528 1323 530 1332 q 523 1314 527 1315 q 451 1280 494 1308 q 389 1215 408 1253 q 351 1106 365 1168 q 330 974 337 1044 l 940 1339 q 951 1339 943 1335 q 961 1329 959 1343 q 1037 1164 977 1196 q 1115 1175 1078 1142 q 1143 1255 1152 1208 l 1175 1261 q 1119 1082 1165 1139 q 1019 1006 1073 1025 q 919 995 965 988 q 862 1006 872 1001 m 827 57 l 827 1018 q 765 1089 785 1042 q 740 1162 746 1137 l 724 1154 l 722 324 l 389 210 q 433 153 406 185 q 511 92 460 120 q 666 38 576 54 q 827 57 756 21 m 326 936 q 319 789 320 864 q 321 642 319 713 q 327 458 322 602 q 377 242 332 314 l 433 262 l 433 994 l 326 936 z "},"":{"ha":1572,"x_min":-11,"x_max":1497,"o":"m 723 -5 q 534 116 634 78 q 342 147 435 153 q 234 40 247 140 q 274 -106 221 -60 q 406 -160 315 -142 q 599 -181 496 -179 q 745 -174 674 -182 q 871 -138 816 -165 q 981 43 975 -84 l 1004 40 q 889 -197 1025 -87 q 601 -301 753 -307 q 392 -262 492 -296 q 235 -162 292 -229 q 162 101 130 -43 q 357 319 194 245 q 584 367 465 368 l 584 754 q 499 738 539 749 q 444 708 458 726 q 410 549 413 667 q 406 382 406 431 q 257 323 333 356 q 126 248 182 290 l 126 507 q 146 674 126 599 q 294 776 165 750 l 296 789 q 189 857 222 784 q 169 924 174 888 q 164 992 164 961 q 152 1063 164 1034 q 108 1109 139 1096 q 67 1112 77 1122 l 6 1051 l -11 1065 q 118 1190 53 1127 q 248 1315 182 1252 q 256 1316 252 1315 q 266 1317 261 1316 l 439 1153 l 439 869 q 481 811 439 834 q 584 782 522 789 l 584 1156 l 876 1337 l 876 522 q 758 453 817 494 q 641 363 699 412 q 919 262 783 348 l 919 1116 l 1335 1345 q 1357 1343 1343 1349 q 1371 1326 1371 1337 l 1377 1117 q 1320 915 1379 1029 q 1145 789 1261 800 q 1144 783 1141 789 q 1151 777 1147 777 q 1260 744 1219 773 q 1318 692 1301 714 q 1336 656 1326 681 q 1352 579 1346 632 q 1353 457 1358 519 q 1349 355 1348 394 l 1352 267 q 1380 232 1352 247 q 1421 231 1409 216 l 1473 290 l 1497 281 l 1261 5 l 1227 3 l 1078 144 l 1078 434 q 1074 628 1078 511 q 954 753 1069 746 l 954 238 l 723 -5 m 954 784 l 1010 786 q 1064 837 1051 791 q 1082 944 1078 884 l 1082 1165 l 954 1091 l 954 784 z "},"":{"ha":963,"x_min":3,"x_max":918,"o":"m 613 692 q 612 686 609 692 q 618 680 615 680 q 693 683 652 677 q 784 673 733 689 q 879 541 881 642 l 863 175 q 619 157 713 189 q 403 4 519 122 q 146 143 308 155 q 45 54 62 136 q 74 -75 27 -28 q 172 -130 105 -106 q 315 -163 238 -155 q 469 -161 393 -172 q 598 -109 546 -149 q 650 -26 627 -85 q 680 81 673 32 l 699 77 q 597 -154 704 -41 q 368 -268 490 -267 q 115 -173 209 -268 q 11 39 21 -79 q 50 212 3 129 q 203 345 97 294 q 383 367 290 387 l 383 675 q 314 671 347 673 q 253 668 280 668 q 237 684 237 667 q 252 701 238 701 q 315 697 282 699 q 383 696 349 696 l 383 1054 q 251 1048 316 1044 q 143 1121 186 1052 q 103 1212 121 1155 q 82 1349 84 1268 q 92 1367 81 1369 q 103 1351 102 1365 q 142 1293 108 1297 q 220 1293 176 1289 q 391 1314 302 1299 q 582 1337 479 1328 q 751 1301 667 1344 q 873 1191 836 1257 q 911 1013 918 1109 q 812 787 903 879 q 613 692 732 703 m 594 218 q 595 385 594 300 q 597 549 596 469 q 591 616 597 591 q 561 655 585 642 q 497 673 534 669 q 418 677 459 677 l 418 357 q 594 218 524 320 m 418 698 q 487 707 455 700 q 616 774 564 722 q 656 939 667 826 q 597 1037 649 1004 q 465 1065 545 1069 q 418 1059 452 1063 l 418 698 z "},"":{"ha":1270,"x_min":-12,"x_max":1209,"o":"m 607 1349 l 642 1349 l 642 271 l 758 392 l 758 1041 q 781 1206 758 1131 q 913 1314 803 1280 q 1025 1334 959 1328 q 1182 1333 1090 1339 q 1189 1324 1187 1333 q 1185 1316 1190 1316 q 1050 1222 1066 1324 q 1034 1041 1034 1119 l 1034 326 q 1045 255 1034 284 q 1089 209 1058 222 q 1131 206 1120 195 l 1192 267 l 1209 253 q 1079 127 1144 190 q 950 3 1015 65 q 941 1 945 2 q 932 1 936 1 l 758 165 l 758 342 l 443 15 q 293 116 353 75 q 151 150 233 156 q 48 64 67 142 q 75 -60 28 -14 q 172 -116 106 -92 q 313 -150 237 -141 q 464 -146 389 -158 q 592 -94 540 -135 q 628 -34 621 -71 q 641 52 635 3 l 661 48 q 578 -171 665 -71 q 369 -272 491 -271 q 185 -227 275 -272 q 52 -101 95 -182 q 14 143 -12 21 q 121 351 40 265 q 172 393 146 378 q 231 428 198 409 l 231 659 l 146 659 q 88 632 111 659 q 66 545 64 606 l 54 545 l 54 739 q 89 835 54 801 q 163 869 123 869 l 231 869 l 231 1061 q 152 1057 187 1057 q 94 1068 117 1057 q 45 1110 57 1084 q 32 1202 33 1135 q 31 1355 30 1260 q 41 1362 31 1364 q 52 1353 51 1359 q 68 1322 54 1329 q 151 1318 94 1310 q 260 1329 209 1326 q 328 1331 288 1331 q 401 1326 368 1331 q 463 1301 441 1318 q 498 1227 498 1270 l 498 435 q 363 436 422 437 q 260 418 304 434 q 194 380 227 406 q 400 365 309 411 q 607 243 492 318 l 607 1349 z "},"":{"ha":1257,"x_min":-23,"x_max":1198,"o":"m 595 1208 l 630 1208 l 630 269 l 747 390 l 747 1040 q 769 1205 747 1131 q 901 1313 791 1279 q 1013 1332 947 1326 q 1170 1332 1079 1338 q 1177 1323 1176 1331 q 1173 1315 1179 1314 q 1038 1220 1055 1323 q 1022 1040 1022 1118 l 1022 324 q 1034 254 1022 281 q 1077 207 1046 220 q 1119 205 1107 194 l 1180 265 l 1198 252 q 1068 126 1133 189 q 939 1 1003 64 q 920 0 926 0 l 747 163 l 747 340 l 431 14 q 281 114 341 74 q 139 149 221 155 q 36 63 55 141 q 63 -62 16 -15 q 160 -118 94 -93 q 301 -151 225 -142 q 452 -148 376 -159 q 580 -96 528 -136 q 616 -35 609 -73 q 629 50 623 2 l 649 47 q 566 -172 654 -72 q 357 -273 479 -273 q 173 -228 264 -273 q 41 -102 83 -183 q 3 142 -23 20 q 110 350 28 264 q 160 392 134 376 q 219 427 186 407 l 219 658 l 134 658 q 76 631 100 658 q 55 543 53 604 l 42 544 l 42 737 q 77 833 42 800 q 151 867 111 867 l 219 867 l 219 1059 q 140 1055 176 1055 q 81 1067 105 1055 q 33 1108 45 1083 q 20 1200 21 1134 q 19 1272 19 1233 q 20 1354 18 1310 q 30 1360 20 1363 q 40 1352 39 1358 q 56 1321 43 1326 q 139 1317 81 1309 q 248 1327 197 1324 q 317 1330 277 1329 q 389 1324 357 1330 q 451 1299 429 1317 q 486 1227 486 1268 l 486 433 q 352 434 411 436 q 248 416 292 433 q 182 379 214 404 q 389 363 297 409 q 595 242 480 317 l 595 1208 m 421 1402 q 574 1510 507 1449 q 592 1510 587 1522 q 729 1407 641 1410 q 823 1486 817 1404 q 831 1487 823 1488 q 838 1483 838 1486 q 787 1343 838 1397 q 667 1277 736 1290 q 513 1302 572 1259 q 421 1402 454 1345 z "},"":{"ha":1219,"x_min":9,"x_max":1161,"o":"m 672 328 l 695 303 l 443 22 q 300 130 368 105 q 155 148 233 154 q 73 105 104 144 q 39 22 41 66 q 71 -61 35 -29 q 158 -111 107 -93 q 264 -134 210 -128 q 353 -142 319 -140 q 476 -135 416 -143 q 583 -98 536 -127 q 661 83 655 -54 l 680 79 q 590 -158 698 -48 q 355 -262 483 -268 q 61 -117 146 -250 q 10 77 9 -36 q 85 293 10 189 q 151 358 112 330 q 230 410 190 387 l 230 634 l 111 639 q 33 526 44 642 l 20 528 l 20 679 q 36 775 20 713 q 161 837 52 837 l 230 837 l 230 1044 q 157 1030 193 1036 q 83 1017 120 1023 q 80 1025 79 1016 q 86 1035 81 1034 q 404 1139 256 1067 q 665 1348 552 1212 q 684 1348 678 1360 q 822 1209 732 1213 q 918 1314 911 1205 q 925 1316 918 1318 q 932 1312 932 1315 q 881 1125 932 1196 q 759 1036 829 1053 q 618 1059 684 1017 l 618 828 l 886 1021 q 908 1018 885 1020 q 1008 921 978 977 q 1041 808 1038 865 q 985 648 1045 720 q 808 566 924 576 q 808 559 805 565 q 814 553 810 553 q 917 532 882 548 q 970 502 952 516 q 1002 452 993 481 q 1013 350 1010 422 l 1016 261 q 1044 226 1016 241 q 1085 226 1072 211 l 1137 284 l 1161 276 l 924 0 l 892 -2 l 742 138 l 742 349 q 738 470 742 412 q 640 532 733 527 l 618 534 l 618 279 q 622 276 620 277 q 625 274 623 275 l 672 328 m 496 1145 l 496 741 l 583 804 l 583 1086 q 528 1164 550 1118 q 496 1145 517 1158 m 172 340 q 208 356 189 349 q 387 386 312 394 q 583 302 462 378 l 583 770 l 496 710 l 496 454 q 362 436 421 456 q 258 400 303 416 q 172 340 216 385 m 618 794 l 618 555 l 674 562 q 775 619 753 572 q 789 718 797 666 q 740 813 779 775 q 652 817 701 852 l 618 794 z "},"":{"ha":1160,"x_min":-36,"x_max":1105,"o":"m 783 1355 q 802 1356 791 1362 q 904 1216 867 1263 q 957 1144 941 1168 q 976 1106 974 1119 q 975 1068 977 1093 l 975 333 l 1045 257 l 1090 321 l 1105 297 q 1017 150 1060 232 q 909 6 974 68 q 896 3 904 5 q 884 1 888 1 q 797 96 847 30 q 722 207 747 163 q 708 237 716 217 q 701 262 701 256 l 701 1055 l 615 1162 l 553 1107 l 553 291 l 405 27 q 262 133 334 108 q 117 152 191 158 q 31 68 42 145 q 61 -53 19 -8 q 282 -130 118 -113 q 545 -78 446 -147 q 589 -6 576 -56 q 598 91 602 44 l 616 87 q 541 -146 633 -35 q 329 -251 449 -257 q 162 -206 245 -246 q 41 -89 79 -166 q 26 198 -36 68 q 205 374 89 328 q 366 387 282 404 l 366 656 l 314 660 q 256 641 279 661 q 227 559 233 621 l 214 560 l 214 711 q 237 801 214 746 q 366 857 260 855 l 366 968 l 332 941 l 305 970 l 783 1355 m 400 378 q 517 320 459 359 l 517 1089 l 400 996 l 400 378 z "},"":{"ha":1636,"x_min":-42,"x_max":1558,"o":"m 398 27 q 256 133 328 108 q 111 152 184 158 q 25 68 36 145 q 55 -53 14 -8 q 275 -130 112 -113 q 538 -78 439 -147 q 583 -6 570 -56 q 592 91 595 44 l 610 87 q 534 -146 626 -35 q 322 -251 443 -257 q 156 -206 239 -246 q 35 -89 73 -166 q 20 198 -42 68 q 199 374 82 328 q 360 387 275 404 l 360 656 l 307 660 q 250 641 273 661 q 220 559 227 621 l 208 560 l 208 711 q 231 801 208 746 q 360 857 254 855 l 360 968 l 326 941 l 299 970 q 394 1048 332 998 q 524 1152 456 1098 q 652 1256 591 1206 q 746 1338 713 1307 q 764 1339 755 1348 l 872 1227 q 893 1198 892 1207 q 894 1175 894 1190 l 901 1007 q 1076 1170 994 1086 q 1248 1338 1158 1253 q 1265 1339 1255 1345 q 1366 1202 1331 1246 q 1416 1135 1401 1157 q 1431 1103 1431 1114 q 1430 1068 1432 1093 l 1430 333 l 1499 257 l 1544 321 l 1558 297 q 1471 150 1514 232 q 1363 6 1428 68 q 1350 3 1358 5 q 1337 1 1341 1 q 1251 96 1301 30 q 1176 207 1200 163 q 1162 237 1170 217 q 1154 262 1154 256 l 1154 978 l 1060 1059 l 1060 296 l 822 -3 q 804 -5 817 -3 q 786 -8 791 -7 q 753 44 779 2 q 696 132 726 85 q 638 217 665 178 q 603 258 611 255 q 606 277 580 264 q 630 297 612 280 q 649 378 649 315 l 649 988 l 546 1086 l 546 291 l 398 27 m 394 378 q 511 320 453 359 l 511 1089 l 394 996 l 394 378 m 1015 612 l 894 612 l 894 326 q 918 280 894 310 q 960 234 942 250 l 1015 300 l 1015 612 m 894 831 l 1015 831 l 1015 1046 l 894 958 l 894 831 z "},"":{"ha":1280,"x_min":-23,"x_max":1219,"o":"m 589 1071 q 741 1202 667 1137 q 890 1336 815 1266 q 907 1338 900 1346 q 994 1227 929 1313 q 1150 1119 1058 1141 q 1157 1109 1156 1117 q 1153 1102 1158 1102 q 1074 1079 1105 1098 q 1044 1002 1044 1059 l 1044 366 q 1055 294 1044 324 q 1099 248 1068 261 q 1141 246 1129 235 l 1202 307 l 1219 292 q 1082 146 1154 229 q 945 1 1010 63 q 935 0 940 1 q 926 0 930 0 l 768 153 l 768 562 l 625 562 l 625 217 l 446 2 q 287 112 367 86 q 124 132 206 138 q 36 39 40 125 q 78 -94 31 -47 q 316 -168 141 -157 q 602 -107 491 -178 q 651 -32 637 -83 q 661 68 665 19 l 682 64 q 597 -178 700 -62 q 360 -288 494 -294 q 174 -241 267 -282 q 39 -119 81 -199 q 4 119 -23 0 q 113 325 31 238 q 173 374 140 353 q 241 416 207 395 l 241 568 l 98 573 q 40 554 63 574 q 11 473 17 534 l -1 474 l -1 625 q 31 715 -1 660 q 173 771 62 771 l 241 771 l 241 1048 q 162 1044 197 1044 q 103 1055 127 1044 q 44 1100 66 1072 q 21 1194 22 1128 q 22 1265 20 1227 q 26 1348 24 1304 q 36 1355 26 1357 q 46 1346 45 1352 q 46 1329 47 1338 q 56 1315 46 1319 q 151 1308 82 1303 q 270 1316 219 1314 q 338 1318 298 1318 q 411 1313 378 1318 q 473 1288 450 1306 q 508 1215 508 1257 l 508 422 q 373 423 433 425 q 269 405 314 421 q 204 368 235 392 q 399 356 312 396 q 591 248 486 317 l 589 1071 m 768 760 l 768 1067 l 708 1130 l 625 1058 l 625 760 l 768 760 z "},"":{"ha":1326,"x_min":-1,"x_max":1263,"o":"m 858 1025 l 858 160 q 924 326 896 224 q 958 699 975 518 q 858 1025 941 879 m 823 113 l 823 1080 q 736 1182 785 1134 l 720 1174 l 718 344 l 350 218 q 389 142 364 173 q 498 55 433 87 q 636 27 564 22 q 823 113 751 33 m 956 1340 q 1175 1029 1109 1179 q 1251 748 1242 879 q 1206 448 1263 579 q 1086 236 1149 316 q 968 128 1046 186 q 809 35 890 69 q 574 -1 700 -9 q 194 171 356 12 q 53 382 106 256 q -1 669 -1 508 q 81 1009 -1 848 q 296 1264 162 1170 q 401 1317 345 1298 q 515 1350 458 1337 q 524 1343 526 1352 q 519 1334 523 1335 q 447 1300 490 1327 q 385 1235 404 1273 q 347 1126 361 1188 q 325 994 332 1064 l 956 1340 m 321 956 q 315 808 315 884 q 317 662 315 733 q 324 415 321 513 q 341 251 327 317 l 428 281 l 428 1014 l 321 956 z "},"":{"ha":1270,"x_min":-26,"x_max":1210,"o":"m 616 981 l 616 209 l 435 5 q 276 115 357 89 q 115 135 196 141 q 18 48 31 128 q 52 -78 5 -31 q 151 -131 83 -109 q 298 -158 218 -152 q 457 -152 377 -164 q 592 -104 536 -140 q 642 -29 627 -81 q 652 71 656 22 l 671 68 q 587 -175 690 -60 q 351 -284 485 -291 q 164 -238 258 -279 q 29 -116 71 -197 q 1 127 -26 -9 q 116 332 28 263 q 166 378 140 361 q 231 418 193 396 l 231 572 l 172 578 q 114 560 137 581 q 85 477 91 539 l 72 478 l 72 630 q 87 741 72 713 q 156 774 102 769 q 231 776 176 776 l 231 924 q 375 970 321 942 q 465 1025 429 998 q 307 1082 380 1058 q 178 1103 234 1105 q 78 1058 117 1100 q 27 915 39 1016 l -3 911 q 54 1262 -19 1154 q 316 1373 126 1368 q 462 1346 395 1375 q 609 1297 530 1317 q 970 1291 789 1249 q 1194 1378 1082 1316 l 1210 1365 q 1165 1214 1200 1312 q 1034 1045 1130 1115 l 1034 369 q 1046 298 1034 326 q 1089 251 1059 264 q 1131 250 1120 238 l 1192 309 l 1209 296 q 1072 150 1144 233 q 935 4 1000 66 q 926 3 930 3 q 917 2 921 2 l 759 155 l 759 861 l 951 1000 q 890 982 922 989 q 766 968 839 970 q 616 981 694 966 m 498 1012 l 498 425 q 363 426 422 428 q 260 408 304 424 q 194 371 227 396 q 389 359 302 399 q 581 251 476 319 l 581 987 q 498 1012 530 1000 z "},"":{"ha":1219,"x_min":-29,"x_max":1161,"o":"m 631 316 q 766 185 701 264 l 771 194 l 771 1048 l 711 1111 q 714 1128 707 1114 l 631 1057 l 631 316 m 882 1317 q 896 1321 884 1320 q 910 1319 907 1322 q 996 1208 932 1294 q 1153 1100 1061 1122 q 1160 1090 1158 1098 q 1156 1083 1161 1083 q 1077 1060 1107 1079 q 1046 983 1046 1040 l 1046 214 q 795 176 896 218 q 600 -3 673 126 q 544 27 572 10 q 487 62 515 44 l 487 -56 q 598 -46 545 -54 q 696 -16 652 -38 q 781 113 777 22 l 805 110 q 712 -76 810 15 q 487 -196 614 -166 l 487 -245 l 220 -288 l 220 -180 q 52 -57 110 -142 q 20 221 -29 60 q 220 417 68 383 l 220 625 l 119 625 q 59 598 85 625 q 35 510 33 572 l 22 511 l 22 704 q 67 792 22 766 q 153 819 113 819 l 220 819 l 220 1042 q 141 1038 176 1038 q 83 1049 106 1038 q 34 1083 46 1065 q 21 1167 22 1101 q 21 1321 18 1234 q 31 1328 21 1330 q 41 1319 41 1325 q 57 1289 44 1294 q 140 1284 83 1276 q 250 1295 198 1292 q 318 1296 278 1296 q 391 1291 358 1297 q 452 1266 430 1284 q 487 1194 487 1236 l 487 979 l 882 1317 m 487 932 l 487 396 q 596 340 545 374 l 596 1027 l 487 932 m 220 201 q 169 204 193 205 q 42 124 66 198 q 75 7 18 51 q 220 -41 119 -23 l 220 201 z "},"":{"ha":1251,"x_min":20,"x_max":1192,"o":"m 880 1001 l 880 58 q 1056 210 977 95 q 1147 451 1135 326 q 1161 460 1148 457 q 1174 456 1174 463 q 1074 176 1162 299 q 852 2 987 54 q 514 -15 693 -58 q 216 146 335 29 q 75 358 129 232 q 20 645 20 484 q 102 984 20 824 q 319 1239 184 1145 q 424 1293 368 1274 q 537 1325 480 1312 q 546 1319 547 1327 q 541 1310 545 1310 q 469 1276 512 1303 q 406 1211 425 1249 q 368 1102 382 1164 q 347 969 354 1040 l 958 1334 q 969 1334 961 1330 q 979 1324 977 1338 q 1055 1160 994 1191 q 1133 1170 1096 1137 q 1161 1251 1169 1203 l 1192 1257 q 1137 1077 1183 1134 q 1037 1002 1090 1020 q 936 990 983 983 q 880 1001 890 996 m 844 52 l 844 1013 q 783 1085 802 1038 q 758 1158 764 1132 l 742 1149 l 739 319 l 407 205 q 450 148 423 180 q 528 87 477 115 q 683 33 593 50 q 844 52 773 16 m 344 931 q 337 784 338 859 q 339 637 336 709 q 345 453 340 597 q 395 237 349 309 l 450 257 l 450 989 l 344 931 z "},"":{"ha":1658,"x_min":-25,"x_max":1579,"o":"m 616 1023 l 616 218 l 436 16 q 277 125 357 99 q 115 145 197 151 q 18 58 31 138 q 52 -68 5 -21 q 152 -120 84 -99 q 299 -148 219 -142 q 458 -142 378 -154 q 593 -94 537 -130 q 642 -19 628 -71 q 652 81 656 33 l 672 77 q 588 -165 691 -50 q 351 -274 486 -281 q 165 -228 258 -269 q 30 -106 73 -186 q 2 136 -25 0 q 117 342 29 273 q 167 388 141 370 q 232 429 193 406 l 232 583 l 189 588 q 102 488 113 597 l 89 488 l 89 640 q 104 751 89 724 q 174 784 119 779 q 199 785 188 785 q 232 786 210 786 l 232 934 q 402 993 345 956 q 499 1059 460 1030 l 499 435 q 365 436 424 438 q 260 418 305 434 q 195 381 227 406 q 390 370 303 410 q 581 261 477 330 l 581 1034 q 407 1091 461 1075 q 307 1093 353 1107 q 233 1046 271 1080 q 174 925 195 1013 q 155 920 173 922 q 138 920 138 918 q 138 1073 128 1007 q 165 1188 149 1139 q 277 1324 197 1287 q 494 1364 357 1360 q 672 1340 587 1367 q 850 1293 757 1314 q 1246 1293 1068 1244 q 1548 1412 1424 1343 q 1566 1414 1555 1416 q 1577 1407 1577 1411 q 1553 1251 1579 1345 q 1440 1086 1527 1156 q 1400 1060 1423 1072 l 1400 378 q 1411 308 1400 335 q 1455 261 1424 275 q 1497 259 1485 248 l 1558 319 l 1575 306 q 1437 160 1510 243 q 1301 14 1365 77 q 1291 13 1296 14 q 1282 12 1286 12 l 1124 165 l 1124 871 l 1358 1040 q 1194 991 1287 1010 q 1065 981 1148 983 l 1067 252 q 955 133 1002 189 q 844 14 909 77 q 835 13 840 14 q 826 12 830 12 l 668 165 l 668 820 l 910 983 q 756 997 833 987 q 616 1023 679 1006 m 943 786 l 1030 786 l 1030 981 q 943 982 993 979 l 943 786 m 1030 583 l 943 583 l 943 302 l 988 237 l 1030 292 l 1030 583 z "},"":{"ha":1286,"x_min":-7,"x_max":1225,"o":"m 642 1335 l 677 1335 l 677 647 l 794 707 l 794 1027 q 816 1192 794 1118 q 948 1300 838 1267 q 1060 1320 994 1314 q 1217 1319 1126 1326 q 1224 1310 1223 1318 q 1220 1302 1225 1301 q 1086 1208 1102 1310 q 1069 1027 1069 1105 l 1069 215 q 822 139 911 227 q 701 -24 733 52 q 530 78 610 35 q 368 115 450 121 q 260 24 283 109 q 283 -106 236 -60 q 435 -166 333 -157 q 642 -155 538 -176 q 827 -86 747 -134 q 916 26 908 -39 l 936 22 q 795 -190 941 -96 q 527 -283 649 -283 q 267 -184 354 -283 q 192 80 179 -85 q 267 273 201 210 q 427 350 332 336 q 642 333 521 363 l 642 589 l 303 412 q 238 459 273 433 q 203 514 203 486 l 193 645 l 108 645 q 50 618 73 645 q 28 530 26 592 l 16 531 l 16 724 q 50 821 16 787 q 125 854 85 854 l 193 854 l 193 1046 q 114 1043 149 1043 q 55 1054 79 1042 q 7 1096 18 1071 q -5 1187 -3 1122 q -6 1341 -7 1246 q 3 1348 -6 1351 q 14 1339 13 1345 q 29 1309 16 1314 q 113 1304 55 1297 q 222 1315 171 1312 q 290 1317 250 1316 q 363 1312 330 1317 q 425 1286 402 1305 q 460 1214 460 1256 l 460 707 l 563 587 l 642 629 l 642 1335 m 677 608 l 677 315 l 794 243 l 794 669 l 677 608 z "},"":{"ha":1300,"x_min":-20,"x_max":1238,"o":"m 381 -34 q 259 59 313 43 q 134 68 205 75 q 46 -7 60 62 q 73 -120 33 -77 q 169 -163 104 -153 q 309 -174 233 -174 q 424 -169 367 -174 q 524 -135 481 -163 q 569 -70 555 -113 q 580 16 583 -27 l 597 18 q 524 -197 613 -99 q 317 -288 435 -294 q 155 -244 236 -283 q 37 -130 73 -204 q 39 121 -20 -15 q 207 290 98 256 q 331 304 280 311 q 438 268 381 298 l 438 494 l 276 405 q 60 569 142 432 l 66 1061 q 282 1163 172 1097 q 499 1344 391 1229 q 515 1344 509 1359 q 633 1206 560 1210 q 712 1311 706 1202 q 719 1313 712 1315 q 726 1308 726 1312 q 679 1122 726 1194 q 568 1032 632 1050 q 473 1038 519 1019 l 473 594 q 525 564 496 578 l 525 936 q 1041 1297 795 1099 l 1230 1053 l 1238 556 q 1086 463 1161 512 q 938 361 1011 414 l 817 452 l 817 266 q 560 158 667 236 q 381 -34 454 81 m 817 1078 l 817 517 l 938 422 l 938 996 l 817 1078 m 438 618 l 438 1058 q 387 1103 394 1087 q 355 1162 379 1120 l 352 700 q 438 618 386 656 m 473 513 l 473 249 q 525 199 494 236 l 525 542 l 473 513 z "},"":{"ha":1263,"x_min":-27,"x_max":1203,"o":"m 923 1331 l 936 1324 l 938 1331 q 944 1335 939 1335 q 952 1331 950 1335 q 1010 1239 977 1264 q 1076 1208 1043 1215 q 1134 1213 1108 1202 q 1163 1278 1160 1223 q 1171 1280 1163 1282 q 1178 1275 1178 1279 q 1139 1083 1179 1160 q 1029 989 1099 1006 q 861 1041 940 966 l 787 822 l 1025 822 l 1050 888 l 1069 883 l 984 643 l 784 643 q 823 439 791 541 q 941 290 855 338 q 1082 273 1041 235 q 1181 380 1122 310 l 1203 379 l 938 42 l 913 6 q 729 95 800 42 q 617 216 659 147 q 563 347 581 275 q 536 500 545 418 q 430 249 488 368 q 303 26 372 130 q 175 116 236 106 q 75 98 113 127 q 31 17 37 69 q 69 -84 25 -36 q 169 -131 102 -119 q 314 -143 236 -143 q 441 -137 374 -143 q 552 -100 508 -131 q 598 -34 584 -77 q 609 58 613 9 l 627 59 q 545 -171 644 -68 q 323 -267 445 -273 q 154 -219 239 -262 q 32 -95 70 -176 q 30 181 -27 31 q 198 368 86 331 q 325 373 263 388 q 437 325 386 357 l 530 584 q 527 643 528 621 l 309 643 l 271 528 l 253 538 l 321 822 l 521 822 l 515 1001 q 497 1029 506 1022 q 462 1036 488 1037 q 330 1033 403 1034 q 238 1040 256 1031 q 177 1079 201 1056 q 145 1171 152 1102 q 134 1250 141 1204 q 128 1339 127 1296 q 138 1346 128 1348 q 149 1337 149 1343 q 160 1306 150 1329 q 192 1282 170 1282 q 360 1289 273 1278 q 532 1304 447 1300 q 684 1297 616 1308 q 745 1272 724 1290 q 781 1199 781 1242 l 781 911 l 923 1331 z "},"":{"ha":1159,"x_min":-23,"x_max":1104,"o":"m 481 1194 l 481 401 q 346 402 406 404 q 242 384 287 400 q 165 337 202 370 q 206 354 183 347 q 389 361 313 385 q 565 272 465 337 l 565 1074 q 701 1193 635 1135 q 834 1316 766 1251 q 852 1317 844 1324 l 961 1205 q 981 1176 980 1185 q 983 1152 983 1167 l 983 354 q 1035 288 983 333 q 1097 252 1088 243 l 1104 210 q 1059 160 1092 199 q 990 80 1026 121 q 925 5 955 38 q 890 -29 895 -28 l 885 -34 q 1012 -62 966 -22 q 1061 -166 1058 -103 q 1028 -283 1063 -221 q 918 -391 994 -345 q 904 -392 913 -393 q 896 -380 895 -391 q 879 -285 897 -318 q 831 -235 861 -252 q 769 -216 804 -221 q 699 -208 735 -212 l 868 -19 q 725 138 808 70 q 694 165 710 150 q 661 192 679 180 l 456 -8 q 297 101 377 75 q 135 121 216 127 q 38 34 51 114 q 72 -92 25 -45 q 171 -145 103 -123 q 318 -172 239 -166 q 477 -166 397 -178 q 612 -118 557 -154 q 662 -43 647 -95 q 672 57 676 9 l 692 53 q 608 -190 710 -74 q 371 -298 505 -305 q 185 -252 278 -294 q 49 -130 92 -210 q 33 164 -23 8 q 214 395 88 321 l 214 632 l 125 637 q 68 618 91 638 q 39 537 45 599 l 26 538 l 26 689 q 40 780 26 724 q 164 836 54 836 l 214 836 l 214 1004 q 195 1026 208 1026 q 76 1035 109 1020 q 18 1079 39 1051 q -5 1174 -3 1107 q -3 1245 -6 1206 q -1 1327 -1 1284 q 9 1334 -1 1337 q 19 1325 18 1331 q 20 1308 20 1317 q 30 1295 20 1299 q 124 1288 56 1282 q 243 1295 192 1293 q 311 1297 271 1297 q 384 1293 351 1298 q 446 1267 424 1285 q 481 1194 481 1237 m 673 1124 l 599 1059 l 599 249 l 599 239 q 613 227 606 233 q 629 215 621 220 l 705 284 q 707 312 707 295 l 707 1047 q 673 1124 707 1105 z "},"":{"ha":1163,"x_min":0,"x_max":1108,"o":"m 571 1246 l 606 1246 l 606 661 l 685 710 l 685 1173 l 977 1333 l 977 536 q 832 458 911 499 q 705 357 754 417 q 869 318 793 358 q 1017 214 945 277 l 848 -11 q 697 82 758 49 q 556 109 637 115 q 438 24 472 102 q 452 -101 405 -54 q 556 -152 483 -132 q 715 -176 629 -172 q 884 -163 801 -179 q 1020 -106 968 -147 q 1084 40 1071 -66 l 1103 36 q 1002 -190 1108 -83 q 774 -298 896 -298 q 568 -258 680 -298 q 414 -136 456 -217 q 409 125 353 -20 q 571 327 464 271 l 571 597 l 427 506 q 379 515 399 489 q 293 609 340 563 q 229 672 245 655 l 131 672 q 73 646 96 672 q 52 557 50 619 l 39 558 l 39 751 q 73 848 39 814 q 148 882 108 882 l 229 882 l 229 1020 q 136 1016 185 1016 q 63 1027 86 1016 q 15 1069 26 1044 q 1 1161 3 1095 q 1 1314 0 1219 q 11 1321 1 1324 q 22 1312 20 1318 q 37 1282 23 1288 q 135 1277 62 1270 q 258 1289 207 1285 q 326 1285 286 1289 q 399 1275 366 1280 q 460 1250 439 1267 q 496 1177 496 1219 l 496 772 l 571 683 l 571 1246 m 606 619 l 606 341 q 609 342 608 342 q 685 356 645 353 l 685 669 l 606 619 z "},"":{"ha":1671,"x_min":-35,"x_max":1592,"o":"m 469 1227 l 469 435 q 335 435 394 437 q 231 417 276 433 q 153 370 191 402 q 195 387 174 381 q 370 389 292 415 q 536 307 448 362 l 553 297 l 553 1112 l 758 1287 q 789 1317 772 1301 q 823 1349 805 1332 q 841 1350 833 1358 l 949 1238 q 970 1209 969 1218 q 971 1185 971 1200 l 971 337 q 986 306 971 321 q 1021 276 1002 292 q 1061 243 1048 251 l 1061 1096 l 1175 1197 q 1244 1261 1202 1223 q 1339 1349 1286 1299 q 1356 1350 1346 1356 q 1422 1250 1381 1333 q 1550 1131 1463 1168 q 1552 1114 1571 1123 q 1491 1074 1512 1094 q 1470 1015 1470 1055 l 1470 378 q 1470 332 1470 361 q 1477 285 1470 302 q 1512 247 1489 252 q 1546 254 1535 243 l 1574 284 l 1592 271 q 1470 142 1527 208 q 1349 14 1413 76 q 1339 12 1344 13 q 1331 12 1335 12 q 1240 92 1286 47 q 1194 165 1194 136 l 1194 313 q 1040 157 1119 235 q 882 4 962 80 q 863 2 876 3 q 714 171 804 97 q 683 198 699 183 q 650 225 667 213 l 444 24 q 285 134 366 108 q 123 153 205 159 q 26 67 39 146 q 60 -59 14 -13 q 159 -112 92 -90 q 307 -140 227 -134 q 466 -133 386 -146 q 601 -85 545 -121 q 650 -11 636 -62 q 661 90 665 41 l 680 86 q 596 -156 699 -41 q 359 -266 494 -272 q 173 -219 267 -260 q 38 -97 80 -178 q 21 198 -35 41 q 203 428 77 354 l 203 665 l 85 670 q 34 651 50 671 q 11 570 17 631 l -1 571 l -1 722 q 22 812 -1 757 q 157 868 46 868 l 203 868 l 203 1036 q 166 1058 194 1059 q 65 1068 95 1053 q 7 1112 28 1084 q -17 1206 -15 1140 q -15 1278 -17 1239 q -12 1360 -12 1317 q -2 1367 -12 1369 q 8 1358 7 1364 q 18 1328 12 1331 q 112 1321 44 1316 q 232 1329 180 1326 q 300 1330 260 1330 q 373 1325 340 1331 q 434 1300 412 1318 q 469 1227 469 1270 m 1194 342 l 1194 1080 l 1149 1127 l 1097 1081 l 1097 246 q 1145 294 1121 271 q 1194 342 1170 317 m 587 271 q 602 259 595 267 q 618 247 610 252 l 694 317 q 696 345 696 330 l 696 1080 q 662 1156 696 1138 l 587 1092 l 587 282 l 587 271 z "},"":{"ha":1696,"x_min":-10,"x_max":1615,"o":"m 494 1227 l 494 435 q 359 435 418 437 q 255 417 300 433 q 178 370 214 402 q 218 387 199 382 q 394 389 315 415 q 559 307 472 362 l 576 297 l 576 1112 l 782 1287 q 812 1317 796 1301 q 847 1349 829 1332 q 865 1350 857 1358 l 973 1238 q 994 1209 993 1218 q 995 1185 995 1200 l 995 337 q 1010 306 995 321 q 1044 276 1026 292 q 1084 243 1069 253 l 1084 1096 l 1199 1197 q 1267 1261 1225 1223 q 1362 1349 1310 1299 q 1380 1350 1371 1357 q 1446 1250 1404 1333 q 1573 1131 1487 1168 q 1576 1114 1595 1123 q 1515 1074 1536 1094 q 1493 1015 1493 1055 l 1493 378 q 1493 332 1493 361 q 1501 285 1493 302 q 1536 247 1514 252 q 1570 254 1559 243 l 1598 284 l 1615 271 l 1363 -1 q 1491 -29 1444 10 q 1541 -131 1538 -68 q 1507 -249 1543 -186 q 1395 -358 1472 -311 q 1382 -359 1392 -360 q 1373 -347 1373 -357 q 1326 -213 1375 -251 q 1272 -188 1303 -195 q 1206 -178 1240 -181 q 1198 -175 1198 -177 q 1192 -173 1199 -173 l 1194 -155 l 1348 16 q 1261 94 1305 52 q 1218 165 1218 137 l 1218 313 q 1064 157 1143 235 q 906 4 985 80 q 897 3 901 3 q 888 2 892 2 q 738 171 829 96 q 707 198 723 183 q 673 225 692 213 l 468 24 q 310 134 390 108 q 147 153 229 159 q 50 67 63 146 q 84 -59 37 -13 q 183 -112 116 -90 q 331 -140 251 -134 q 490 -133 410 -146 q 625 -85 569 -121 q 674 -11 660 -62 q 684 90 688 41 l 705 86 q 620 -156 723 -41 q 383 -266 517 -272 q 197 -219 290 -260 q 62 -97 104 -178 q 45 198 -10 41 q 227 428 100 354 l 227 665 l 109 670 q 57 651 74 671 q 35 570 41 631 l 22 571 l 22 722 q 46 812 22 757 q 180 868 71 868 l 227 868 l 227 1027 q 190 1058 227 1059 q 89 1068 115 1055 q 30 1112 52 1084 q 6 1206 7 1140 q 8 1278 5 1239 q 12 1360 10 1317 q 21 1367 12 1369 q 32 1358 31 1364 q 42 1328 35 1331 q 136 1321 68 1316 q 256 1329 204 1326 q 324 1330 284 1330 q 397 1325 364 1331 q 458 1300 436 1318 q 494 1227 494 1269 m 1218 342 l 1218 1080 l 1173 1127 l 1120 1081 l 1120 246 q 1170 294 1145 271 q 1218 342 1194 317 m 611 271 q 626 259 618 267 q 642 247 633 252 l 718 317 q 720 345 720 334 l 720 1080 q 686 1156 720 1137 l 611 1092 l 611 282 l 611 271 z "},"":{"ha":1297,"x_min":-50,"x_max":1235,"o":"m 629 1114 q 635 1101 635 1113 q 639 711 636 1100 q 746 715 736 714 q 748 715 755 715 q 754 713 741 714 q 873 711 768 711 q 1149 551 1077 710 q 1235 228 1221 393 q 1068 201 1174 233 q 897 145 963 170 q 791 90 846 126 q 674 3 737 54 q 485 125 585 87 q 293 157 386 163 q 192 48 197 150 q 240 -100 187 -54 q 364 -153 281 -136 q 549 -172 447 -170 q 695 -165 625 -173 q 821 -129 766 -157 q 902 -51 869 -104 q 939 73 935 3 l 954 65 q 869 -179 976 -62 q 555 -298 763 -296 q 345 -253 430 -299 q 212 -126 259 -207 q 160 75 157 -35 q 224 281 164 185 q 368 420 279 367 l 368 648 l 287 648 q 230 622 253 648 q 208 533 206 595 l 195 534 l 195 728 q 230 824 195 790 q 304 858 264 858 l 372 858 l 359 1166 q 355 1166 357 1166 q 351 1166 353 1166 q 245 1059 308 1087 q 123 1046 183 1031 q 1 1136 52 1064 q -50 1322 -50 1207 q -43 1327 -50 1325 q -35 1324 -35 1329 q 60 1220 -28 1216 q 198 1358 149 1223 q 216 1358 204 1371 q 393 1184 329 1222 q 629 1114 458 1146 m 639 683 l 639 424 q 505 425 564 427 q 401 406 446 422 q 372 389 387 401 q 382 388 362 383 q 413 394 401 392 q 724 349 559 423 l 724 683 l 639 683 m 759 683 l 759 332 q 819 300 802 312 q 924 226 835 289 q 915 342 920 269 q 893 490 909 416 q 846 619 877 563 q 759 683 814 675 z "},"":{"ha":1133,"x_min":2,"x_max":1079,"o":"m 518 3 q 330 125 429 87 q 137 157 230 163 q 37 48 42 150 q 85 -100 31 -54 q 208 -153 125 -136 q 394 -172 291 -170 q 540 -165 469 -173 q 666 -129 611 -157 q 747 -51 713 -104 q 783 73 780 3 l 799 65 q 714 -179 820 -62 q 399 -298 608 -296 q 189 -253 274 -299 q 56 -126 104 -207 q 6 75 2 -35 q 69 281 9 185 q 212 420 123 367 l 212 648 l 132 648 q 74 622 97 648 q 52 533 50 595 l 40 534 l 40 728 q 75 824 40 790 q 149 858 109 858 l 217 858 l 217 1050 q 138 1046 173 1046 q 79 1057 102 1046 q 31 1099 43 1074 q 18 1191 19 1124 q 17 1344 16 1249 q 27 1351 17 1354 q 38 1342 37 1348 q 53 1312 41 1317 q 137 1307 79 1299 q 245 1318 195 1315 q 314 1320 274 1319 q 387 1315 354 1320 q 448 1290 427 1307 q 484 1217 484 1259 l 484 684 q 528 684 507 685 q 568 684 549 682 l 568 1077 q 679 1101 612 1077 q 816 1159 747 1126 q 945 1229 885 1193 q 1036 1289 1006 1265 q 1049 1291 1040 1292 q 1058 1271 1059 1289 l 1058 654 q 919 742 991 705 q 766 787 848 779 l 766 1090 q 604 1042 688 1055 l 604 684 q 606 684 605 684 q 670 684 643 684 q 718 684 698 684 q 993 538 922 683 q 1079 228 1065 393 q 913 201 1018 233 q 741 145 808 170 q 635 90 690 126 q 518 3 581 54 m 484 656 l 484 424 q 349 425 408 427 q 245 406 290 422 q 225 397 233 402 q 216 389 218 391 q 226 388 207 383 q 257 394 245 392 q 568 349 404 424 l 568 656 l 484 656 m 604 656 l 604 332 q 663 300 647 312 q 769 226 680 289 q 759 338 765 269 q 738 476 753 408 q 690 596 722 545 q 604 656 659 648 z "},"":{"ha":1131,"x_min":0,"x_max":1077,"o":"m 517 3 q 328 125 427 87 q 136 157 228 163 q 35 48 40 150 q 83 -100 30 -54 q 207 -153 123 -136 q 392 -172 290 -170 q 538 -165 467 -173 q 664 -129 609 -157 q 745 -51 711 -104 q 781 73 778 3 l 797 65 q 712 -179 818 -62 q 397 -298 606 -296 q 187 -253 272 -299 q 54 -126 102 -207 q 4 75 0 -35 q 67 281 7 185 q 210 420 121 367 l 210 648 l 130 648 q 72 622 96 648 q 50 533 49 595 l 38 534 l 38 728 q 73 824 38 790 q 147 858 107 858 l 215 858 l 215 1050 q 136 1046 171 1046 q 77 1057 101 1046 q 29 1099 41 1074 q 16 1191 17 1124 q 16 1344 13 1257 q 25 1351 16 1354 q 36 1342 35 1348 q 52 1312 39 1317 q 135 1307 77 1299 q 244 1318 193 1315 q 313 1320 273 1319 q 385 1315 353 1320 q 446 1290 425 1308 q 481 1217 481 1259 l 481 711 q 589 715 579 714 q 591 715 598 715 q 597 713 584 714 q 716 711 610 711 q 991 551 920 710 q 1077 228 1063 393 q 911 201 1016 233 q 740 145 806 170 q 634 90 688 126 q 517 3 580 54 m 481 683 l 481 424 q 347 425 406 427 q 243 406 288 422 q 214 389 230 401 q 224 388 205 383 q 256 394 243 392 q 566 349 402 423 l 566 683 l 481 683 m 602 683 l 602 332 q 661 300 645 312 q 767 226 677 289 q 757 342 763 269 q 735 490 751 416 q 688 619 720 563 q 602 683 657 675 z "},"":{"ha":1048,"x_min":-28,"x_max":998,"o":"m 503 -3 q 337 118 413 81 q 168 149 260 155 q 47 57 72 142 q 76 -75 23 -28 q 208 -129 117 -111 q 401 -150 298 -148 q 542 -143 488 -151 q 644 -104 595 -134 q 728 -30 687 -78 q 760 110 768 18 l 782 106 q 680 -149 804 -21 q 403 -270 555 -276 q 196 -232 297 -265 q 46 -117 94 -198 q 12 152 -28 8 q 216 347 51 296 q 507 348 355 389 l 507 578 q 356 618 421 580 q 275 712 292 656 q 276 731 273 720 q 288 743 279 743 q 409 752 381 737 q 507 794 437 768 l 507 1042 q 443 1036 474 1039 q 242 1018 340 1025 q 106 1029 144 1010 q 37 1081 69 1045 q 3 1184 5 1117 q 4 1255 2 1217 q 8 1337 7 1294 q 18 1344 8 1346 q 28 1335 28 1341 q 57 1301 31 1312 q 145 1283 83 1289 q 260 1280 208 1278 q 347 1286 274 1281 q 506 1296 420 1291 q 667 1304 592 1301 q 758 1305 741 1308 q 825 1281 776 1301 q 903 1236 874 1260 q 961 1168 924 1216 q 998 1060 998 1121 l 991 220 q 724 212 829 241 q 600 138 652 191 q 503 -3 548 85 m 542 799 q 632 736 604 748 q 715 720 661 724 l 717 878 q 706 946 717 903 q 667 1018 696 989 q 609 1044 644 1040 q 553 1047 574 1049 q 542 1046 550 1047 l 542 799 m 715 646 q 632 602 679 621 q 542 578 586 583 l 542 337 q 713 253 626 307 l 715 646 z "},"":{"ha":1953,"x_min":-31,"x_max":1860,"o":"m 1455 932 l 1455 66 q 1521 232 1493 129 q 1555 605 1572 425 q 1455 932 1538 785 m 688 211 l 465 -8 q 306 101 386 75 q 144 121 225 127 q 47 35 60 114 q 81 -92 34 -45 q 180 -144 112 -123 q 327 -172 248 -166 q 486 -166 406 -178 q 621 -118 566 -153 q 671 -43 656 -94 q 681 57 685 9 l 701 54 q 616 -189 719 -73 q 380 -298 514 -304 q 194 -252 287 -293 q 58 -130 100 -210 q 36 172 -31 27 q 260 405 104 317 l 260 642 l 186 648 q 128 629 151 650 q 99 547 105 608 l 86 548 l 86 699 q 98 789 86 734 q 220 845 110 845 l 260 845 l 260 1037 q 181 1033 216 1034 q 123 1044 146 1033 q 64 1089 86 1061 q 40 1183 41 1117 q 42 1255 39 1216 q 45 1337 44 1293 q 55 1344 45 1346 q 66 1335 64 1341 q 66 1318 66 1327 q 76 1304 66 1308 q 170 1297 102 1292 q 290 1305 238 1303 q 358 1307 318 1307 q 431 1302 398 1308 q 492 1277 470 1295 q 527 1204 527 1246 l 527 412 q 393 412 452 414 q 289 394 334 410 q 223 357 252 380 q 432 340 339 387 q 642 216 525 292 l 671 244 q 596 576 596 392 q 678 916 596 755 q 894 1171 760 1076 q 999 1224 943 1204 q 1112 1256 1055 1243 q 1121 1250 1122 1258 q 1116 1240 1120 1241 q 1044 1206 1088 1234 q 982 1141 1001 1179 q 944 1033 958 1095 q 922 900 930 970 l 1554 1246 q 1773 935 1706 1085 q 1849 655 1839 785 q 1804 354 1860 486 q 1683 142 1747 222 q 1566 35 1644 93 q 1407 -58 1488 -23 q 1172 -95 1295 -103 q 791 77 954 -81 q 688 211 732 135 m 1420 19 l 1420 987 q 1333 1088 1379 1043 l 1318 1080 l 1314 250 l 947 125 q 986 49 960 82 q 1095 -38 1029 -6 q 1233 -66 1161 -71 q 1420 19 1350 -58 m 919 862 q 912 715 913 790 q 914 568 912 640 q 922 321 919 420 q 939 157 924 223 l 1025 188 l 1025 920 l 919 862 z "},"":{"ha":1312,"x_min":-22,"x_max":1249,"o":"m 799 1036 q 817 1091 799 1063 q 923 1188 852 1143 q 1037 1276 995 1232 q 1066 1297 1058 1298 q 1074 1248 1074 1296 l 1074 321 q 1086 250 1074 277 q 1129 203 1099 216 q 1171 201 1160 190 l 1232 261 l 1249 248 q 1120 122 1184 184 q 990 -1 1055 60 l 972 -3 l 799 160 l 799 1036 m 637 1074 l 637 220 l 434 14 q 284 114 344 74 q 142 149 224 155 q 39 63 58 142 q 66 -62 19 -15 q 163 -117 98 -93 q 304 -151 228 -142 q 455 -148 380 -159 q 583 -96 531 -136 q 619 -35 612 -72 q 632 51 626 3 l 652 47 q 569 -172 656 -71 q 360 -273 482 -273 q 176 -228 267 -273 q 43 -102 86 -182 q 15 182 -22 23 q 176 377 52 340 q 229 388 209 385 l 239 512 q 266 622 241 547 q 383 710 291 696 q 383 714 395 712 q 216 792 256 743 q 178 935 176 841 l 181 1088 q 189 1101 181 1092 q 380 1179 294 1128 q 582 1353 490 1243 q 600 1353 594 1367 q 662 1271 623 1298 q 741 1240 701 1243 q 822 1261 786 1236 q 863 1336 859 1286 q 870 1338 863 1339 q 878 1333 878 1337 q 795 1144 878 1215 q 637 1074 732 1088 m 262 390 q 428 347 350 391 q 602 240 507 302 l 602 698 q 519 655 537 692 q 502 580 502 619 l 502 480 q 262 390 372 456 m 602 747 l 602 1071 q 461 1141 511 1068 q 472 904 460 1034 q 602 747 483 774 z "},"":{"ha":890,"x_min":60,"x_max":848,"o":"m 309 278 l 388 213 l 452 277 l 448 640 l 309 779 l 309 278 m 453 242 l 223 -3 l 66 146 l 60 827 q 283 869 193 833 q 477 986 387 909 l 671 809 q 723 800 702 781 q 781 842 745 819 q 788 839 784 844 q 789 831 791 833 q 729 763 761 804 q 696 655 696 722 l 696 245 l 777 174 l 832 224 l 848 206 l 612 -3 l 454 146 l 453 242 z "},"":{"ha":859,"x_min":-18,"x_max":819,"o":"m 58 1409 q 179 1426 122 1418 q 287 1451 236 1433 q 372 1497 331 1468 q 452 1580 413 1527 q 459 1582 452 1581 q 467 1581 467 1582 q 582 1460 524 1478 q 704 1473 639 1442 q 471 1307 598 1302 q 300 1430 368 1310 l 300 1152 l 300 1152 l 300 726 l 555 981 l 641 885 q 688 843 665 862 q 730 827 711 823 q 770 845 753 832 q 808 869 787 857 q 814 866 810 871 q 817 859 819 861 q 757 793 787 832 q 726 687 726 754 l 726 145 q 602 138 658 141 q 499 114 546 134 q 395 66 448 92 q 299 -4 341 39 l 165 123 q 74 174 107 172 q -7 145 42 175 q -14 148 -9 143 q -16 155 -18 153 q 39 196 13 182 q 64 278 64 211 l 58 1409 m 484 146 l 484 699 l 399 776 l 307 686 l 307 323 l 484 146 z "},"":{"ha":854,"x_min":-22,"x_max":814,"o":"m 722 152 q 597 144 653 148 q 494 121 541 141 q 390 72 444 98 q 294 2 336 45 l 161 130 q 69 180 102 178 q -12 152 35 181 q -18 155 -14 150 q -20 162 -22 160 q 34 203 8 189 q 60 285 60 218 l 60 1415 q 285 1463 198 1433 q 494 1562 372 1493 l 722 1243 l 296 958 l 296 732 l 551 987 l 636 891 q 684 849 661 868 q 725 833 707 829 q 766 851 749 838 q 804 876 783 864 q 810 873 806 878 q 812 866 814 868 q 752 800 783 839 q 722 694 722 761 l 722 152 m 296 1158 l 296 1008 l 508 1148 q 398 1295 467 1213 q 296 1436 329 1377 l 296 1158 m 479 153 l 479 705 l 394 783 l 302 693 l 302 330 l 479 153 z "},"":{"ha":679,"x_min":-14,"x_max":647,"o":"m 222 833 l 8 707 l -13 736 l 409 991 l 475 932 q 550 874 526 889 q 637 895 574 860 q 643 892 639 897 q 645 886 647 888 q 588 832 616 861 q 559 741 559 804 l 559 593 l 315 478 l 315 232 l 410 161 l 624 288 l 646 258 l 224 3 l 157 62 q 83 120 106 105 q -4 100 59 134 q -10 102 -6 98 q -12 109 -14 107 q 44 162 16 134 q 73 254 73 191 l 73 401 l 317 517 l 317 763 l 222 833 z "},"":{"ha":878,"x_min":-5,"x_max":836,"o":"m 740 151 q 615 143 671 146 q 512 119 559 140 q 408 71 461 98 q 312 1 354 45 l 178 129 q 129 176 150 152 q 87 201 109 200 q 5 172 56 202 q -1 175 2 170 q -3 182 -5 180 q 52 223 26 209 q 77 305 77 238 l 77 783 l 319 783 l 319 329 l 497 151 l 497 669 l 44 1018 l 32 1334 l 649 864 q 737 805 718 811 q 826 842 757 800 q 832 839 828 844 q 834 831 836 833 q 772 782 805 804 q 740 693 740 760 l 740 151 z "},"":{"ha":724,"x_min":-7,"x_max":690,"o":"m 317 476 l 319 343 l 497 221 l 615 370 l 632 352 l 378 10 l 178 142 q 103 174 156 157 q 3 138 50 191 q -3 140 1 135 q -5 148 -7 145 q 43 206 16 180 q 70 294 70 231 l 70 884 q 301 905 195 888 q 494 987 408 922 l 690 677 l 317 476 m 464 585 l 313 856 l 317 509 l 464 585 z "},"":{"ha":1426,"x_min":-20,"x_max":1358,"o":"m 549 1286 l 791 1345 l 791 500 l 873 502 q 938 543 912 502 q 964 633 964 584 q 963 733 964 683 q 962 834 962 784 l 1104 969 q 1157 966 1132 996 l 1343 747 q 1335 738 1346 749 q 1321 724 1323 726 l 1270 780 q 1240 778 1259 790 q 1206 752 1221 765 q 1179 726 1190 739 q 1168 690 1168 713 q 1172 611 1168 655 q 1113 532 1175 567 q 1080 514 1087 517 q 1010 499 1073 511 q 1003 495 1004 498 q 1008 492 1002 492 q 1122 482 1093 490 q 1177 453 1151 474 q 1214 357 1217 418 q 1217 256 1211 295 l 1286 185 l 1342 235 l 1358 217 l 1122 7 l 964 157 l 964 369 q 939 446 964 414 q 880 479 914 478 l 791 479 l 791 264 q 821 215 791 236 q 885 185 850 195 q 885 172 902 178 q 774 116 808 136 q 685 -14 741 96 q 673 -14 680 -26 q 580 111 614 91 q 469 172 545 132 q 469 182 456 179 q 523 210 498 186 q 549 263 549 235 l 549 478 l 547 479 l 458 479 q 399 446 424 478 q 374 369 374 414 l 374 157 l 216 7 l -20 217 l -3 235 l 52 185 l 121 256 q 123 357 127 295 q 161 453 120 418 q 215 482 186 474 q 329 492 244 490 q 335 495 336 492 q 328 499 334 498 q 257 514 264 511 q 224 532 250 517 q 166 611 161 567 q 170 690 170 655 q 159 726 170 713 q 132 752 147 739 q 97 778 116 765 q 68 780 78 790 l 16 724 q 3 738 14 726 q -5 747 -7 749 l 181 966 q 233 969 206 996 l 376 834 q 375 733 376 784 q 374 633 374 683 q 399 543 374 584 q 464 502 425 502 l 547 500 l 549 500 l 549 1286 z "},"":{"ha":594,"x_min":-14,"x_max":566,"o":"m 39 774 l 299 982 l 446 867 q 490 855 465 848 q 555 884 515 862 q 562 881 558 886 q 564 874 566 876 q 498 828 532 847 q 463 742 463 809 q 466 648 463 707 q 418 568 469 589 q 365 554 389 553 q 281 553 340 556 q 269 547 274 551 q 273 542 264 542 q 391 529 364 540 q 447 497 418 517 q 527 351 516 447 q 502 176 538 254 q 429 91 476 122 q 330 47 382 59 q 119 -35 199 16 q 69 -148 40 -86 q 106 -202 85 -182 q 166 -217 127 -222 q 241 -183 207 -211 q 274 -118 276 -155 q 267 -78 273 -101 q 231 -46 262 -55 q 233 -38 228 -45 q 243 -33 239 -32 q 313 -125 295 -64 q 251 -267 338 -216 q 101 -272 182 -305 q 3 -168 20 -239 q 16 -41 -14 -93 q 93 51 46 10 q 188 129 140 92 q 253 212 236 166 q 270 357 275 275 q 241 490 264 439 q 112 516 213 549 q 86 508 100 512 q 61 510 71 504 q 50 531 49 516 q 66 546 52 546 l 108 545 q 176 560 150 546 q 201 623 201 574 l 201 744 l 119 810 l 52 759 l 39 774 z "},"":{"ha":975,"x_min":-22,"x_max":929,"o":"m 786 257 l 867 186 l 912 231 l 929 215 l 709 -3 l 544 145 l 544 254 l 273 -2 l 135 132 q 95 137 118 151 q 35 102 71 124 q 28 105 32 100 q 27 113 24 110 q 92 162 56 139 q 128 253 128 186 l 128 704 l 62 783 l -6 725 l -22 743 l 214 952 l 371 803 l 371 248 l 439 187 l 544 286 l 544 695 q 520 754 544 724 q 463 795 496 785 q 459 802 459 796 q 463 809 460 808 l 620 985 q 632 985 626 995 l 756 859 q 883 876 794 819 q 886 866 885 874 q 885 859 888 859 q 819 802 852 838 q 786 741 785 765 l 786 257 z "},"":{"ha":976,"x_min":-22,"x_max":930,"o":"m 787 257 l 867 186 l 913 231 l 930 215 l 710 -3 l 545 145 l 545 254 l 273 -2 l 136 132 q 96 137 119 151 q 36 102 73 124 q 29 105 33 100 q 28 113 25 110 q 93 162 56 139 q 129 253 129 186 l 129 704 l 63 783 l -5 725 l -22 743 l 214 952 l 372 803 l 372 248 l 440 187 l 545 286 l 545 695 q 521 754 545 724 q 463 795 497 785 q 460 802 460 796 q 463 809 460 808 l 621 985 q 633 985 627 995 l 757 859 q 884 876 795 819 q 887 866 886 874 q 886 859 888 859 q 819 802 852 838 q 787 741 786 765 l 787 257 m 279 1047 l 455 1142 q 492 1055 441 1081 q 589 1109 543 1029 q 594 1107 590 1111 q 597 1101 598 1103 q 414 938 514 943 q 279 1047 315 933 z "},"":{"ha":917,"x_min":-27,"x_max":873,"o":"m 64 1274 l 307 1332 l 307 727 l 578 983 l 716 830 q 756 819 732 811 q 816 848 779 826 q 822 845 819 850 q 824 838 826 840 q 759 782 795 811 q 723 686 723 753 q 727 607 723 651 q 669 528 730 563 q 589 506 642 513 q 474 486 536 498 q 466 482 467 485 q 473 479 465 479 q 692 440 652 473 q 730 344 733 406 q 732 243 726 282 l 802 173 l 858 222 l 873 204 l 637 -5 l 480 144 l 480 356 q 455 433 480 401 q 395 466 430 465 l 307 467 l 307 252 q 337 203 307 224 q 401 172 366 182 q 403 166 404 172 q 401 159 403 160 q 290 103 323 123 q 201 -27 257 83 q 189 -27 196 -36 q 96 98 130 78 q -14 159 61 119 q -14 169 -27 166 q 39 197 14 173 q 64 250 64 222 l 64 1274 m 307 694 l 307 487 l 389 489 q 454 531 428 490 q 480 620 480 572 l 480 732 l 412 793 l 307 694 z "},"":{"ha":924,"x_min":-246,"x_max":881,"o":"m 362 125 q 245 43 289 74 q 168 -21 201 12 q 100 -102 134 -54 q 13 -234 66 -149 q -29 -207 7 -216 q -106 -199 -64 -197 q -183 -213 -148 -200 q -225 -252 -219 -226 q -234 -261 -225 -256 q -242 -262 -242 -267 q -212 -155 -246 -209 q -123 -61 -177 -100 q -6 -4 -69 -21 q 112 -9 58 12 l 106 743 q 322 820 224 773 q 532 982 420 866 l 723 806 q 823 825 748 779 q 829 821 825 826 q 831 814 833 817 q 766 759 802 787 q 730 663 730 730 l 730 253 l 810 182 l 865 231 l 881 214 l 645 4 l 488 154 l 488 675 l 362 781 l 362 125 z "},"":{"ha":1407,"x_min":-208,"x_max":1340,"o":"m 401 149 q 284 66 328 98 q 206 2 240 35 q 138 -79 172 -31 q 52 -211 104 -127 q 9 -183 45 -193 q -68 -176 -26 -174 q -145 -190 -110 -177 q -187 -229 -181 -202 q -195 -238 -187 -233 q -203 -239 -203 -243 q -173 -131 -208 -185 q -85 -38 -139 -77 q 33 18 -31 1 q 151 14 96 35 l 144 766 q 361 843 263 796 q 570 1005 458 889 l 773 824 l 987 1010 l 1182 829 q 1222 818 1198 810 q 1282 848 1245 825 q 1288 844 1284 849 q 1290 838 1292 840 q 1225 782 1261 810 q 1189 686 1189 753 l 1189 276 l 1268 205 l 1324 254 l 1340 237 l 1103 28 l 946 177 l 946 707 l 825 806 l 773 758 l 773 285 q 803 236 773 256 q 867 205 832 215 q 869 198 869 204 q 867 192 869 193 q 756 136 789 156 q 667 5 723 115 q 655 5 661 -5 q 562 132 596 111 q 451 192 528 152 q 451 202 434 199 q 505 231 480 206 q 530 283 530 255 l 530 694 l 401 804 l 401 149 z "},"":{"ha":1111,"x_min":-27,"x_max":1058,"o":"m 115 703 l 35 773 l -10 728 l -27 745 l 192 964 l 357 814 l 357 264 q 387 215 357 236 q 451 184 416 195 q 454 178 454 184 q 451 172 454 172 q 340 116 374 136 q 252 -14 307 96 q 239 -14 245 -24 q 146 111 180 91 q 35 172 112 132 q 35 182 18 178 q 90 210 64 186 q 115 263 115 235 l 115 703 m 363 495 q 501 633 450 543 q 516 633 510 649 q 654 495 551 542 q 654 480 667 488 q 516 342 553 401 q 501 342 510 330 q 363 480 430 428 q 363 495 351 488 m 581 785 l 770 962 q 795 965 783 975 l 897 871 q 923 848 910 859 q 987 827 937 838 q 994 824 989 829 q 996 817 998 819 q 937 763 966 790 q 907 682 907 736 l 907 256 l 987 185 l 1042 234 l 1058 216 l 821 7 l 665 157 l 665 711 l 581 785 z "},"":{"ha":878,"x_min":-4,"x_max":837,"o":"m 733 189 q 506 142 597 181 q 326 12 412 102 l 179 139 q 131 178 153 161 q 91 191 109 195 q 46 173 66 186 q 5 148 26 160 q -1 151 3 146 q -2 158 -4 156 q 52 206 26 184 q 77 294 77 227 l 77 811 q 304 859 196 812 q 484 988 411 905 l 627 855 q 685 818 651 832 q 736 807 718 803 q 783 829 761 812 q 827 859 806 846 q 833 855 829 860 q 835 848 837 850 q 769 778 806 821 q 733 667 733 734 l 733 189 m 491 176 l 491 661 l 320 824 l 320 339 l 491 176 z "},"":{"ha":942,"x_min":-54,"x_max":897,"o":"m 88 714 l 8 785 l -37 739 l -54 756 l 165 975 l 331 826 l 331 718 l 602 973 l 739 821 q 780 809 756 802 q 840 839 803 817 q 846 836 842 840 q 848 829 850 831 q 783 773 819 802 q 747 677 747 744 l 747 267 l 826 197 l 882 245 l 897 228 l 661 18 l 504 168 l 504 723 l 435 783 l 331 684 l 331 276 q 360 227 331 248 q 425 196 390 206 q 427 190 427 195 q 425 183 427 184 q 314 127 347 147 q 224 -3 281 106 q 213 -3 220 -14 q 119 122 153 102 q 9 183 85 142 q 9 193 -9 190 q 63 221 37 197 q 88 274 88 245 l 88 714 z "},"":{"ha":922,"x_min":-14,"x_max":879,"o":"m 127 709 l 47 781 l 2 735 l -14 752 l 205 971 l 370 821 l 370 713 l 642 969 l 768 845 q 809 846 785 826 q 869 888 832 865 q 875 885 871 890 q 877 878 879 880 q 817 824 848 850 q 786 730 786 797 l 786 224 q 590 156 690 222 q 502 80 541 124 q 442 -16 463 37 q 370 47 408 16 l 370 -224 l 127 -311 l 127 195 q 33 193 64 216 q 5 126 14 180 q -3 121 4 120 q -11 127 -11 121 q 27 275 -8 229 q 127 334 62 320 l 127 709 m 543 200 l 543 719 l 475 779 l 370 680 l 370 318 q 417 298 393 310 q 479 255 448 282 q 543 200 510 227 z "},"":{"ha":635,"x_min":-11,"x_max":606,"o":"m 66 816 q 280 864 191 821 q 457 972 370 907 q 508 873 472 911 q 568 860 543 835 q 586 932 578 871 q 595 938 586 937 q 604 935 604 939 q 533 724 606 775 q 417 707 484 689 q 309 815 351 724 l 315 305 l 470 184 l 589 302 l 605 284 l 326 5 l 144 124 q 84 126 122 138 q -1 61 45 114 q -7 63 -3 58 q -9 71 -11 68 q 39 129 12 104 q 66 218 66 155 l 66 816 z "},"":{"ha":1368,"x_min":-32,"x_max":1303,"o":"m 94 718 l 34 779 l -15 738 l -32 754 l 187 973 l 337 824 l 337 731 l 580 973 l 745 824 l 745 718 l 1001 972 l 1154 819 q 1195 817 1172 801 q 1254 856 1217 833 q 1260 853 1257 858 q 1262 846 1264 848 q 1197 781 1233 819 q 1161 675 1161 743 l 1161 253 l 1228 195 l 1286 250 l 1303 233 l 1076 17 l 918 166 l 918 722 l 850 782 l 745 683 l 745 275 q 829 189 745 194 q 832 182 832 188 q 829 175 832 176 q 724 122 752 140 q 640 -5 695 105 q 627 -5 634 -14 q 542 121 568 100 q 439 181 515 141 q 439 191 426 189 q 485 220 468 195 q 503 273 503 244 l 503 712 l 422 783 l 337 698 l 337 262 q 406 195 337 214 q 406 181 422 189 q 308 129 328 146 q 231 1 287 111 q 219 1 225 -7 q 126 124 160 107 q 15 181 92 141 q 15 191 2 189 q 69 220 44 195 q 94 273 94 244 l 94 718 z "},"":{"ha":911,"x_min":-50,"x_max":868,"o":"m 532 279 l 251 6 l 98 158 q 57 160 79 176 q -2 121 34 144 q -8 124 -4 119 q -10 132 -12 130 q 55 197 18 159 q 91 302 91 235 l 91 724 l 24 783 l -35 727 l -50 745 l 176 960 l 334 811 l 334 256 l 401 196 l 532 316 l 532 725 l 457 795 l 650 981 l 770 857 q 801 838 788 838 q 853 819 814 838 q 853 808 868 810 q 795 764 817 796 q 774 703 774 731 l 774 -214 q 565 -287 681 -229 q 389 -412 448 -345 q 232 -401 319 -389 q 62 -495 145 -414 q 53 -500 61 -499 q 45 -497 45 -501 q 87 -358 44 -422 q 200 -257 130 -294 q 357 -218 270 -220 q 530 -269 444 -217 l 532 -269 l 532 279 z "},"":{"ha":1235,"x_min":-41,"x_max":1177,"o":"m 687 -238 l 444 -359 l 444 184 l 205 -47 l 68 104 q -31 86 43 132 q -38 89 -34 84 q -39 97 -41 94 q 25 152 -10 123 q 61 248 61 180 l 61 628 l 444 945 l 444 1061 q 414 1111 444 1090 q 351 1141 385 1131 q 351 1155 334 1145 q 461 1210 428 1190 q 551 1341 494 1231 q 562 1341 555 1352 q 655 1215 621 1235 q 766 1155 690 1194 q 766 1145 783 1145 q 712 1116 737 1140 q 687 1063 687 1091 l 687 787 l 928 1021 l 1066 869 q 1166 887 1091 841 q 1173 883 1169 888 q 1175 876 1177 878 q 1109 821 1145 849 q 1074 725 1074 792 l 1074 345 l 687 26 l 687 -238 m 444 224 l 444 890 l 304 758 l 310 212 l 369 161 l 444 224 m 687 747 l 687 80 l 831 216 l 825 762 l 766 812 l 687 747 z "},"":{"ha":1003,"x_min":11,"x_max":956,"o":"m 851 250 l 884 307 l 914 286 l 755 13 l 470 199 l 418 324 l 271 16 l 257 7 q 137 45 199 45 q 50 -9 74 44 q 43 -17 50 -13 q 35 -17 37 -21 q 31 103 11 40 q 97 208 50 167 q 201 258 140 247 q 323 223 262 269 l 397 375 l 283 647 l 149 733 l 116 676 l 85 697 l 245 969 l 530 784 l 560 713 l 696 995 l 710 1004 q 830 965 767 965 q 917 1020 892 966 q 923 1028 916 1024 q 932 1029 930 1032 q 936 907 956 970 q 870 802 916 844 q 763 752 825 763 q 640 791 701 741 l 580 666 l 719 336 l 851 250 z "},"":{"ha":946,"x_min":-50,"x_max":901,"o":"m 758 271 l 838 199 l 884 245 l 901 229 l 682 9 l 681 9 l 667 -5 q 762 -106 745 -41 q 757 -230 778 -172 q 684 -330 736 -288 q 570 -372 633 -372 q 567 -363 566 -372 q 572 -355 568 -355 q 590 -254 613 -313 q 511 -157 568 -195 l 661 27 l 516 159 l 516 267 l 245 11 l 107 146 q 67 151 90 164 q 7 115 43 138 q 1 118 4 113 q -1 126 -3 123 q 64 176 28 153 q 100 267 100 199 l 100 718 l 35 797 l -35 739 l -50 756 l 186 966 l 343 817 l 343 261 l 411 201 l 516 300 l 516 708 q 492 768 516 736 q 435 809 468 799 q 431 815 431 810 q 435 823 431 821 l 592 998 q 604 998 599 1010 l 728 872 q 855 890 766 833 q 858 880 857 888 q 857 872 859 872 q 791 815 824 852 q 758 754 758 779 l 758 271 z "},"":{"ha":952,"x_min":-44,"x_max":907,"o":"m 765 263 l 845 192 l 890 237 l 907 221 l 688 2 l 522 151 l 522 468 l 251 212 l 113 347 q 73 352 96 365 q 14 317 50 338 q 6 320 10 315 q 5 327 3 325 q 70 377 34 353 q 106 468 106 400 l 106 710 l 41 789 l -28 731 l -44 749 l 192 958 l 349 809 l 349 463 l 418 401 l 522 500 l 522 701 q 498 761 522 730 q 441 802 475 791 q 441 815 424 808 l 598 991 q 610 991 604 1001 l 734 865 q 862 882 772 826 q 865 872 864 880 q 863 865 866 865 q 797 808 830 844 q 765 747 764 771 l 765 263 z "},"":{"ha":1345,"x_min":-54,"x_max":1281,"o":"m 1154 264 l 1215 203 l 1264 245 l 1281 228 l 1061 9 l 911 158 l 911 251 l 669 9 l 503 158 l 503 265 l 248 11 l 94 163 q 54 165 76 181 q -5 126 31 149 q -11 129 -7 124 q -13 137 -15 134 q 52 201 16 163 q 87 307 87 239 l 87 729 l 20 787 l -38 732 l -54 750 l 173 966 l 330 816 l 330 261 l 399 201 l 503 300 l 503 708 q 419 794 503 787 q 416 800 416 794 q 419 808 416 806 q 525 860 496 842 q 609 987 553 878 q 621 987 615 998 q 706 861 680 882 q 810 801 732 841 q 810 791 827 794 q 763 762 780 786 q 746 710 746 738 l 746 270 l 826 199 l 911 285 l 911 721 q 843 788 911 767 q 840 794 840 788 q 843 801 840 800 q 940 853 920 836 q 1017 981 961 871 q 1029 981 1023 991 q 1122 858 1088 876 q 1234 801 1156 841 q 1234 791 1251 794 q 1179 762 1204 786 q 1154 710 1154 738 l 1154 264 z "},"":{"ha":1344,"x_min":-54,"x_max":1280,"o":"m 1154 267 l 1214 206 l 1263 248 l 1280 231 l 1061 12 l 1060 12 l 1046 -2 q 1141 -104 1124 -39 q 1136 -227 1157 -169 q 1063 -328 1115 -286 q 949 -369 1012 -370 q 946 -361 945 -369 q 951 -353 947 -353 q 969 -251 992 -310 q 890 -154 947 -193 l 1042 31 l 911 161 l 911 254 l 668 12 l 503 161 l 503 268 l 248 14 l 94 166 q 53 168 76 184 q -5 130 31 151 q -12 133 -8 127 q -14 140 -16 138 q 51 204 15 166 q 87 310 87 242 l 87 732 l 20 791 l -38 735 l -54 753 l 172 968 l 330 819 l 330 264 l 398 203 l 503 302 l 503 711 q 418 797 503 791 q 415 803 415 797 q 418 810 416 809 q 524 863 496 845 q 609 990 552 880 q 621 990 613 1004 q 706 864 680 884 q 809 804 732 844 q 809 794 826 794 q 763 765 780 789 q 745 713 745 741 l 745 273 l 825 202 l 911 288 l 911 724 q 842 791 911 770 q 842 804 827 795 q 940 857 920 839 q 1017 984 960 874 q 1029 984 1021 996 q 1122 861 1088 878 q 1233 804 1156 844 q 1233 794 1250 794 q 1179 765 1204 789 q 1154 713 1154 741 l 1154 267 z "},"":{"ha":1005,"x_min":-71,"x_max":958,"o":"m 403 5 l 265 140 q 225 145 248 158 q 165 109 202 132 q 158 112 162 107 q 157 119 155 117 q 222 169 186 146 q 258 260 258 193 l 258 833 l 257 841 l 253 838 q 118 722 198 726 q -71 888 16 717 q 21 879 -23 867 q 121 978 66 892 q 134 977 125 990 q 196 907 162 927 q 269 870 230 886 q 375 841 317 848 q 499 823 433 833 l 498 819 l 501 819 l 501 599 l 699 688 l 765 658 q 850 600 816 611 q 947 627 884 589 q 954 624 949 629 q 956 617 958 619 q 898 558 926 589 q 870 460 870 528 l 870 172 q 630 119 747 165 q 403 5 513 73 m 501 574 l 501 258 l 627 149 l 627 483 l 501 574 z "},"":{"ha":1317,"x_min":-46,"x_max":1255,"o":"m 249 1 l 111 136 q 71 140 94 154 q 11 105 47 127 q 4 108 7 103 q 3 115 1 113 q 67 165 31 142 q 104 256 104 189 l 104 755 l 39 815 l -31 757 l -46 774 l 189 984 l 347 835 l 347 595 l 545 684 l 611 654 q 695 596 661 607 q 793 623 730 585 q 799 620 795 625 q 801 613 803 615 q 744 554 772 585 q 715 456 715 523 l 715 168 q 475 115 592 161 q 249 1 359 68 m 347 569 l 347 254 l 473 144 l 473 479 l 347 569 m 1112 260 l 1192 189 l 1238 235 l 1255 218 l 1035 -1 l 869 149 l 869 698 q 846 758 869 726 q 788 799 822 789 q 788 812 771 802 l 945 988 q 958 988 951 998 l 1082 862 q 1209 879 1120 822 q 1212 870 1211 878 q 1211 862 1213 862 q 1144 805 1178 842 q 1112 743 1111 768 l 1112 260 z "},"":{"ha":851,"x_min":-38,"x_max":811,"o":"m 257 1 l 119 136 q 79 140 102 154 q 19 105 56 127 q 12 108 16 103 q 11 115 8 113 q 76 165 39 142 q 112 256 112 189 l 112 744 l 47 806 l -22 749 l -38 766 l 198 976 l 355 827 l 355 595 l 553 684 l 619 654 q 704 596 669 607 q 801 623 738 585 q 807 620 804 625 q 809 613 811 615 q 752 554 780 585 q 724 456 724 523 l 724 168 q 484 115 600 161 q 257 1 367 68 m 355 569 l 355 254 l 481 144 l 481 479 l 355 569 z "},"":{"ha":714,"x_min":-140,"x_max":680,"o":"m 328 488 l 327 489 q 253 402 304 422 q 153 395 202 383 q 65 444 104 407 q 22 532 26 481 q 28 535 22 536 q 35 532 35 535 q 118 527 73 503 q 189 601 163 551 l 327 513 l 325 777 l 266 831 l 97 706 l 81 739 l 424 985 l 587 855 q 620 846 606 839 q 670 876 633 853 q 676 872 673 877 q 678 865 680 867 q 627 817 656 844 q 581 750 597 789 l 581 242 q 377 143 500 203 q 140 -73 254 84 q 98 -45 134 -54 q 20 -37 62 -36 q -57 -51 -21 -39 q -98 -90 -92 -64 q -115 -100 -98 -94 q -132 -101 -132 -105 q 4 109 -140 18 q 330 152 149 199 l 328 488 z "},"":{"ha":1361,"x_min":-55,"x_max":1297,"o":"m 87 716 l 7 787 l -38 742 l -55 758 l 165 977 l 330 828 l 330 569 l 537 569 l 537 812 q 764 860 659 814 q 944 989 871 906 l 1086 857 q 1144 819 1111 833 q 1196 808 1177 804 q 1243 830 1220 812 q 1286 859 1265 847 q 1293 856 1289 861 q 1295 849 1297 851 q 1229 778 1265 822 q 1193 667 1193 734 l 1193 190 q 966 142 1057 182 q 786 12 871 102 l 638 140 q 591 179 612 162 q 551 192 569 196 q 506 174 526 186 q 465 149 486 161 q 458 152 463 146 q 457 159 454 157 q 511 207 486 186 q 537 296 537 228 l 537 523 l 330 523 l 330 278 q 360 229 330 250 q 424 199 389 208 q 424 185 441 192 q 313 130 347 150 q 224 -1 280 109 q 212 -1 219 -12 q 118 125 153 104 q 8 185 84 145 q 8 195 -5 193 q 62 224 37 199 q 87 277 87 248 l 87 716 m 950 177 l 950 661 l 779 825 l 779 340 l 950 177 z "},"":{"ha":924,"x_min":-247,"x_max":880,"o":"m 361 123 q 244 41 288 72 q 167 -23 201 11 q 99 -104 133 -56 q 12 -235 65 -151 q -30 -209 5 -218 q -107 -201 -66 -199 q -185 -215 -149 -202 q -227 -254 -220 -227 q -235 -263 -227 -258 q -243 -264 -243 -268 q -212 -156 -247 -210 q -124 -62 -178 -102 q -7 -6 -70 -23 q 111 -11 56 10 l 109 206 q 137 329 109 268 q 235 421 165 390 q 142 479 178 431 q 106 578 106 528 l 104 741 q 321 818 224 772 q 531 980 418 864 l 722 804 q 763 793 739 785 q 823 823 786 800 q 829 820 825 825 q 831 812 833 814 q 765 757 802 785 q 729 661 729 728 l 729 251 l 809 180 l 865 230 l 880 212 l 644 2 l 487 152 l 487 400 l 414 400 q 375 372 389 400 q 361 321 361 345 l 361 123 m 487 473 l 487 673 l 361 779 l 361 543 q 376 496 361 520 q 414 473 391 473 l 487 473 z "},"":{"ha":1255,"x_min":3,"x_max":1196,"o":"m 862 1011 l 862 697 q 933 818 888 783 q 1027 852 979 854 q 1134 804 1085 850 q 1193 690 1183 758 q 1186 675 1196 677 q 1066 601 1099 663 q 1028 513 1034 538 q 1014 504 1026 506 q 1001 509 1002 503 q 945 657 989 616 q 862 633 901 699 l 862 69 q 1038 221 960 106 q 1130 461 1117 336 q 1143 470 1130 467 q 1156 467 1156 473 q 1056 187 1143 309 q 834 13 969 64 q 496 -4 675 -47 q 198 157 317 39 q 57 368 111 243 q 3 655 3 494 q 84 995 3 834 q 300 1250 166 1156 q 369 1268 326 1267 q 389 1221 413 1269 q 330 979 345 1135 l 940 1345 q 951 1345 943 1341 q 960 1335 958 1349 q 990 1222 968 1261 q 1036 1171 1011 1183 q 1114 1181 1078 1148 q 1143 1261 1151 1213 l 1175 1267 q 1119 1087 1165 1144 q 1019 1012 1073 1030 q 919 1000 965 994 q 862 1011 872 1006 m 827 63 l 827 1023 q 765 1095 784 1048 q 740 1168 746 1142 l 724 1160 l 722 330 l 389 216 q 432 158 405 191 q 511 97 459 125 q 666 43 576 60 q 827 63 755 26 m 326 941 q 319 794 319 870 q 321 648 319 719 q 327 464 322 608 q 377 248 332 319 l 432 268 l 432 1000 l 326 941 m 621 1426 q 758 1563 715 1468 q 765 1567 759 1567 q 772 1563 770 1567 q 909 1426 798 1483 q 909 1411 922 1419 q 772 1274 804 1342 q 758 1274 766 1259 q 621 1411 699 1363 q 621 1426 605 1419 m 292 1426 q 429 1563 387 1468 q 444 1563 437 1579 q 581 1426 471 1483 q 581 1411 595 1418 q 444 1274 475 1341 q 429 1274 437 1261 q 292 1411 371 1363 q 292 1426 278 1419 z "},"":{"ha":715,"x_min":-14,"x_max":682,"o":"m 309 463 l 311 330 l 490 208 l 608 357 l 624 339 l 370 -2 l 170 130 q 95 161 148 144 q -5 125 42 178 q -11 127 -7 122 q -13 135 -14 132 q 35 193 8 168 q 62 281 62 218 l 62 871 q 293 892 186 876 q 486 974 400 909 l 682 665 l 309 463 m 28 1132 q 155 1259 116 1171 q 168 1259 163 1278 q 295 1132 192 1186 q 295 1118 307 1126 q 168 992 197 1055 q 155 992 162 979 q 28 1118 102 1074 q 28 1132 15 1126 m 317 1132 q 443 1259 404 1171 q 456 1259 451 1278 q 583 1132 480 1185 q 583 1118 595 1126 q 456 992 486 1055 q 443 992 450 979 q 317 1118 389 1074 q 317 1132 303 1126 m 456 572 l 304 844 l 309 496 l 456 572 z "},"":{"ha":1911,"x_min":-16,"x_max":1883,"o":"m 625 1059 l 625 230 l 708 309 l 732 283 l 445 2 q 286 112 366 85 q 124 132 205 138 q 27 45 40 124 q 61 -81 14 -35 q 160 -134 92 -113 q 307 -161 228 -155 q 466 -155 387 -168 q 602 -107 546 -143 q 651 -33 637 -84 q 661 68 665 19 l 681 64 q 597 -179 699 -63 q 360 -288 494 -294 q 174 -241 267 -283 q 39 -119 81 -200 q 11 123 -16 -13 q 125 329 38 260 q 176 375 149 357 q 241 415 202 393 l 241 652 l 98 658 q 40 639 63 659 q 11 557 17 619 l -1 558 l -1 709 q 31 800 -1 744 q 173 856 62 856 l 241 856 l 241 1048 q 161 1044 197 1044 q 103 1055 126 1044 q 44 1100 66 1072 q 20 1194 22 1128 q 22 1265 19 1227 q 25 1348 24 1304 q 35 1354 25 1357 q 46 1345 45 1352 q 56 1315 47 1318 q 150 1308 82 1303 q 270 1316 218 1313 q 338 1318 298 1317 q 411 1313 378 1318 q 472 1287 450 1305 q 507 1215 507 1258 l 507 1004 q 700 1167 603 1086 q 889 1336 798 1249 q 907 1337 900 1345 q 993 1226 928 1312 q 1149 1118 1057 1141 q 1156 1109 1155 1117 q 1152 1101 1158 1101 q 1074 1079 1104 1098 q 1043 1002 1043 1059 l 1043 365 q 1055 294 1043 323 q 1098 248 1067 261 q 1140 245 1129 235 l 1202 306 l 1219 292 q 1081 146 1154 229 q 945 1 1009 63 q 935 0 940 0 q 926 -1 930 0 l 768 152 l 768 1067 l 708 1129 q 707 1129 707 1129 q 625 1059 707 1130 m 507 958 l 507 433 q 269 404 361 438 q 203 368 237 393 q 398 356 311 396 q 590 248 486 316 l 590 1029 l 507 958 m 1688 806 q 1628 949 1688 889 q 1457 1036 1567 1008 q 1407 907 1407 977 q 1476 772 1407 835 q 1638 686 1546 709 q 1688 806 1688 743 m 1792 892 q 1730 717 1792 797 q 1555 590 1669 636 q 1371 692 1444 625 q 1301 848 1301 759 q 1365 1008 1301 935 q 1539 1137 1427 1078 q 1719 1044 1645 1112 q 1792 892 1792 976 m 1122 469 l 1122 555 l 1883 555 l 1883 469 l 1122 469 z "},"":{"ha":806,"x_min":-19,"x_max":802,"o":"m 331 165 q 657 121 512 212 q 793 -88 802 31 q 776 -87 793 -92 q 760 -77 760 -81 q 718 -38 753 -51 q 641 -24 682 -26 q 564 -32 600 -23 q 521 -60 528 -41 q 284 156 407 97 q 81 255 161 216 l 81 763 q 35 830 64 802 q -17 878 5 857 q -15 885 -19 880 q -9 888 -12 890 q 41 859 28 866 q 75 868 55 852 l 237 998 l 581 752 l 564 719 l 395 844 l 336 789 l 334 526 l 472 614 q 543 540 498 564 q 626 545 588 516 q 633 548 627 548 q 640 545 640 549 q 596 457 635 494 q 508 408 557 420 q 408 415 459 396 q 334 502 357 435 l 334 501 l 331 165 z "},"":{"ha":1098,"x_min":-1,"x_max":1031,"o":"m 471 317 q 807 330 646 379 q 840 318 823 325 q 873 302 856 311 l 951 240 q 1025 60 1020 164 q 977 -134 1031 -43 q 827 -248 929 -214 q 621 -287 726 -281 q 343 -165 468 -293 q 241 90 219 -38 l 263 93 q 295 -47 254 1 q 378 -121 336 -96 q 481 -159 426 -150 q 543 -166 508 -164 q 622 -167 578 -168 q 815 -146 726 -165 q 947 -92 907 -127 q 975 40 1000 -45 q 855 132 951 125 q 671 107 762 138 q 492 -8 581 75 q 290 178 403 104 q -1 253 178 253 l 7 1147 q 63 1258 12 1214 q 127 1296 92 1283 q 180 1314 163 1310 q 215 1315 189 1316 q 286 1314 241 1315 q 378 1310 330 1312 q 477 1305 426 1308 q 576 1299 529 1302 q 668 1294 624 1297 q 738 1290 713 1291 q 770 1289 763 1289 q 826 1285 796 1288 q 890 1280 855 1283 q 984 1288 958 1276 q 994 1301 994 1292 q 994 1318 994 1310 q 1004 1327 995 1324 q 1015 1320 1015 1330 q 1022 1283 1019 1300 q 1025 1250 1024 1265 q 1025 1219 1025 1234 q 1024 1187 1024 1204 q 987 1075 1022 1122 q 917 1012 954 1028 q 781 1001 879 994 q 580 1019 682 1008 q 555 1022 570 1020 q 525 1025 541 1023 q 495 1027 510 1026 q 471 1030 481 1029 l 471 317 m 418 1034 q 369 1037 389 1035 q 336 1040 349 1039 q 275 1002 276 1046 q 274 962 275 981 q 274 928 274 943 l 277 235 l 292 224 q 364 268 328 248 q 436 302 400 288 l 436 1025 l 418 1034 l 418 1034 m 464 702 q 535 823 490 787 q 629 857 581 859 q 736 809 688 855 q 795 695 785 762 q 788 680 797 681 q 668 606 701 668 q 630 517 635 543 q 616 509 628 511 q 604 514 604 507 q 547 662 591 621 q 464 638 503 703 l 464 702 l 464 702 z "},"":{"ha":1207,"x_min":-31,"x_max":1150,"o":"m 918 1316 q 937 1317 927 1323 q 1001 1217 960 1299 q 1130 1098 1042 1135 q 1133 1081 1150 1090 q 1070 1041 1092 1061 q 1049 982 1049 1021 l 1049 345 q 1044 202 1049 290 q 996 21 1038 114 q 860 -158 954 -73 q 588 -293 766 -243 q 589 -287 583 -293 q 591 -281 595 -281 q 701 -198 663 -254 q 755 -79 739 -142 q 772 42 771 -16 q 774 132 774 100 l 774 1047 l 717 1105 l 656 1057 l 656 255 l 685 298 l 709 273 l 425 -16 q 340 72 391 21 q 164 128 289 122 q 56 70 90 132 q 42 -28 31 28 q 82 -113 52 -84 q 197 -165 127 -158 q 331 -175 268 -172 q 535 -142 448 -181 q 637 31 621 -102 l 657 27 q 564 -192 662 -92 q 344 -293 466 -292 q 164 -232 251 -293 q 35 -69 77 -171 q 41 220 -31 89 q 245 400 113 352 l 245 631 l 107 631 q 46 605 73 631 q 21 516 19 578 l 8 517 l 8 711 q 46 807 8 773 q 124 841 84 841 l 245 841 l 245 1033 q 166 1029 201 1029 q 107 1040 131 1029 q 59 1082 71 1057 q 45 1174 47 1107 q 44 1245 45 1206 q 45 1327 44 1284 q 55 1334 45 1337 q 66 1325 65 1331 q 81 1295 68 1300 q 165 1290 107 1282 q 274 1301 222 1298 q 342 1303 302 1302 q 415 1298 382 1303 q 477 1273 455 1291 q 512 1200 512 1242 l 512 988 q 719 1147 614 1067 q 918 1316 825 1227 m 512 944 l 512 420 q 261 389 362 426 q 256 384 249 385 q 268 382 264 382 q 461 353 368 393 q 621 234 554 313 l 621 1029 l 512 944 m 421 1402 q 574 1510 507 1449 q 592 1510 587 1522 q 729 1407 641 1410 q 823 1486 817 1404 q 831 1487 823 1488 q 838 1483 838 1486 q 787 1343 838 1397 q 667 1277 736 1290 q 513 1302 572 1259 q 421 1402 454 1345 z "},"":{"ha":919,"x_min":-24,"x_max":876,"o":"m 530 266 l 251 -1 q 239 -1 245 -14 q 145 133 180 103 q 35 203 111 163 q 35 214 22 211 q 89 242 64 218 q 114 295 114 267 l 114 760 l 38 809 l -7 764 l -24 780 l 195 999 l 359 850 q 359 576 359 715 q 359 296 359 437 l 428 206 l 444 220 l 530 300 l 530 741 l 463 827 l 628 991 l 766 858 q 865 884 798 821 q 872 881 868 886 q 873 874 876 876 q 807 814 844 847 q 770 714 770 781 l 782 319 q 762 77 786 184 q 671 -108 737 -29 q 345 -281 561 -237 l 349 -263 q 456 -216 427 -243 q 528 -41 526 -151 q 530 169 530 68 l 530 266 m 279 1047 l 455 1142 q 492 1055 441 1081 q 589 1109 543 1029 q 594 1107 590 1111 q 597 1101 598 1103 q 414 938 514 943 q 279 1047 315 933 z "},"":{"ha":1004,"x_min":-31,"x_max":957,"o":"m 464 857 l 498 863 l 498 244 q 570 181 534 218 l 570 823 q 863 952 715 857 l 863 236 q 957 237 902 237 l 950 217 q 415 -17 609 205 q 284 77 326 58 q 150 90 243 95 q 42 -7 54 83 q 82 -140 29 -98 q 213 -189 122 -172 q 407 -208 304 -205 q 553 -201 481 -209 q 678 -169 624 -193 q 747 -80 726 -146 q 774 54 769 -14 l 797 47 q 766 -101 793 -35 q 674 -224 739 -167 q 408 -316 557 -322 q 206 -282 303 -312 q 61 -178 109 -252 q 30 110 -31 -37 q 227 298 92 256 q 464 267 345 334 l 464 491 l 338 496 q 260 384 272 498 l 248 385 l 248 536 q 263 632 248 570 q 389 694 278 694 l 464 694 l 464 857 m 871 1169 l 888 1165 q 761 942 874 992 q 567 906 648 892 q 488 939 526 913 q 413 997 449 964 q 322 1082 366 1039 q 234 1146 277 1126 q 141 1153 182 1171 q 81 1105 100 1135 q 57 1028 63 1076 q 66 938 50 980 q 197 803 101 845 q 389 888 293 762 l 402 878 q 270 786 333 798 q 155 800 207 774 q 35 941 61 847 q 39 1107 10 1021 q 125 1246 68 1193 q 249 1316 175 1291 q 430 1316 323 1341 q 564 1251 515 1295 q 645 1162 612 1206 q 710 1084 679 1118 q 795 1051 742 1050 q 871 1169 865 1052 z "},"":{"ha":935,"x_min":-44,"x_max":891,"o":"m 467 857 l 501 863 l 501 244 l 338 26 q 263 75 303 56 q 153 90 222 94 q 45 -7 58 83 q 85 -140 32 -98 q 241 -208 168 -205 q 406 -169 315 -211 q 476 -80 451 -148 l 502 -84 q 474 -165 488 -123 q 425 -241 461 -208 q 214 -324 322 -328 q 41 -212 106 -320 q 25 95 -44 -66 q 230 298 95 256 q 467 267 348 334 l 467 491 l 340 496 q 263 384 274 498 l 250 385 l 250 536 q 266 632 250 570 q 392 694 281 694 l 467 694 l 467 857 m 873 1169 l 891 1165 q 764 942 877 992 q 570 906 650 892 q 491 939 529 913 q 416 997 452 964 q 325 1082 369 1039 q 237 1146 280 1126 q 144 1153 184 1171 q 85 1105 104 1135 q 60 1028 66 1076 q 70 938 54 980 q 200 803 104 845 q 392 888 296 762 l 406 878 q 273 786 336 798 q 158 800 210 774 q 37 941 65 846 q 42 1107 14 1021 q 128 1246 71 1193 q 252 1316 178 1291 q 433 1316 326 1341 q 567 1251 519 1295 q 649 1162 615 1206 q 714 1084 682 1118 q 798 1051 745 1050 q 873 1169 867 1052 m 861 945 l 861 325 q 856 182 861 270 q 808 1 850 94 q 672 -178 766 -93 q 400 -313 578 -264 q 401 -307 395 -313 q 402 -301 407 -300 q 512 -219 475 -275 q 566 -100 550 -163 q 584 22 583 -37 q 586 111 586 80 l 586 839 q 861 945 712 854 z "},"":{"ha":1004,"x_min":-31,"x_max":957,"o":"m 464 857 l 498 863 l 498 244 q 570 181 534 218 l 570 823 q 863 952 715 857 l 863 236 q 957 237 902 237 l 950 217 q 415 -17 609 205 q 284 77 326 58 q 150 90 243 95 q 42 -7 54 83 q 82 -140 29 -98 q 213 -189 122 -172 q 407 -208 304 -205 q 553 -201 481 -209 q 678 -169 624 -193 q 747 -80 726 -146 q 774 54 769 -14 l 797 47 q 766 -101 793 -35 q 674 -224 739 -167 q 408 -316 557 -322 q 206 -282 303 -312 q 61 -178 109 -252 q 30 110 -31 -37 q 227 298 92 256 q 464 267 345 334 l 464 491 l 338 496 q 260 384 272 498 l 248 385 l 248 536 q 263 632 248 570 q 389 694 278 694 l 464 694 l 464 857 m 871 1169 l 888 1165 q 761 942 874 992 q 567 906 648 892 q 488 939 526 913 q 413 997 449 964 q 322 1082 366 1039 q 234 1146 277 1126 q 141 1153 182 1171 q 81 1105 100 1135 q 57 1028 63 1076 q 66 938 50 980 q 197 803 101 845 q 389 888 293 762 l 402 878 q 270 786 333 798 q 155 800 207 774 q 35 941 61 847 q 39 1107 10 1021 q 125 1246 68 1193 q 249 1316 175 1291 q 430 1316 323 1341 q 564 1251 515 1295 q 645 1162 612 1206 q 710 1084 679 1118 q 795 1051 742 1050 q 871 1169 865 1052 m 585 1508 q 722 1645 679 1550 q 729 1649 723 1649 q 736 1645 734 1649 q 873 1508 762 1565 q 873 1493 886 1501 q 736 1356 768 1424 q 722 1356 730 1341 q 585 1493 663 1445 q 585 1508 569 1501 m 256 1508 q 393 1645 351 1550 q 408 1645 401 1662 q 545 1508 435 1565 q 545 1493 559 1500 q 408 1356 439 1423 q 393 1356 401 1343 q 256 1493 335 1445 q 256 1508 242 1501 z "},"":{"ha":491,"x_min":-56,"x_max":468,"o":"m 317 268 l 397 197 l 452 246 l 468 229 l 231 19 l 75 169 l 68 714 l 9 766 l -39 720 l -56 737 l 172 974 l 310 821 q 350 810 327 802 q 410 840 374 817 q 416 836 412 841 q 418 829 420 831 q 353 773 389 802 q 317 677 317 745 l 317 268 m 9 1167 q 172 1329 120 1216 q 189 1329 181 1351 q 351 1167 220 1235 q 351 1149 366 1158 q 189 987 225 1067 q 172 987 181 971 q 9 1149 102 1093 q 9 1167 -8 1159 z "},"":{"ha":491,"x_min":-204,"x_max":554,"o":"m 317 268 l 397 197 l 452 246 l 468 229 l 231 19 l 75 169 l 68 714 l 9 766 l -39 720 l -56 737 l 172 974 l 310 821 q 350 810 327 802 q 410 840 374 817 q 416 836 412 841 q 418 829 420 831 q 353 773 389 802 q 317 677 317 745 l 317 268 m -186 1158 q -24 1320 -76 1206 q -7 1320 -15 1341 q 155 1158 24 1225 q 155 1140 170 1149 q -7 978 29 1058 q -24 978 -15 962 q -186 1140 -94 1084 q -186 1158 -204 1149 m 198 1160 q 360 1322 309 1209 q 377 1322 370 1344 q 539 1160 408 1228 q 539 1143 554 1152 q 377 981 414 1061 q 360 981 370 964 q 198 1143 290 1086 q 198 1160 180 1152 z "},"":{"ha":453,"x_min":-38,"x_max":432,"o":"m 329 -229 l 86 -297 l 86 734 l 24 794 l -22 755 l -38 772 l 184 984 l 321 831 q 422 850 347 804 q 428 846 424 851 q 430 839 432 841 q 365 783 401 812 q 329 688 329 755 l 329 -229 m 62 1185 q 206 1329 161 1230 q 222 1329 215 1348 q 366 1185 250 1246 q 366 1169 378 1178 q 222 1025 255 1097 q 206 1025 215 1012 q 62 1169 145 1119 q 62 1185 47 1179 z "}}}
